<mxfile host="app.diagrams.net" modified="2023-07-12T23:30:55.307Z" agent="Mozilla/5.0 (Windows NT 10.0; Win64; x64) AppleWebKit/537.36 (KHTML, like Gecko) Chrome/113.0.0.0 Safari/537.36 OPR/99.0.0.0" etag="Azi3NqoQC3bMLyPKe-3l" version="21.6.2" type="github" pages="8">
  <diagram id="Nuijkc5xVWV2Awu1ugBu" name="Architecture">
    <mxGraphModel dx="1393" dy="766" grid="1" gridSize="10" guides="1" tooltips="1" connect="1" arrows="1" fold="1" page="1" pageScale="1" pageWidth="850" pageHeight="1100" math="0" shadow="0">
      <root>
        <mxCell id="0" />
        <mxCell id="1" parent="0" />
        <mxCell id="_PmULTiN97F122WishU0-1" value="" style="rounded=1;whiteSpace=wrap;html=1;fillColor=#dae8fc;strokeColor=#6c8ebf;arcSize=3;" parent="1" vertex="1">
          <mxGeometry x="30" y="30" width="795" height="520" as="geometry" />
        </mxCell>
        <mxCell id="_PmULTiN97F122WishU0-2" value="" style="rounded=1;whiteSpace=wrap;html=1;fillColor=#fff2cc;strokeColor=#d6b656;shadow=1;" parent="1" vertex="1">
          <mxGeometry x="45" y="60" width="240" height="130" as="geometry" />
        </mxCell>
        <mxCell id="_PmULTiN97F122WishU0-4" value="&lt;div style=&quot;text-align: justify;&quot;&gt;&lt;span style=&quot;background-color: initial;&quot;&gt;&lt;font style=&quot;font-size: 13px;&quot;&gt;&lt;b&gt;SimVex&lt;/b&gt;&lt;/font&gt;&lt;/span&gt;&lt;/div&gt;" style="text;html=1;align=center;verticalAlign=middle;resizable=0;points=[];autosize=1;strokeColor=none;fillColor=none;" parent="1" vertex="1">
          <mxGeometry x="30" y="30" width="70" height="30" as="geometry" />
        </mxCell>
        <mxCell id="_PmULTiN97F122WishU0-5" value="&lt;div style=&quot;text-align: justify;&quot;&gt;&lt;span style=&quot;background-color: initial;&quot;&gt;&lt;font style=&quot;font-size: 13px;&quot;&gt;&lt;b&gt;Input Module&lt;/b&gt;&lt;/font&gt;&lt;/span&gt;&lt;/div&gt;" style="text;html=1;align=center;verticalAlign=middle;resizable=0;points=[];autosize=1;strokeColor=none;fillColor=none;" parent="1" vertex="1">
          <mxGeometry x="45" y="60" width="100" height="30" as="geometry" />
        </mxCell>
        <mxCell id="_PmULTiN97F122WishU0-8" style="edgeStyle=orthogonalEdgeStyle;rounded=0;orthogonalLoop=1;jettySize=auto;html=1;entryX=0.5;entryY=0;entryDx=0;entryDy=0;" parent="1" source="_PmULTiN97F122WishU0-6" target="_PmULTiN97F122WishU0-7" edge="1">
          <mxGeometry relative="1" as="geometry" />
        </mxCell>
        <mxCell id="_PmULTiN97F122WishU0-6" value="Graphical User Interface" style="rounded=1;whiteSpace=wrap;html=1;glass=0;shadow=0;" parent="1" vertex="1">
          <mxGeometry x="80" y="100" width="170" height="30" as="geometry" />
        </mxCell>
        <mxCell id="_PmULTiN97F122WishU0-11" style="edgeStyle=orthogonalEdgeStyle;rounded=0;orthogonalLoop=1;jettySize=auto;html=1;entryX=0.5;entryY=0;entryDx=0;entryDy=0;" parent="1" source="_PmULTiN97F122WishU0-7" target="_PmULTiN97F122WishU0-9" edge="1">
          <mxGeometry relative="1" as="geometry" />
        </mxCell>
        <mxCell id="_PmULTiN97F122WishU0-7" value="View Controller" style="rounded=1;whiteSpace=wrap;html=1;" parent="1" vertex="1">
          <mxGeometry x="80" y="150" width="170" height="30" as="geometry" />
        </mxCell>
        <mxCell id="_PmULTiN97F122WishU0-30" style="edgeStyle=orthogonalEdgeStyle;rounded=0;orthogonalLoop=1;jettySize=auto;html=1;entryX=0;entryY=0.5;entryDx=0;entryDy=0;" parent="1" source="_PmULTiN97F122WishU0-9" target="_PmULTiN97F122WishU0-12" edge="1">
          <mxGeometry relative="1" as="geometry">
            <Array as="points">
              <mxPoint x="165" y="325" />
            </Array>
          </mxGeometry>
        </mxCell>
        <mxCell id="_PmULTiN97F122WishU0-9" value="" style="rounded=1;whiteSpace=wrap;html=1;fillColor=#d5e8d4;strokeColor=#82b366;shadow=1;" parent="1" vertex="1">
          <mxGeometry x="45" y="210" width="240" height="60" as="geometry" />
        </mxCell>
        <mxCell id="_PmULTiN97F122WishU0-10" value="&lt;div style=&quot;text-align: justify;&quot;&gt;&lt;span style=&quot;background-color: initial;&quot;&gt;&lt;font style=&quot;font-size: 13px;&quot;&gt;&lt;b&gt;File Module&lt;/b&gt;&lt;/font&gt;&lt;/span&gt;&lt;/div&gt;" style="text;html=1;align=center;verticalAlign=middle;resizable=0;points=[];autosize=1;strokeColor=none;fillColor=none;" parent="1" vertex="1">
          <mxGeometry x="55" y="210" width="100" height="30" as="geometry" />
        </mxCell>
        <mxCell id="_PmULTiN97F122WishU0-35" style="edgeStyle=orthogonalEdgeStyle;rounded=0;orthogonalLoop=1;jettySize=auto;html=1;entryX=0.5;entryY=0;entryDx=0;entryDy=0;" parent="1" source="_PmULTiN97F122WishU0-12" target="_PmULTiN97F122WishU0-15" edge="1">
          <mxGeometry relative="1" as="geometry">
            <Array as="points">
              <mxPoint x="428" y="380" />
              <mxPoint x="279" y="380" />
            </Array>
          </mxGeometry>
        </mxCell>
        <mxCell id="_PmULTiN97F122WishU0-38" style="edgeStyle=orthogonalEdgeStyle;rounded=0;orthogonalLoop=1;jettySize=auto;html=1;entryX=0.5;entryY=0;entryDx=0;entryDy=0;" parent="1" source="_PmULTiN97F122WishU0-12" target="_PmULTiN97F122WishU0-19" edge="1">
          <mxGeometry relative="1" as="geometry">
            <Array as="points">
              <mxPoint x="428" y="380" />
              <mxPoint x="582" y="380" />
            </Array>
          </mxGeometry>
        </mxCell>
        <mxCell id="_PmULTiN97F122WishU0-44" style="edgeStyle=orthogonalEdgeStyle;rounded=0;orthogonalLoop=1;jettySize=auto;html=1;entryX=0;entryY=0.5;entryDx=0;entryDy=0;" parent="1" source="_PmULTiN97F122WishU0-12" target="_PmULTiN97F122WishU0-43" edge="1">
          <mxGeometry relative="1" as="geometry" />
        </mxCell>
        <mxCell id="_PmULTiN97F122WishU0-12" value="" style="rounded=1;whiteSpace=wrap;html=1;fillColor=#ffe6cc;strokeColor=#d79b00;shadow=1;" parent="1" vertex="1">
          <mxGeometry x="307.5" y="280" width="240" height="90" as="geometry" />
        </mxCell>
        <mxCell id="_PmULTiN97F122WishU0-13" value="&lt;div style=&quot;text-align: justify;&quot;&gt;&lt;span style=&quot;background-color: initial;&quot;&gt;&lt;font style=&quot;font-size: 13px;&quot;&gt;&lt;b&gt;Sim Controller&lt;/b&gt;&lt;/font&gt;&lt;/span&gt;&lt;/div&gt;" style="text;html=1;align=center;verticalAlign=middle;resizable=0;points=[];autosize=1;strokeColor=none;fillColor=none;" parent="1" vertex="1">
          <mxGeometry x="307.5" y="280" width="110" height="30" as="geometry" />
        </mxCell>
        <mxCell id="_PmULTiN97F122WishU0-22" style="edgeStyle=orthogonalEdgeStyle;rounded=0;orthogonalLoop=1;jettySize=auto;html=1;entryX=0.5;entryY=0;entryDx=0;entryDy=0;" parent="1" source="_PmULTiN97F122WishU0-15" target="_PmULTiN97F122WishU0-20" edge="1">
          <mxGeometry relative="1" as="geometry" />
        </mxCell>
        <mxCell id="_PmULTiN97F122WishU0-23" style="edgeStyle=orthogonalEdgeStyle;rounded=0;orthogonalLoop=1;jettySize=auto;html=1;entryX=0.425;entryY=0.025;entryDx=0;entryDy=0;entryPerimeter=0;" parent="1" source="_PmULTiN97F122WishU0-15" target="_PmULTiN97F122WishU0-21" edge="1">
          <mxGeometry relative="1" as="geometry" />
        </mxCell>
        <mxCell id="_PmULTiN97F122WishU0-24" style="edgeStyle=orthogonalEdgeStyle;rounded=0;orthogonalLoop=1;jettySize=auto;html=1;entryX=0.5;entryY=0;entryDx=0;entryDy=0;" parent="1" source="_PmULTiN97F122WishU0-15" target="_PmULTiN97F122WishU0-18" edge="1">
          <mxGeometry relative="1" as="geometry" />
        </mxCell>
        <mxCell id="_PmULTiN97F122WishU0-15" value="" style="rounded=1;whiteSpace=wrap;html=1;fillColor=#ffe6cc;strokeColor=#d79b00;shadow=1;" parent="1" vertex="1">
          <mxGeometry x="194" y="400" width="170" height="50" as="geometry" />
        </mxCell>
        <mxCell id="_PmULTiN97F122WishU0-17" value="&lt;div style=&quot;text-align: justify;&quot;&gt;&lt;span style=&quot;background-color: initial;&quot;&gt;&lt;font style=&quot;font-size: 13px;&quot;&gt;&lt;b&gt;Transit Network&lt;/b&gt;&lt;/font&gt;&lt;/span&gt;&lt;/div&gt;" style="text;html=1;align=center;verticalAlign=middle;resizable=0;points=[];autosize=1;strokeColor=none;fillColor=none;" parent="1" vertex="1">
          <mxGeometry x="219" y="410" width="120" height="30" as="geometry" />
        </mxCell>
        <mxCell id="_PmULTiN97F122WishU0-18" value="Street Model" style="rounded=1;whiteSpace=wrap;html=1;" parent="1" vertex="1">
          <mxGeometry x="149" y="490" width="80" height="40" as="geometry" />
        </mxCell>
        <mxCell id="_PmULTiN97F122WishU0-33" style="edgeStyle=orthogonalEdgeStyle;rounded=0;orthogonalLoop=1;jettySize=auto;html=1;entryX=0.5;entryY=0;entryDx=0;entryDy=0;" parent="1" source="_PmULTiN97F122WishU0-19" target="_PmULTiN97F122WishU0-26" edge="1">
          <mxGeometry relative="1" as="geometry">
            <Array as="points">
              <mxPoint x="582" y="460" />
              <mxPoint x="537" y="460" />
            </Array>
          </mxGeometry>
        </mxCell>
        <mxCell id="_PmULTiN97F122WishU0-34" style="edgeStyle=orthogonalEdgeStyle;rounded=0;orthogonalLoop=1;jettySize=auto;html=1;entryX=0.5;entryY=0;entryDx=0;entryDy=0;" parent="1" source="_PmULTiN97F122WishU0-19" target="_PmULTiN97F122WishU0-27" edge="1">
          <mxGeometry relative="1" as="geometry">
            <Array as="points">
              <mxPoint x="582" y="460" />
              <mxPoint x="627" y="460" />
            </Array>
          </mxGeometry>
        </mxCell>
        <mxCell id="_PmULTiN97F122WishU0-19" value="" style="rounded=1;whiteSpace=wrap;html=1;fillColor=#ffe6cc;strokeColor=#d79b00;shadow=1;" parent="1" vertex="1">
          <mxGeometry x="497" y="400" width="170" height="50" as="geometry" />
        </mxCell>
        <mxCell id="_PmULTiN97F122WishU0-20" value="Stop Model" style="rounded=1;whiteSpace=wrap;html=1;" parent="1" vertex="1">
          <mxGeometry x="239" y="490" width="80" height="40" as="geometry" />
        </mxCell>
        <mxCell id="_PmULTiN97F122WishU0-21" value="Intersection Model" style="rounded=1;whiteSpace=wrap;html=1;" parent="1" vertex="1">
          <mxGeometry x="329" y="490" width="80" height="40" as="geometry" />
        </mxCell>
        <mxCell id="_PmULTiN97F122WishU0-25" value="&lt;div style=&quot;text-align: justify;&quot;&gt;&lt;span style=&quot;background-color: initial;&quot;&gt;&lt;font style=&quot;font-size: 13px;&quot;&gt;&lt;b&gt;Entities&lt;/b&gt;&lt;/font&gt;&lt;/span&gt;&lt;/div&gt;" style="text;html=1;align=center;verticalAlign=middle;resizable=0;points=[];autosize=1;strokeColor=none;fillColor=none;" parent="1" vertex="1">
          <mxGeometry x="547" y="410" width="70" height="30" as="geometry" />
        </mxCell>
        <mxCell id="_PmULTiN97F122WishU0-26" value="Buses" style="rounded=1;whiteSpace=wrap;html=1;" parent="1" vertex="1">
          <mxGeometry x="497" y="490" width="80" height="40" as="geometry" />
        </mxCell>
        <mxCell id="_PmULTiN97F122WishU0-27" value="Passengers" style="rounded=1;whiteSpace=wrap;html=1;" parent="1" vertex="1">
          <mxGeometry x="587" y="490" width="80" height="40" as="geometry" />
        </mxCell>
        <mxCell id="_PmULTiN97F122WishU0-48" style="edgeStyle=orthogonalEdgeStyle;rounded=0;orthogonalLoop=1;jettySize=auto;html=1;entryX=0.5;entryY=1;entryDx=0;entryDy=0;entryPerimeter=0;" parent="1" source="_PmULTiN97F122WishU0-41" target="_PmULTiN97F122WishU0-47" edge="1">
          <mxGeometry relative="1" as="geometry" />
        </mxCell>
        <mxCell id="_PmULTiN97F122WishU0-41" value="" style="rounded=1;whiteSpace=wrap;html=1;fillColor=#d5e8d4;strokeColor=#82b366;shadow=1;" parent="1" vertex="1">
          <mxGeometry x="565" y="210" width="240" height="60" as="geometry" />
        </mxCell>
        <mxCell id="_PmULTiN97F122WishU0-42" value="&lt;div style=&quot;text-align: justify;&quot;&gt;&lt;span style=&quot;background-color: initial;&quot;&gt;&lt;font style=&quot;font-size: 13px;&quot;&gt;&lt;b&gt;File Module&lt;/b&gt;&lt;/font&gt;&lt;/span&gt;&lt;/div&gt;" style="text;html=1;align=center;verticalAlign=middle;resizable=0;points=[];autosize=1;strokeColor=none;fillColor=none;" parent="1" vertex="1">
          <mxGeometry x="575" y="210" width="100" height="30" as="geometry" />
        </mxCell>
        <mxCell id="_PmULTiN97F122WishU0-45" style="edgeStyle=orthogonalEdgeStyle;rounded=0;orthogonalLoop=1;jettySize=auto;html=1;entryX=0.5;entryY=1;entryDx=0;entryDy=0;" parent="1" source="_PmULTiN97F122WishU0-43" target="_PmULTiN97F122WishU0-41" edge="1">
          <mxGeometry relative="1" as="geometry" />
        </mxCell>
        <mxCell id="_PmULTiN97F122WishU0-43" value="" style="rounded=1;whiteSpace=wrap;html=1;fillColor=#f8cecc;strokeColor=#b85450;shadow=1;" parent="1" vertex="1">
          <mxGeometry x="575" y="295" width="220" height="60" as="geometry" />
        </mxCell>
        <mxCell id="_PmULTiN97F122WishU0-46" value="&lt;div style=&quot;text-align: justify;&quot;&gt;&lt;span style=&quot;background-color: initial;&quot;&gt;&lt;font style=&quot;font-size: 13px;&quot;&gt;&lt;b&gt;Statistical Module&lt;/b&gt;&lt;/font&gt;&lt;/span&gt;&lt;/div&gt;" style="text;html=1;align=center;verticalAlign=middle;resizable=0;points=[];autosize=1;strokeColor=none;fillColor=none;" parent="1" vertex="1">
          <mxGeometry x="575" y="295" width="130" height="30" as="geometry" />
        </mxCell>
        <mxCell id="_PmULTiN97F122WishU0-50" value="" style="rounded=1;whiteSpace=wrap;html=1;fillColor=none;strokeColor=#d6b656;strokeWidth=3;dashed=1;" parent="1" vertex="1">
          <mxGeometry x="627.5" y="50" width="115" height="130" as="geometry" />
        </mxCell>
        <mxCell id="_PmULTiN97F122WishU0-47" value="" style="whiteSpace=wrap;html=1;shape=mxgraph.basic.document" parent="1" vertex="1">
          <mxGeometry x="650" y="65" width="70" height="100" as="geometry" />
        </mxCell>
        <mxCell id="_PmULTiN97F122WishU0-49" value="&lt;div style=&quot;&quot;&gt;&lt;span style=&quot;background-color: initial;&quot;&gt;&lt;font style=&quot;font-size: 13px;&quot;&gt;&lt;b&gt;PDF&lt;/b&gt;&lt;/font&gt;&lt;/span&gt;&lt;/div&gt;&lt;div style=&quot;&quot;&gt;&lt;span style=&quot;background-color: initial;&quot;&gt;&lt;font style=&quot;font-size: 13px;&quot;&gt;&lt;b&gt;Report&lt;/b&gt;&lt;/font&gt;&lt;/span&gt;&lt;/div&gt;" style="text;html=1;align=center;verticalAlign=middle;resizable=0;points=[];autosize=1;strokeColor=none;fillColor=none;" parent="1" vertex="1">
          <mxGeometry x="650" y="80" width="70" height="40" as="geometry" />
        </mxCell>
        <mxCell id="-Tz7H2pyzVwNq9dB-08h-1" value="" style="whiteSpace=wrap;html=1;shape=mxgraph.basic.document" parent="1" vertex="1">
          <mxGeometry x="194" y="290" width="40" height="50" as="geometry" />
        </mxCell>
        <mxCell id="-Tz7H2pyzVwNq9dB-08h-4" value="" style="whiteSpace=wrap;html=1;shape=mxgraph.basic.document" parent="1" vertex="1">
          <mxGeometry x="207" y="300" width="40" height="50" as="geometry" />
        </mxCell>
        <mxCell id="-Tz7H2pyzVwNq9dB-08h-5" value=".json&lt;br&gt;.csv" style="whiteSpace=wrap;html=1;shape=mxgraph.basic.document" parent="1" vertex="1">
          <mxGeometry x="223" y="310" width="40" height="50" as="geometry" />
        </mxCell>
      </root>
    </mxGraphModel>
  </diagram>
  <diagram id="IriZAp2YAet9R_Uq9BO5" name="Simulation FlowChart">
    <mxGraphModel dx="1393" dy="766" grid="1" gridSize="10" guides="1" tooltips="1" connect="1" arrows="1" fold="1" page="1" pageScale="1" pageWidth="850" pageHeight="1100" math="0" shadow="0">
      <root>
        <mxCell id="0" />
        <mxCell id="1" parent="0" />
        <mxCell id="cUMTwJvJfPgP-f9OzLjc-8" style="edgeStyle=orthogonalEdgeStyle;rounded=0;orthogonalLoop=1;jettySize=auto;html=1;strokeWidth=2;" parent="1" source="cUMTwJvJfPgP-f9OzLjc-1" target="cUMTwJvJfPgP-f9OzLjc-2" edge="1">
          <mxGeometry relative="1" as="geometry" />
        </mxCell>
        <mxCell id="cUMTwJvJfPgP-f9OzLjc-1" value="&lt;b&gt;Start Simulation&lt;/b&gt;" style="rounded=1;whiteSpace=wrap;html=1;strokeWidth=2;fillColor=#d5e8d4;strokeColor=#82b366;" parent="1" vertex="1">
          <mxGeometry x="40" y="30" width="120" height="60" as="geometry" />
        </mxCell>
        <mxCell id="cUMTwJvJfPgP-f9OzLjc-2" value="Update Intersections" style="rounded=1;whiteSpace=wrap;html=1;strokeWidth=2;" parent="1" vertex="1">
          <mxGeometry x="40" y="124" width="120" height="60" as="geometry" />
        </mxCell>
        <mxCell id="cUMTwJvJfPgP-f9OzLjc-3" value="" style="rounded=1;whiteSpace=wrap;html=1;strokeWidth=2;" parent="1" vertex="1">
          <mxGeometry x="40" y="204" width="570" height="140" as="geometry" />
        </mxCell>
        <mxCell id="cUMTwJvJfPgP-f9OzLjc-28" value="Bus Dispatcher" style="text;html=1;strokeColor=none;fillColor=none;align=center;verticalAlign=middle;whiteSpace=wrap;rounded=0;fontStyle=1" parent="1" vertex="1">
          <mxGeometry x="510" y="324" width="100" height="20" as="geometry" />
        </mxCell>
        <mxCell id="cUMTwJvJfPgP-f9OzLjc-27" style="edgeStyle=orthogonalEdgeStyle;rounded=0;orthogonalLoop=1;jettySize=auto;html=1;entryX=0.25;entryY=0;entryDx=0;entryDy=0;" parent="1" target="cUMTwJvJfPgP-f9OzLjc-25" edge="1">
          <mxGeometry relative="1" as="geometry">
            <mxPoint x="100" y="185" as="sourcePoint" />
            <mxPoint x="100.13999999999999" y="223.88" as="targetPoint" />
          </mxGeometry>
        </mxCell>
        <mxCell id="cUMTwJvJfPgP-f9OzLjc-30" value="" style="rounded=1;whiteSpace=wrap;html=1;strokeWidth=2;" parent="1" vertex="1">
          <mxGeometry x="40" y="364" width="430" height="140" as="geometry" />
        </mxCell>
        <mxCell id="cUMTwJvJfPgP-f9OzLjc-31" value="Passenger Dispatcher" style="text;html=1;strokeColor=none;fillColor=none;align=center;verticalAlign=middle;whiteSpace=wrap;rounded=0;fontStyle=1" parent="1" vertex="1">
          <mxGeometry x="330" y="484" width="140" height="20" as="geometry" />
        </mxCell>
        <mxCell id="cUMTwJvJfPgP-f9OzLjc-35" style="edgeStyle=orthogonalEdgeStyle;rounded=0;orthogonalLoop=1;jettySize=auto;html=1;" parent="1" source="cUMTwJvJfPgP-f9OzLjc-13" edge="1">
          <mxGeometry relative="1" as="geometry">
            <mxPoint x="200" y="274" as="targetPoint" />
            <Array as="points">
              <mxPoint x="540" y="224" />
              <mxPoint x="200" y="224" />
            </Array>
          </mxGeometry>
        </mxCell>
        <mxCell id="cUMTwJvJfPgP-f9OzLjc-13" value="Place Bus At First Node" style="rounded=1;whiteSpace=wrap;html=1;" parent="1" vertex="1">
          <mxGeometry x="480" y="244" width="120" height="60" as="geometry" />
        </mxCell>
        <mxCell id="cUMTwJvJfPgP-f9OzLjc-34" style="edgeStyle=orthogonalEdgeStyle;rounded=0;orthogonalLoop=1;jettySize=auto;html=1;exitX=1;exitY=0.5;exitDx=0;exitDy=0;entryX=0;entryY=0.5;entryDx=0;entryDy=0;" parent="1" source="cUMTwJvJfPgP-f9OzLjc-32" target="cUMTwJvJfPgP-f9OzLjc-13" edge="1">
          <mxGeometry relative="1" as="geometry" />
        </mxCell>
        <mxCell id="cUMTwJvJfPgP-f9OzLjc-32" value="Load Boarded Passengers to Bus" style="rounded=1;whiteSpace=wrap;html=1;" parent="1" vertex="1">
          <mxGeometry x="341" y="244" width="120" height="60" as="geometry" />
        </mxCell>
        <mxCell id="cUMTwJvJfPgP-f9OzLjc-33" value="&lt;b&gt;Yes&lt;/b&gt;" style="edgeStyle=orthogonalEdgeStyle;rounded=0;orthogonalLoop=1;jettySize=auto;html=1;exitX=1;exitY=0.5;exitDx=0;exitDy=0;entryX=0;entryY=0.5;entryDx=0;entryDy=0;strokeWidth=2;fillColor=#d5e8d4;strokeColor=#82b366;" parent="1" source="cUMTwJvJfPgP-f9OzLjc-7" target="cUMTwJvJfPgP-f9OzLjc-32" edge="1">
          <mxGeometry relative="1" as="geometry" />
        </mxCell>
        <mxCell id="cUMTwJvJfPgP-f9OzLjc-36" value="" style="group" parent="1" vertex="1" connectable="0">
          <mxGeometry x="70" y="384" width="400" height="100" as="geometry" />
        </mxCell>
        <mxCell id="cUMTwJvJfPgP-f9OzLjc-37" style="edgeStyle=orthogonalEdgeStyle;rounded=0;orthogonalLoop=1;jettySize=auto;html=1;" parent="cUMTwJvJfPgP-f9OzLjc-36" target="cUMTwJvJfPgP-f9OzLjc-39" edge="1">
          <mxGeometry relative="1" as="geometry">
            <mxPoint x="120" y="50" as="sourcePoint" />
          </mxGeometry>
        </mxCell>
        <mxCell id="cUMTwJvJfPgP-f9OzLjc-38" value="&lt;b&gt;No&lt;/b&gt;" style="edgeStyle=orthogonalEdgeStyle;rounded=0;orthogonalLoop=1;jettySize=auto;html=1;exitX=0.5;exitY=1;exitDx=0;exitDy=0;fillColor=#f8cecc;strokeColor=#b85450;strokeWidth=2;" parent="cUMTwJvJfPgP-f9OzLjc-36" source="cUMTwJvJfPgP-f9OzLjc-39" edge="1">
          <mxGeometry x="0.0018" relative="1" as="geometry">
            <mxPoint x="130" y="50" as="targetPoint" />
            <Array as="points">
              <mxPoint x="192" y="100" />
              <mxPoint x="130" y="100" />
            </Array>
            <mxPoint as="offset" />
          </mxGeometry>
        </mxCell>
        <mxCell id="cUMTwJvJfPgP-f9OzLjc-39" value="Passenger Arrives" style="rhombus;whiteSpace=wrap;html=1;" parent="cUMTwJvJfPgP-f9OzLjc-36" vertex="1">
          <mxGeometry x="152" y="10" width="80" height="80" as="geometry" />
        </mxCell>
        <mxCell id="cUMTwJvJfPgP-f9OzLjc-40" value="&lt;font style=&quot;font-size: 11px;&quot;&gt;For Passenger in Passenger Dispatcher&lt;/font&gt;" style="rounded=1;whiteSpace=wrap;html=1;" parent="cUMTwJvJfPgP-f9OzLjc-36" vertex="1">
          <mxGeometry y="20" width="120" height="60" as="geometry" />
        </mxCell>
        <mxCell id="cUMTwJvJfPgP-f9OzLjc-44" style="edgeStyle=orthogonalEdgeStyle;rounded=0;orthogonalLoop=1;jettySize=auto;html=1;" parent="1" source="cUMTwJvJfPgP-f9OzLjc-41" edge="1">
          <mxGeometry relative="1" as="geometry">
            <mxPoint x="200" y="434" as="targetPoint" />
            <Array as="points">
              <mxPoint x="401" y="384" />
            </Array>
          </mxGeometry>
        </mxCell>
        <mxCell id="cUMTwJvJfPgP-f9OzLjc-41" value="Place Passenger at Origin Stop" style="rounded=1;whiteSpace=wrap;html=1;" parent="1" vertex="1">
          <mxGeometry x="341" y="404" width="120" height="60" as="geometry" />
        </mxCell>
        <mxCell id="cUMTwJvJfPgP-f9OzLjc-42" value="&lt;b&gt;Yes&lt;/b&gt;" style="edgeStyle=orthogonalEdgeStyle;rounded=0;orthogonalLoop=1;jettySize=auto;html=1;exitX=1;exitY=0.5;exitDx=0;exitDy=0;entryX=0;entryY=0.5;entryDx=0;entryDy=0;fillColor=#d5e8d4;strokeColor=#82b366;strokeWidth=2;" parent="1" source="cUMTwJvJfPgP-f9OzLjc-39" target="cUMTwJvJfPgP-f9OzLjc-41" edge="1">
          <mxGeometry relative="1" as="geometry" />
        </mxCell>
        <mxCell id="cUMTwJvJfPgP-f9OzLjc-45" style="edgeStyle=orthogonalEdgeStyle;rounded=0;orthogonalLoop=1;jettySize=auto;html=1;exitX=0.25;exitY=1;exitDx=0;exitDy=0;entryX=0.25;entryY=0;entryDx=0;entryDy=0;" parent="1" source="cUMTwJvJfPgP-f9OzLjc-25" target="cUMTwJvJfPgP-f9OzLjc-40" edge="1">
          <mxGeometry relative="1" as="geometry" />
        </mxCell>
        <mxCell id="cUMTwJvJfPgP-f9OzLjc-47" value="" style="rounded=1;whiteSpace=wrap;html=1;strokeWidth=2;" parent="1" vertex="1">
          <mxGeometry x="40" y="524" width="750" height="140" as="geometry" />
        </mxCell>
        <mxCell id="cUMTwJvJfPgP-f9OzLjc-48" value="Update Bus At Transit" style="text;html=1;strokeColor=none;fillColor=none;align=center;verticalAlign=middle;whiteSpace=wrap;rounded=0;fontStyle=1" parent="1" vertex="1">
          <mxGeometry x="650" y="644" width="140" height="20" as="geometry" />
        </mxCell>
        <mxCell id="cUMTwJvJfPgP-f9OzLjc-63" style="edgeStyle=orthogonalEdgeStyle;rounded=0;orthogonalLoop=1;jettySize=auto;html=1;entryX=0;entryY=0.5;entryDx=0;entryDy=0;" parent="1" source="cUMTwJvJfPgP-f9OzLjc-54" target="cUMTwJvJfPgP-f9OzLjc-55" edge="1">
          <mxGeometry relative="1" as="geometry" />
        </mxCell>
        <mxCell id="cUMTwJvJfPgP-f9OzLjc-54" value="&lt;font style=&quot;font-size: 11px;&quot;&gt;Update Bus Braking Point&lt;/font&gt;" style="rounded=1;whiteSpace=wrap;html=1;" parent="1" vertex="1">
          <mxGeometry x="333" y="569" width="75" height="50" as="geometry" />
        </mxCell>
        <mxCell id="cUMTwJvJfPgP-f9OzLjc-59" style="edgeStyle=orthogonalEdgeStyle;rounded=0;orthogonalLoop=1;jettySize=auto;html=1;exitX=1;exitY=0.5;exitDx=0;exitDy=0;entryX=0;entryY=0.5;entryDx=0;entryDy=0;" parent="1" source="cUMTwJvJfPgP-f9OzLjc-55" target="cUMTwJvJfPgP-f9OzLjc-56" edge="1">
          <mxGeometry relative="1" as="geometry" />
        </mxCell>
        <mxCell id="cUMTwJvJfPgP-f9OzLjc-55" value="&lt;font style=&quot;font-size: 11px;&quot;&gt;Update Bus Position&lt;/font&gt;" style="rounded=1;whiteSpace=wrap;html=1;" parent="1" vertex="1">
          <mxGeometry x="420" y="569" width="80" height="50" as="geometry" />
        </mxCell>
        <mxCell id="cUMTwJvJfPgP-f9OzLjc-60" style="edgeStyle=orthogonalEdgeStyle;rounded=0;orthogonalLoop=1;jettySize=auto;html=1;exitX=1;exitY=0.5;exitDx=0;exitDy=0;entryX=0;entryY=0.5;entryDx=0;entryDy=0;" parent="1" source="cUMTwJvJfPgP-f9OzLjc-56" target="cUMTwJvJfPgP-f9OzLjc-57" edge="1">
          <mxGeometry relative="1" as="geometry" />
        </mxCell>
        <mxCell id="cUMTwJvJfPgP-f9OzLjc-56" value="&lt;font style=&quot;font-size: 11px;&quot;&gt;Update Bus Speed&lt;/font&gt;" style="rounded=1;whiteSpace=wrap;html=1;" parent="1" vertex="1">
          <mxGeometry x="512" y="569" width="80" height="50" as="geometry" />
        </mxCell>
        <mxCell id="cUMTwJvJfPgP-f9OzLjc-65" style="edgeStyle=orthogonalEdgeStyle;rounded=0;orthogonalLoop=1;jettySize=auto;html=1;entryX=0;entryY=0.5;entryDx=0;entryDy=0;" parent="1" source="cUMTwJvJfPgP-f9OzLjc-57" target="cUMTwJvJfPgP-f9OzLjc-58" edge="1">
          <mxGeometry relative="1" as="geometry" />
        </mxCell>
        <mxCell id="cUMTwJvJfPgP-f9OzLjc-57" value="&lt;font style=&quot;font-size: 11px;&quot;&gt;Update Bus Stop Flag&lt;/font&gt;" style="rounded=1;whiteSpace=wrap;html=1;" parent="1" vertex="1">
          <mxGeometry x="604" y="569" width="80" height="50" as="geometry" />
        </mxCell>
        <mxCell id="cUMTwJvJfPgP-f9OzLjc-68" style="edgeStyle=orthogonalEdgeStyle;rounded=0;orthogonalLoop=1;jettySize=auto;html=1;exitX=0.5;exitY=0;exitDx=0;exitDy=0;" parent="1" source="cUMTwJvJfPgP-f9OzLjc-58" edge="1">
          <mxGeometry relative="1" as="geometry">
            <mxPoint x="200" y="594" as="targetPoint" />
            <Array as="points">
              <mxPoint x="737" y="534" />
              <mxPoint x="200" y="534" />
            </Array>
          </mxGeometry>
        </mxCell>
        <mxCell id="cUMTwJvJfPgP-f9OzLjc-58" value="&lt;font style=&quot;font-size: 11px;&quot;&gt;Update Bus Brake Flag&lt;/font&gt;" style="rounded=1;whiteSpace=wrap;html=1;" parent="1" vertex="1">
          <mxGeometry x="697" y="569" width="80" height="50" as="geometry" />
        </mxCell>
        <mxCell id="cUMTwJvJfPgP-f9OzLjc-62" value="Yes" style="edgeStyle=orthogonalEdgeStyle;rounded=0;orthogonalLoop=1;jettySize=auto;html=1;entryX=0;entryY=0.5;entryDx=0;entryDy=0;fillColor=#d5e8d4;strokeColor=#82b366;fontStyle=1;labelBackgroundColor=none;strokeWidth=2;" parent="1" source="cUMTwJvJfPgP-f9OzLjc-52" target="cUMTwJvJfPgP-f9OzLjc-54" edge="1">
          <mxGeometry relative="1" as="geometry" />
        </mxCell>
        <mxCell id="cUMTwJvJfPgP-f9OzLjc-69" value="" style="rounded=1;whiteSpace=wrap;html=1;arcSize=8;strokeWidth=2;" parent="1" vertex="1">
          <mxGeometry x="40" y="684" width="710" height="290" as="geometry" />
        </mxCell>
        <mxCell id="cUMTwJvJfPgP-f9OzLjc-70" value="Update Bus At Stop" style="text;html=1;strokeColor=none;fillColor=none;align=center;verticalAlign=middle;whiteSpace=wrap;rounded=0;fontStyle=1" parent="1" vertex="1">
          <mxGeometry x="620" y="954" width="130" height="20" as="geometry" />
        </mxCell>
        <mxCell id="cUMTwJvJfPgP-f9OzLjc-87" style="edgeStyle=orthogonalEdgeStyle;rounded=0;orthogonalLoop=1;jettySize=auto;html=1;exitX=0.25;exitY=1;exitDx=0;exitDy=0;entryX=0.25;entryY=0;entryDx=0;entryDy=0;" parent="1" source="cUMTwJvJfPgP-f9OzLjc-40" target="cUMTwJvJfPgP-f9OzLjc-53" edge="1">
          <mxGeometry relative="1" as="geometry" />
        </mxCell>
        <mxCell id="cUMTwJvJfPgP-f9OzLjc-88" style="edgeStyle=orthogonalEdgeStyle;rounded=0;orthogonalLoop=1;jettySize=auto;html=1;exitX=0.25;exitY=1;exitDx=0;exitDy=0;entryX=0.25;entryY=0;entryDx=0;entryDy=0;" parent="1" source="cUMTwJvJfPgP-f9OzLjc-53" target="cUMTwJvJfPgP-f9OzLjc-75" edge="1">
          <mxGeometry relative="1" as="geometry" />
        </mxCell>
        <mxCell id="cUMTwJvJfPgP-f9OzLjc-72" style="edgeStyle=orthogonalEdgeStyle;rounded=0;orthogonalLoop=1;jettySize=auto;html=1;" parent="1" target="cUMTwJvJfPgP-f9OzLjc-74" edge="1">
          <mxGeometry relative="1" as="geometry">
            <mxPoint x="190" y="754" as="sourcePoint" />
          </mxGeometry>
        </mxCell>
        <mxCell id="cUMTwJvJfPgP-f9OzLjc-73" value="No" style="edgeStyle=orthogonalEdgeStyle;rounded=0;orthogonalLoop=1;jettySize=auto;html=1;exitX=0.5;exitY=1;exitDx=0;exitDy=0;fillColor=#f8cecc;strokeColor=#b85450;fontStyle=1;strokeWidth=2;" parent="1" source="cUMTwJvJfPgP-f9OzLjc-74" edge="1">
          <mxGeometry x="-0.3115" y="-1" relative="1" as="geometry">
            <mxPoint x="200" y="754" as="targetPoint" />
            <Array as="points">
              <mxPoint x="262" y="804" />
              <mxPoint x="200" y="804" />
            </Array>
            <mxPoint as="offset" />
          </mxGeometry>
        </mxCell>
        <mxCell id="cUMTwJvJfPgP-f9OzLjc-126" value="Yes" style="edgeStyle=orthogonalEdgeStyle;rounded=0;orthogonalLoop=1;jettySize=auto;html=1;exitX=1;exitY=0.5;exitDx=0;exitDy=0;fillColor=#d5e8d4;strokeColor=#82b366;fontStyle=1;labelBackgroundColor=none;strokeWidth=2;" parent="1" source="cUMTwJvJfPgP-f9OzLjc-74" target="cUMTwJvJfPgP-f9OzLjc-125" edge="1">
          <mxGeometry relative="1" as="geometry" />
        </mxCell>
        <mxCell id="cUMTwJvJfPgP-f9OzLjc-74" value="Bus At Stop" style="rhombus;whiteSpace=wrap;html=1;" parent="1" vertex="1">
          <mxGeometry x="222" y="714" width="80" height="80" as="geometry" />
        </mxCell>
        <mxCell id="cUMTwJvJfPgP-f9OzLjc-143" style="edgeStyle=orthogonalEdgeStyle;rounded=0;orthogonalLoop=1;jettySize=auto;html=1;exitX=0.25;exitY=1;exitDx=0;exitDy=0;entryX=0.25;entryY=0;entryDx=0;entryDy=0;" parent="1" source="cUMTwJvJfPgP-f9OzLjc-75" target="cUMTwJvJfPgP-f9OzLjc-141" edge="1">
          <mxGeometry relative="1" as="geometry" />
        </mxCell>
        <mxCell id="cUMTwJvJfPgP-f9OzLjc-75" value="&lt;font style=&quot;font-size: 11px;&quot;&gt;For Bus in Simulation&lt;/font&gt;" style="rounded=1;whiteSpace=wrap;html=1;" parent="1" vertex="1">
          <mxGeometry x="70" y="724" width="120" height="60" as="geometry" />
        </mxCell>
        <mxCell id="cUMTwJvJfPgP-f9OzLjc-129" style="edgeStyle=orthogonalEdgeStyle;rounded=0;orthogonalLoop=1;jettySize=auto;html=1;entryX=0;entryY=0.5;entryDx=0;entryDy=0;fillColor=#d5e8d4;strokeColor=#82b366;strokeWidth=2;" parent="1" source="cUMTwJvJfPgP-f9OzLjc-125" target="cUMTwJvJfPgP-f9OzLjc-127" edge="1">
          <mxGeometry relative="1" as="geometry" />
        </mxCell>
        <mxCell id="cUMTwJvJfPgP-f9OzLjc-137" style="edgeStyle=orthogonalEdgeStyle;rounded=0;orthogonalLoop=1;jettySize=auto;html=1;endArrow=none;endFill=0;fillColor=#f8cecc;strokeColor=#b85450;strokeWidth=2;" parent="1" source="cUMTwJvJfPgP-f9OzLjc-125" edge="1">
          <mxGeometry relative="1" as="geometry">
            <mxPoint x="373" y="694" as="targetPoint" />
          </mxGeometry>
        </mxCell>
        <mxCell id="cUMTwJvJfPgP-f9OzLjc-125" value="&lt;div style=&quot;&quot;&gt;&lt;span style=&quot;font-size: 10px; background-color: initial;&quot;&gt;Bus At Operational Q&lt;/span&gt;&lt;/div&gt;" style="rhombus;whiteSpace=wrap;html=1;align=center;" parent="1" vertex="1">
          <mxGeometry x="333" y="714" width="80" height="80" as="geometry" />
        </mxCell>
        <mxCell id="cUMTwJvJfPgP-f9OzLjc-131" style="edgeStyle=orthogonalEdgeStyle;rounded=0;orthogonalLoop=1;jettySize=auto;html=1;entryX=0;entryY=0.5;entryDx=0;entryDy=0;fillColor=#d5e8d4;strokeColor=#82b366;strokeWidth=2;" parent="1" source="cUMTwJvJfPgP-f9OzLjc-127" target="cUMTwJvJfPgP-f9OzLjc-128" edge="1">
          <mxGeometry relative="1" as="geometry" />
        </mxCell>
        <mxCell id="cUMTwJvJfPgP-f9OzLjc-133" value="No" style="edgeStyle=orthogonalEdgeStyle;rounded=0;orthogonalLoop=1;jettySize=auto;html=1;exitX=0.5;exitY=1;exitDx=0;exitDy=0;entryX=0.5;entryY=0;entryDx=0;entryDy=0;fillColor=#f8cecc;strokeColor=#b85450;labelBackgroundColor=none;fontStyle=1;strokeWidth=2;" parent="1" source="cUMTwJvJfPgP-f9OzLjc-127" target="cUMTwJvJfPgP-f9OzLjc-132" edge="1">
          <mxGeometry x="-0.4" relative="1" as="geometry">
            <mxPoint as="offset" />
          </mxGeometry>
        </mxCell>
        <mxCell id="cUMTwJvJfPgP-f9OzLjc-139" style="edgeStyle=orthogonalEdgeStyle;rounded=0;orthogonalLoop=1;jettySize=auto;html=1;exitX=0.5;exitY=0;exitDx=0;exitDy=0;endArrow=none;endFill=0;fillColor=#f8cecc;strokeColor=#b85450;strokeWidth=2;" parent="1" source="cUMTwJvJfPgP-f9OzLjc-127" edge="1">
          <mxGeometry relative="1" as="geometry">
            <mxPoint x="472.2380952380952" y="694" as="targetPoint" />
          </mxGeometry>
        </mxCell>
        <mxCell id="cUMTwJvJfPgP-f9OzLjc-127" value="&lt;div style=&quot;&quot;&gt;&lt;span style=&quot;font-size: 10px; background-color: initial;&quot;&gt;Bus Completed Psx Transfer&lt;/span&gt;&lt;/div&gt;" style="rhombus;whiteSpace=wrap;html=1;align=center;" parent="1" vertex="1">
          <mxGeometry x="432" y="714" width="80" height="80" as="geometry" />
        </mxCell>
        <mxCell id="cUMTwJvJfPgP-f9OzLjc-135" style="edgeStyle=orthogonalEdgeStyle;rounded=0;orthogonalLoop=1;jettySize=auto;html=1;exitX=1;exitY=0.5;exitDx=0;exitDy=0;entryX=0;entryY=0.5;entryDx=0;entryDy=0;fillColor=#d5e8d4;strokeColor=#82b366;strokeWidth=2;" parent="1" source="cUMTwJvJfPgP-f9OzLjc-128" target="cUMTwJvJfPgP-f9OzLjc-134" edge="1">
          <mxGeometry relative="1" as="geometry" />
        </mxCell>
        <mxCell id="cUMTwJvJfPgP-f9OzLjc-140" style="edgeStyle=orthogonalEdgeStyle;rounded=0;orthogonalLoop=1;jettySize=auto;html=1;exitX=0.5;exitY=0;exitDx=0;exitDy=0;endArrow=none;endFill=0;fillColor=#f8cecc;strokeColor=#b85450;strokeWidth=2;" parent="1" source="cUMTwJvJfPgP-f9OzLjc-128" edge="1">
          <mxGeometry relative="1" as="geometry">
            <mxPoint x="569.8571428571429" y="694" as="targetPoint" />
          </mxGeometry>
        </mxCell>
        <mxCell id="cUMTwJvJfPgP-f9OzLjc-128" value="Can Bus Depart" style="rhombus;whiteSpace=wrap;html=1;" parent="1" vertex="1">
          <mxGeometry x="530" y="714" width="80" height="80" as="geometry" />
        </mxCell>
        <mxCell id="cUMTwJvJfPgP-f9OzLjc-142" style="edgeStyle=orthogonalEdgeStyle;rounded=0;orthogonalLoop=1;jettySize=auto;html=1;endArrow=none;endFill=0;" parent="1" source="cUMTwJvJfPgP-f9OzLjc-132" edge="1">
          <mxGeometry relative="1" as="geometry">
            <mxPoint x="200" y="804" as="targetPoint" />
          </mxGeometry>
        </mxCell>
        <mxCell id="cUMTwJvJfPgP-f9OzLjc-132" value="&lt;font style=&quot;font-size: 11px;&quot;&gt;Transfer Passengers&lt;/font&gt;" style="rounded=1;whiteSpace=wrap;html=1;" parent="1" vertex="1">
          <mxGeometry x="418" y="824" width="108" height="30" as="geometry" />
        </mxCell>
        <mxCell id="cUMTwJvJfPgP-f9OzLjc-50" style="edgeStyle=orthogonalEdgeStyle;rounded=0;orthogonalLoop=1;jettySize=auto;html=1;" parent="1" target="cUMTwJvJfPgP-f9OzLjc-52" edge="1">
          <mxGeometry relative="1" as="geometry">
            <mxPoint x="190" y="594" as="sourcePoint" />
          </mxGeometry>
        </mxCell>
        <mxCell id="cUMTwJvJfPgP-f9OzLjc-51" value="No" style="edgeStyle=orthogonalEdgeStyle;rounded=0;orthogonalLoop=1;jettySize=auto;html=1;exitX=0.5;exitY=1;exitDx=0;exitDy=0;fillColor=#f8cecc;strokeColor=#b85450;fontStyle=1;strokeWidth=2;" parent="1" source="cUMTwJvJfPgP-f9OzLjc-52" edge="1">
          <mxGeometry x="0.0018" relative="1" as="geometry">
            <mxPoint x="200" y="594" as="targetPoint" />
            <Array as="points">
              <mxPoint x="262" y="644" />
              <mxPoint x="200" y="644" />
            </Array>
            <mxPoint as="offset" />
          </mxGeometry>
        </mxCell>
        <mxCell id="cUMTwJvJfPgP-f9OzLjc-52" value="Bus At Street" style="rhombus;whiteSpace=wrap;html=1;" parent="1" vertex="1">
          <mxGeometry x="222" y="554" width="80" height="80" as="geometry" />
        </mxCell>
        <mxCell id="cUMTwJvJfPgP-f9OzLjc-53" value="&lt;font style=&quot;font-size: 11px;&quot;&gt;For Bus in Simulation&lt;/font&gt;" style="rounded=1;whiteSpace=wrap;html=1;" parent="1" vertex="1">
          <mxGeometry x="70" y="564" width="120" height="60" as="geometry" />
        </mxCell>
        <mxCell id="cUMTwJvJfPgP-f9OzLjc-136" style="edgeStyle=orthogonalEdgeStyle;rounded=0;orthogonalLoop=1;jettySize=auto;html=1;" parent="1" source="cUMTwJvJfPgP-f9OzLjc-134" edge="1">
          <mxGeometry relative="1" as="geometry">
            <mxPoint x="200" y="754" as="targetPoint" />
            <Array as="points">
              <mxPoint x="684" y="694" />
              <mxPoint x="200" y="694" />
            </Array>
          </mxGeometry>
        </mxCell>
        <mxCell id="cUMTwJvJfPgP-f9OzLjc-134" value="&lt;font style=&quot;font-size: 11px;&quot;&gt;Bus Departs Stop&lt;/font&gt;" style="rounded=1;whiteSpace=wrap;html=1;" parent="1" vertex="1">
          <mxGeometry x="630" y="739" width="108" height="30" as="geometry" />
        </mxCell>
        <mxCell id="cUMTwJvJfPgP-f9OzLjc-148" style="edgeStyle=orthogonalEdgeStyle;rounded=0;orthogonalLoop=1;jettySize=auto;html=1;entryX=0;entryY=0.5;entryDx=0;entryDy=0;" parent="1" source="cUMTwJvJfPgP-f9OzLjc-141" target="cUMTwJvJfPgP-f9OzLjc-146" edge="1">
          <mxGeometry relative="1" as="geometry" />
        </mxCell>
        <mxCell id="cUMTwJvJfPgP-f9OzLjc-141" value="&lt;span style=&quot;font-size: 11px;&quot;&gt;For Stop in Simulation&lt;/span&gt;" style="rounded=1;whiteSpace=wrap;html=1;" parent="1" vertex="1">
          <mxGeometry x="70" y="874" width="120" height="60" as="geometry" />
        </mxCell>
        <mxCell id="cUMTwJvJfPgP-f9OzLjc-149" value="&lt;b&gt;Yes&lt;/b&gt;" style="edgeStyle=orthogonalEdgeStyle;rounded=0;orthogonalLoop=1;jettySize=auto;html=1;exitX=1;exitY=0.5;exitDx=0;exitDy=0;entryX=0;entryY=0.5;entryDx=0;entryDy=0;fillColor=#d5e8d4;strokeColor=#82b366;strokeWidth=2;" parent="1" source="cUMTwJvJfPgP-f9OzLjc-146" target="cUMTwJvJfPgP-f9OzLjc-147" edge="1">
          <mxGeometry x="-0.0769" relative="1" as="geometry">
            <mxPoint as="offset" />
          </mxGeometry>
        </mxCell>
        <mxCell id="cUMTwJvJfPgP-f9OzLjc-151" value="No" style="edgeStyle=orthogonalEdgeStyle;rounded=0;orthogonalLoop=1;jettySize=auto;html=1;exitX=0.5;exitY=1;exitDx=0;exitDy=0;fontStyle=1;fillColor=#f8cecc;strokeColor=#b85450;strokeWidth=2;" parent="1" source="cUMTwJvJfPgP-f9OzLjc-146" edge="1">
          <mxGeometry x="-0.3115" relative="1" as="geometry">
            <mxPoint x="200" y="904" as="targetPoint" />
            <Array as="points">
              <mxPoint x="262" y="954" />
              <mxPoint x="200" y="954" />
            </Array>
            <mxPoint as="offset" />
          </mxGeometry>
        </mxCell>
        <mxCell id="cUMTwJvJfPgP-f9OzLjc-146" value="Empty Operational Spot" style="rhombus;whiteSpace=wrap;html=1;" parent="1" vertex="1">
          <mxGeometry x="222" y="864" width="80" height="80" as="geometry" />
        </mxCell>
        <mxCell id="cUMTwJvJfPgP-f9OzLjc-150" style="edgeStyle=orthogonalEdgeStyle;rounded=0;orthogonalLoop=1;jettySize=auto;html=1;exitX=0.5;exitY=0;exitDx=0;exitDy=0;" parent="1" source="cUMTwJvJfPgP-f9OzLjc-147" edge="1">
          <mxGeometry relative="1" as="geometry">
            <mxPoint x="200" y="904" as="targetPoint" />
            <Array as="points">
              <mxPoint x="391" y="854" />
              <mxPoint x="200" y="854" />
            </Array>
          </mxGeometry>
        </mxCell>
        <mxCell id="cUMTwJvJfPgP-f9OzLjc-147" value="Reorganize Queues" style="rounded=1;whiteSpace=wrap;html=1;" parent="1" vertex="1">
          <mxGeometry x="341" y="884" width="100" height="40" as="geometry" />
        </mxCell>
        <mxCell id="abbv6wRNl13U0s67NspS-1" value="" style="rounded=1;whiteSpace=wrap;html=1;strokeWidth=2;" parent="1" vertex="1">
          <mxGeometry x="40" y="994" width="420" height="140" as="geometry" />
        </mxCell>
        <mxCell id="abbv6wRNl13U0s67NspS-2" value="Update Bus At Transit" style="text;html=1;strokeColor=none;fillColor=none;align=center;verticalAlign=middle;whiteSpace=wrap;rounded=0;fontStyle=1" parent="1" vertex="1">
          <mxGeometry x="320" y="1114" width="140" height="20" as="geometry" />
        </mxCell>
        <mxCell id="abbv6wRNl13U0s67NspS-14" style="edgeStyle=orthogonalEdgeStyle;rounded=0;orthogonalLoop=1;jettySize=auto;html=1;" parent="1" target="abbv6wRNl13U0s67NspS-16" edge="1">
          <mxGeometry relative="1" as="geometry">
            <mxPoint x="190" y="1064" as="sourcePoint" />
          </mxGeometry>
        </mxCell>
        <mxCell id="abbv6wRNl13U0s67NspS-15" value="No" style="edgeStyle=orthogonalEdgeStyle;rounded=0;orthogonalLoop=1;jettySize=auto;html=1;exitX=0.5;exitY=1;exitDx=0;exitDy=0;fillColor=#f8cecc;strokeColor=#b85450;fontStyle=1;strokeWidth=2;" parent="1" source="abbv6wRNl13U0s67NspS-16" edge="1">
          <mxGeometry x="-0.3115" relative="1" as="geometry">
            <mxPoint x="200" y="1064" as="targetPoint" />
            <Array as="points">
              <mxPoint x="262" y="1114" />
              <mxPoint x="200" y="1114" />
            </Array>
            <mxPoint as="offset" />
          </mxGeometry>
        </mxCell>
        <mxCell id="abbv6wRNl13U0s67NspS-19" value="&lt;b&gt;Yes&lt;/b&gt;" style="edgeStyle=orthogonalEdgeStyle;rounded=0;orthogonalLoop=1;jettySize=auto;html=1;exitX=1;exitY=0.5;exitDx=0;exitDy=0;entryX=0;entryY=0.5;entryDx=0;entryDy=0;fillColor=#d5e8d4;strokeColor=#82b366;strokeWidth=2;" parent="1" source="abbv6wRNl13U0s67NspS-16" edge="1">
          <mxGeometry relative="1" as="geometry">
            <mxPoint x="332.9999999999999" y="1064" as="targetPoint" />
          </mxGeometry>
        </mxCell>
        <mxCell id="abbv6wRNl13U0s67NspS-16" value="&lt;font style=&quot;font-size: 11px;&quot;&gt;Intersection Ligth Green&lt;/font&gt;" style="rhombus;whiteSpace=wrap;html=1;" parent="1" vertex="1">
          <mxGeometry x="222" y="1024" width="80" height="80" as="geometry" />
        </mxCell>
        <mxCell id="abbv6wRNl13U0s67NspS-17" value="&lt;font style=&quot;font-size: 11px;&quot;&gt;For Intersection in Simulation&lt;/font&gt;" style="rounded=1;whiteSpace=wrap;html=1;" parent="1" vertex="1">
          <mxGeometry x="70" y="1034" width="120" height="60" as="geometry" />
        </mxCell>
        <mxCell id="abbv6wRNl13U0s67NspS-20" value="Broadcast Green To Buses" style="rounded=1;whiteSpace=wrap;html=1;" parent="1" vertex="1">
          <mxGeometry x="333" y="1039" width="117" height="50" as="geometry" />
        </mxCell>
        <mxCell id="abbv6wRNl13U0s67NspS-21" style="edgeStyle=orthogonalEdgeStyle;rounded=0;orthogonalLoop=1;jettySize=auto;html=1;exitX=0.25;exitY=1;exitDx=0;exitDy=0;entryX=0.25;entryY=0;entryDx=0;entryDy=0;" parent="1" source="cUMTwJvJfPgP-f9OzLjc-141" target="abbv6wRNl13U0s67NspS-17" edge="1">
          <mxGeometry relative="1" as="geometry" />
        </mxCell>
        <mxCell id="abbv6wRNl13U0s67NspS-47" value="" style="rounded=1;whiteSpace=wrap;html=1;strokeWidth=2;" parent="1" vertex="1">
          <mxGeometry x="40" y="1153" width="750" height="140" as="geometry" />
        </mxCell>
        <mxCell id="abbv6wRNl13U0s67NspS-48" value="Check Bus Node Transfer" style="text;html=1;strokeColor=none;fillColor=none;align=center;verticalAlign=middle;whiteSpace=wrap;rounded=0;fontStyle=1" parent="1" vertex="1">
          <mxGeometry x="630" y="1273" width="160" height="20" as="geometry" />
        </mxCell>
        <mxCell id="abbv6wRNl13U0s67NspS-59" value="Yes" style="edgeStyle=orthogonalEdgeStyle;rounded=0;orthogonalLoop=1;jettySize=auto;html=1;entryX=0;entryY=0.5;entryDx=0;entryDy=0;fillColor=#d5e8d4;strokeColor=#82b366;fontStyle=1;labelBackgroundColor=none;strokeWidth=2;" parent="1" source="abbv6wRNl13U0s67NspS-62" edge="1">
          <mxGeometry relative="1" as="geometry">
            <mxPoint x="333" y="1223" as="targetPoint" />
          </mxGeometry>
        </mxCell>
        <mxCell id="abbv6wRNl13U0s67NspS-60" style="edgeStyle=orthogonalEdgeStyle;rounded=0;orthogonalLoop=1;jettySize=auto;html=1;" parent="1" target="abbv6wRNl13U0s67NspS-62" edge="1">
          <mxGeometry relative="1" as="geometry">
            <mxPoint x="190" y="1223" as="sourcePoint" />
          </mxGeometry>
        </mxCell>
        <mxCell id="abbv6wRNl13U0s67NspS-61" value="No" style="edgeStyle=orthogonalEdgeStyle;rounded=0;orthogonalLoop=1;jettySize=auto;html=1;exitX=0.5;exitY=1;exitDx=0;exitDy=0;fillColor=#f8cecc;strokeColor=#b85450;fontStyle=1;strokeWidth=2;" parent="1" source="abbv6wRNl13U0s67NspS-62" edge="1">
          <mxGeometry x="0.0018" relative="1" as="geometry">
            <mxPoint x="200" y="1223" as="targetPoint" />
            <Array as="points">
              <mxPoint x="262" y="1273" />
              <mxPoint x="200" y="1273" />
            </Array>
            <mxPoint as="offset" />
          </mxGeometry>
        </mxCell>
        <mxCell id="abbv6wRNl13U0s67NspS-62" value="Bus At Street" style="rhombus;whiteSpace=wrap;html=1;" parent="1" vertex="1">
          <mxGeometry x="222" y="1183" width="80" height="80" as="geometry" />
        </mxCell>
        <mxCell id="abbv6wRNl13U0s67NspS-63" value="&lt;font style=&quot;font-size: 11px;&quot;&gt;For Bus in Simulation&lt;/font&gt;" style="rounded=1;whiteSpace=wrap;html=1;" parent="1" vertex="1">
          <mxGeometry x="70" y="1193" width="120" height="60" as="geometry" />
        </mxCell>
        <mxCell id="abbv6wRNl13U0s67NspS-68" style="edgeStyle=orthogonalEdgeStyle;rounded=0;orthogonalLoop=1;jettySize=auto;html=1;entryX=0;entryY=0.5;entryDx=0;entryDy=0;" parent="1" source="abbv6wRNl13U0s67NspS-64" target="abbv6wRNl13U0s67NspS-65" edge="1">
          <mxGeometry relative="1" as="geometry" />
        </mxCell>
        <mxCell id="abbv6wRNl13U0s67NspS-70" value="&lt;b&gt;No&lt;/b&gt;" style="edgeStyle=orthogonalEdgeStyle;rounded=0;orthogonalLoop=1;jettySize=auto;html=1;endArrow=none;endFill=0;fillColor=#f8cecc;strokeColor=#b85450;strokeWidth=2;" parent="1" source="abbv6wRNl13U0s67NspS-64" edge="1">
          <mxGeometry relative="1" as="geometry">
            <mxPoint x="260.0000000000001" y="1273" as="targetPoint" />
            <Array as="points">
              <mxPoint x="387" y="1273" />
            </Array>
          </mxGeometry>
        </mxCell>
        <mxCell id="abbv6wRNl13U0s67NspS-64" value="Bus Position &amp;gt; Node Lenght" style="rhombus;whiteSpace=wrap;html=1;" parent="1" vertex="1">
          <mxGeometry x="333" y="1183" width="107" height="80" as="geometry" />
        </mxCell>
        <mxCell id="abbv6wRNl13U0s67NspS-71" style="edgeStyle=orthogonalEdgeStyle;rounded=0;orthogonalLoop=1;jettySize=auto;html=1;entryX=0;entryY=0.5;entryDx=0;entryDy=0;fillColor=#d5e8d4;strokeColor=#82b366;strokeWidth=2;" parent="1" source="abbv6wRNl13U0s67NspS-65" target="abbv6wRNl13U0s67NspS-66" edge="1">
          <mxGeometry relative="1" as="geometry" />
        </mxCell>
        <mxCell id="abbv6wRNl13U0s67NspS-65" value="Should Bus Stop" style="rhombus;whiteSpace=wrap;html=1;" parent="1" vertex="1">
          <mxGeometry x="462" y="1183" width="80" height="80" as="geometry" />
        </mxCell>
        <mxCell id="abbv6wRNl13U0s67NspS-72" style="edgeStyle=orthogonalEdgeStyle;rounded=0;orthogonalLoop=1;jettySize=auto;html=1;entryX=0;entryY=0.5;entryDx=0;entryDy=0;" parent="1" source="abbv6wRNl13U0s67NspS-66" target="abbv6wRNl13U0s67NspS-67" edge="1">
          <mxGeometry relative="1" as="geometry" />
        </mxCell>
        <mxCell id="abbv6wRNl13U0s67NspS-66" value="Go Next Node" style="rounded=1;whiteSpace=wrap;html=1;" parent="1" vertex="1">
          <mxGeometry x="567" y="1208" width="86" height="30" as="geometry" />
        </mxCell>
        <mxCell id="abbv6wRNl13U0s67NspS-75" style="edgeStyle=orthogonalEdgeStyle;rounded=0;orthogonalLoop=1;jettySize=auto;html=1;" parent="1" source="abbv6wRNl13U0s67NspS-67" edge="1">
          <mxGeometry relative="1" as="geometry">
            <mxPoint x="200" y="1223" as="targetPoint" />
            <Array as="points">
              <mxPoint x="723" y="1163" />
              <mxPoint x="200" y="1163" />
            </Array>
          </mxGeometry>
        </mxCell>
        <mxCell id="abbv6wRNl13U0s67NspS-67" value="Go Next Node" style="rounded=1;whiteSpace=wrap;html=1;" parent="1" vertex="1">
          <mxGeometry x="680" y="1208" width="86" height="30" as="geometry" />
        </mxCell>
        <mxCell id="abbv6wRNl13U0s67NspS-74" value="&lt;b&gt;No&lt;/b&gt;" style="edgeStyle=orthogonalEdgeStyle;rounded=0;orthogonalLoop=1;jettySize=auto;html=1;entryX=0.5;entryY=1;entryDx=0;entryDy=0;fillColor=#f8cecc;strokeColor=#b85450;strokeWidth=2;" parent="1" source="abbv6wRNl13U0s67NspS-65" target="abbv6wRNl13U0s67NspS-67" edge="1">
          <mxGeometry relative="1" as="geometry">
            <Array as="points">
              <mxPoint x="502" y="1273" />
              <mxPoint x="723" y="1273" />
            </Array>
          </mxGeometry>
        </mxCell>
        <mxCell id="cUMTwJvJfPgP-f9OzLjc-11" style="edgeStyle=orthogonalEdgeStyle;rounded=0;orthogonalLoop=1;jettySize=auto;html=1;" parent="1" target="cUMTwJvJfPgP-f9OzLjc-7" edge="1">
          <mxGeometry relative="1" as="geometry">
            <mxPoint x="190" y="274" as="sourcePoint" />
          </mxGeometry>
        </mxCell>
        <mxCell id="cUMTwJvJfPgP-f9OzLjc-19" value="&lt;b&gt;No&lt;/b&gt;" style="edgeStyle=orthogonalEdgeStyle;rounded=0;orthogonalLoop=1;jettySize=auto;html=1;exitX=0.5;exitY=1;exitDx=0;exitDy=0;fillColor=#f8cecc;strokeColor=#b85450;strokeWidth=2;" parent="1" source="cUMTwJvJfPgP-f9OzLjc-7" edge="1">
          <mxGeometry x="0.0018" relative="1" as="geometry">
            <mxPoint x="200" y="274" as="targetPoint" />
            <Array as="points">
              <mxPoint x="262" y="324" />
              <mxPoint x="200" y="324" />
            </Array>
            <mxPoint as="offset" />
          </mxGeometry>
        </mxCell>
        <mxCell id="cUMTwJvJfPgP-f9OzLjc-7" value="Bus Arrives" style="rhombus;whiteSpace=wrap;html=1;" parent="1" vertex="1">
          <mxGeometry x="222" y="234" width="80" height="80" as="geometry" />
        </mxCell>
        <mxCell id="cUMTwJvJfPgP-f9OzLjc-25" value="For Bus in Bus Dispatcher" style="rounded=1;whiteSpace=wrap;html=1;" parent="1" vertex="1">
          <mxGeometry x="70" y="244" width="120" height="60" as="geometry" />
        </mxCell>
        <mxCell id="abbv6wRNl13U0s67NspS-78" style="edgeStyle=orthogonalEdgeStyle;rounded=0;orthogonalLoop=1;jettySize=auto;html=1;exitX=0.25;exitY=1;exitDx=0;exitDy=0;entryX=0.25;entryY=0;entryDx=0;entryDy=0;" parent="1" source="abbv6wRNl13U0s67NspS-17" target="abbv6wRNl13U0s67NspS-63" edge="1">
          <mxGeometry relative="1" as="geometry" />
        </mxCell>
        <mxCell id="abbv6wRNl13U0s67NspS-79" value="" style="rounded=1;whiteSpace=wrap;html=1;strokeWidth=2;arcSize=9;" parent="1" vertex="1">
          <mxGeometry x="40" y="1313" width="320" height="270" as="geometry" />
        </mxCell>
        <mxCell id="abbv6wRNl13U0s67NspS-80" value="Update Logs" style="text;html=1;strokeColor=none;fillColor=none;align=center;verticalAlign=middle;whiteSpace=wrap;rounded=0;fontStyle=1" parent="1" vertex="1">
          <mxGeometry x="260" y="1563" width="100" height="20" as="geometry" />
        </mxCell>
        <mxCell id="abbv6wRNl13U0s67NspS-87" style="edgeStyle=orthogonalEdgeStyle;rounded=0;orthogonalLoop=1;jettySize=auto;html=1;entryX=0;entryY=0.5;entryDx=0;entryDy=0;" parent="1" source="abbv6wRNl13U0s67NspS-81" target="abbv6wRNl13U0s67NspS-84" edge="1">
          <mxGeometry relative="1" as="geometry" />
        </mxCell>
        <mxCell id="abbv6wRNl13U0s67NspS-93" style="edgeStyle=orthogonalEdgeStyle;rounded=0;orthogonalLoop=1;jettySize=auto;html=1;exitX=0.25;exitY=1;exitDx=0;exitDy=0;entryX=0.25;entryY=0;entryDx=0;entryDy=0;" parent="1" source="abbv6wRNl13U0s67NspS-81" target="abbv6wRNl13U0s67NspS-82" edge="1">
          <mxGeometry relative="1" as="geometry" />
        </mxCell>
        <mxCell id="abbv6wRNl13U0s67NspS-81" value="&lt;font style=&quot;font-size: 11px;&quot;&gt;For Bus in Simulation&lt;/font&gt;" style="rounded=1;whiteSpace=wrap;html=1;" parent="1" vertex="1">
          <mxGeometry x="70" y="1343" width="120" height="60" as="geometry" />
        </mxCell>
        <mxCell id="abbv6wRNl13U0s67NspS-88" style="edgeStyle=orthogonalEdgeStyle;rounded=0;orthogonalLoop=1;jettySize=auto;html=1;exitX=1;exitY=0.5;exitDx=0;exitDy=0;entryX=0;entryY=0.5;entryDx=0;entryDy=0;" parent="1" source="abbv6wRNl13U0s67NspS-82" target="abbv6wRNl13U0s67NspS-85" edge="1">
          <mxGeometry relative="1" as="geometry" />
        </mxCell>
        <mxCell id="abbv6wRNl13U0s67NspS-94" style="edgeStyle=orthogonalEdgeStyle;rounded=0;orthogonalLoop=1;jettySize=auto;html=1;exitX=0.25;exitY=1;exitDx=0;exitDy=0;entryX=0.25;entryY=0;entryDx=0;entryDy=0;" parent="1" source="abbv6wRNl13U0s67NspS-82" target="abbv6wRNl13U0s67NspS-83" edge="1">
          <mxGeometry relative="1" as="geometry" />
        </mxCell>
        <mxCell id="abbv6wRNl13U0s67NspS-82" value="&lt;font style=&quot;font-size: 11px;&quot;&gt;For Stop In Simulation&lt;/font&gt;" style="rounded=1;whiteSpace=wrap;html=1;" parent="1" vertex="1">
          <mxGeometry x="70" y="1418" width="120" height="60" as="geometry" />
        </mxCell>
        <mxCell id="abbv6wRNl13U0s67NspS-89" style="edgeStyle=orthogonalEdgeStyle;rounded=0;orthogonalLoop=1;jettySize=auto;html=1;exitX=1;exitY=0.5;exitDx=0;exitDy=0;entryX=0;entryY=0.5;entryDx=0;entryDy=0;" parent="1" source="abbv6wRNl13U0s67NspS-83" target="abbv6wRNl13U0s67NspS-86" edge="1">
          <mxGeometry relative="1" as="geometry" />
        </mxCell>
        <mxCell id="abbv6wRNl13U0s67NspS-97" style="edgeStyle=orthogonalEdgeStyle;rounded=0;orthogonalLoop=1;jettySize=auto;html=1;exitX=0.25;exitY=1;exitDx=0;exitDy=0;entryX=0.5;entryY=0;entryDx=0;entryDy=0;strokeWidth=2;" parent="1" source="abbv6wRNl13U0s67NspS-83" target="abbv6wRNl13U0s67NspS-96" edge="1">
          <mxGeometry relative="1" as="geometry" />
        </mxCell>
        <mxCell id="abbv6wRNl13U0s67NspS-83" value="&lt;font style=&quot;font-size: 11px;&quot;&gt;For Passenger In Simulation&lt;/font&gt;" style="rounded=1;whiteSpace=wrap;html=1;" parent="1" vertex="1">
          <mxGeometry x="70" y="1493" width="120" height="60" as="geometry" />
        </mxCell>
        <mxCell id="abbv6wRNl13U0s67NspS-84" value="&lt;font style=&quot;font-size: 11px;&quot;&gt;Update Bus Logs&lt;/font&gt;" style="rounded=1;whiteSpace=wrap;html=1;" parent="1" vertex="1">
          <mxGeometry x="216" y="1353" width="108" height="40" as="geometry" />
        </mxCell>
        <mxCell id="abbv6wRNl13U0s67NspS-85" value="&lt;span style=&quot;font-size: 11px;&quot;&gt;Update Stop Logs&lt;/span&gt;" style="rounded=1;whiteSpace=wrap;html=1;" parent="1" vertex="1">
          <mxGeometry x="219" y="1428" width="108" height="40" as="geometry" />
        </mxCell>
        <mxCell id="abbv6wRNl13U0s67NspS-86" value="&lt;font style=&quot;font-size: 11px;&quot;&gt;Update Passenger Logs&lt;/font&gt;" style="rounded=1;whiteSpace=wrap;html=1;" parent="1" vertex="1">
          <mxGeometry x="219" y="1503" width="108" height="40" as="geometry" />
        </mxCell>
        <mxCell id="abbv6wRNl13U0s67NspS-92" style="edgeStyle=orthogonalEdgeStyle;rounded=0;orthogonalLoop=1;jettySize=auto;html=1;exitX=0.25;exitY=1;exitDx=0;exitDy=0;entryX=0.25;entryY=0;entryDx=0;entryDy=0;strokeWidth=2;" parent="1" source="abbv6wRNl13U0s67NspS-63" target="abbv6wRNl13U0s67NspS-81" edge="1">
          <mxGeometry relative="1" as="geometry" />
        </mxCell>
        <mxCell id="abbv6wRNl13U0s67NspS-100" style="edgeStyle=orthogonalEdgeStyle;rounded=0;orthogonalLoop=1;jettySize=auto;html=1;exitX=0.5;exitY=1;exitDx=0;exitDy=0;entryX=0.5;entryY=0;entryDx=0;entryDy=0;strokeWidth=2;" parent="1" source="abbv6wRNl13U0s67NspS-96" target="abbv6wRNl13U0s67NspS-98" edge="1">
          <mxGeometry relative="1" as="geometry" />
        </mxCell>
        <mxCell id="abbv6wRNl13U0s67NspS-96" value="Increase Simulated Time" style="rounded=1;whiteSpace=wrap;html=1;strokeWidth=2;" parent="1" vertex="1">
          <mxGeometry x="40" y="1603" width="120" height="60" as="geometry" />
        </mxCell>
        <mxCell id="abbv6wRNl13U0s67NspS-101" value="&lt;b&gt;Yes&lt;/b&gt;" style="edgeStyle=orthogonalEdgeStyle;rounded=0;orthogonalLoop=1;jettySize=auto;html=1;exitX=1;exitY=0.5;exitDx=0;exitDy=0;entryX=0;entryY=0.5;entryDx=0;entryDy=0;strokeWidth=2;fillColor=#d5e8d4;strokeColor=#82b366;" parent="1" source="abbv6wRNl13U0s67NspS-98" target="abbv6wRNl13U0s67NspS-99" edge="1">
          <mxGeometry relative="1" as="geometry" />
        </mxCell>
        <mxCell id="abbv6wRNl13U0s67NspS-102" style="edgeStyle=orthogonalEdgeStyle;rounded=0;orthogonalLoop=1;jettySize=auto;html=1;fillColor=#f8cecc;strokeColor=#b85450;strokeWidth=2;" parent="1" source="abbv6wRNl13U0s67NspS-98" edge="1">
          <mxGeometry relative="1" as="geometry">
            <mxPoint x="100" y="100" as="targetPoint" />
            <Array as="points">
              <mxPoint x="10" y="1743" />
              <mxPoint x="10" y="100" />
              <mxPoint x="70" y="100" />
            </Array>
          </mxGeometry>
        </mxCell>
        <mxCell id="abbv6wRNl13U0s67NspS-98" value="Simulated Time &amp;gt;= Simulation Duration" style="rhombus;whiteSpace=wrap;html=1;strokeWidth=2;" parent="1" vertex="1">
          <mxGeometry x="50" y="1683" width="100" height="120" as="geometry" />
        </mxCell>
        <mxCell id="abbv6wRNl13U0s67NspS-99" value="&lt;b&gt;End&lt;/b&gt;" style="rounded=1;whiteSpace=wrap;html=1;strokeWidth=2;fillColor=#f8cecc;strokeColor=#b85450;" parent="1" vertex="1">
          <mxGeometry x="190" y="1713" width="120" height="60" as="geometry" />
        </mxCell>
        <mxCell id="foetBzrGexGOhYT6dFb3-1" style="edgeStyle=orthogonalEdgeStyle;rounded=0;orthogonalLoop=1;jettySize=auto;html=1;entryX=0.25;entryY=0;entryDx=0;entryDy=0;" parent="1" edge="1">
          <mxGeometry relative="1" as="geometry">
            <mxPoint x="99.58" y="185" as="sourcePoint" />
            <mxPoint x="99.58" y="244" as="targetPoint" />
          </mxGeometry>
        </mxCell>
        <mxCell id="foetBzrGexGOhYT6dFb3-2" style="edgeStyle=orthogonalEdgeStyle;rounded=0;orthogonalLoop=1;jettySize=auto;html=1;exitX=0.25;exitY=1;exitDx=0;exitDy=0;entryX=0.25;entryY=0;entryDx=0;entryDy=0;" parent="1" edge="1">
          <mxGeometry relative="1" as="geometry">
            <mxPoint x="99.58" y="304" as="sourcePoint" />
            <mxPoint x="99.58" y="404" as="targetPoint" />
          </mxGeometry>
        </mxCell>
        <mxCell id="foetBzrGexGOhYT6dFb3-3" style="edgeStyle=orthogonalEdgeStyle;rounded=0;orthogonalLoop=1;jettySize=auto;html=1;exitX=0.25;exitY=1;exitDx=0;exitDy=0;entryX=0.25;entryY=0;entryDx=0;entryDy=0;" parent="1" edge="1">
          <mxGeometry relative="1" as="geometry">
            <mxPoint x="99.58" y="464" as="sourcePoint" />
            <mxPoint x="99.58" y="564" as="targetPoint" />
          </mxGeometry>
        </mxCell>
        <mxCell id="foetBzrGexGOhYT6dFb3-4" style="edgeStyle=orthogonalEdgeStyle;rounded=0;orthogonalLoop=1;jettySize=auto;html=1;exitX=0.25;exitY=1;exitDx=0;exitDy=0;entryX=0.25;entryY=0;entryDx=0;entryDy=0;" parent="1" edge="1">
          <mxGeometry relative="1" as="geometry">
            <mxPoint x="99.58" y="624" as="sourcePoint" />
            <mxPoint x="99.58" y="724" as="targetPoint" />
          </mxGeometry>
        </mxCell>
        <mxCell id="foetBzrGexGOhYT6dFb3-5" style="edgeStyle=orthogonalEdgeStyle;rounded=0;orthogonalLoop=1;jettySize=auto;html=1;exitX=0.25;exitY=1;exitDx=0;exitDy=0;entryX=0.25;entryY=0;entryDx=0;entryDy=0;" parent="1" edge="1">
          <mxGeometry relative="1" as="geometry">
            <mxPoint x="99.58" y="784" as="sourcePoint" />
            <mxPoint x="99.58" y="874" as="targetPoint" />
          </mxGeometry>
        </mxCell>
        <mxCell id="foetBzrGexGOhYT6dFb3-6" style="edgeStyle=orthogonalEdgeStyle;rounded=0;orthogonalLoop=1;jettySize=auto;html=1;exitX=0.25;exitY=1;exitDx=0;exitDy=0;entryX=0.25;entryY=0;entryDx=0;entryDy=0;" parent="1" edge="1">
          <mxGeometry relative="1" as="geometry">
            <mxPoint x="99.58" y="934" as="sourcePoint" />
            <mxPoint x="99.58" y="1034" as="targetPoint" />
          </mxGeometry>
        </mxCell>
        <mxCell id="foetBzrGexGOhYT6dFb3-7" style="edgeStyle=orthogonalEdgeStyle;rounded=0;orthogonalLoop=1;jettySize=auto;html=1;exitX=0.25;exitY=1;exitDx=0;exitDy=0;entryX=0.25;entryY=0;entryDx=0;entryDy=0;" parent="1" edge="1">
          <mxGeometry relative="1" as="geometry">
            <mxPoint x="99.58" y="1094" as="sourcePoint" />
            <mxPoint x="99.58" y="1193" as="targetPoint" />
          </mxGeometry>
        </mxCell>
        <mxCell id="foetBzrGexGOhYT6dFb3-8" style="edgeStyle=orthogonalEdgeStyle;rounded=0;orthogonalLoop=1;jettySize=auto;html=1;entryX=0.25;entryY=0;entryDx=0;entryDy=0;" parent="1" edge="1">
          <mxGeometry relative="1" as="geometry">
            <mxPoint x="99.58" y="185" as="sourcePoint" />
            <mxPoint x="99.58" y="244" as="targetPoint" />
          </mxGeometry>
        </mxCell>
        <mxCell id="foetBzrGexGOhYT6dFb3-9" style="edgeStyle=orthogonalEdgeStyle;rounded=0;orthogonalLoop=1;jettySize=auto;html=1;exitX=0.25;exitY=1;exitDx=0;exitDy=0;entryX=0.25;entryY=0;entryDx=0;entryDy=0;" parent="1" edge="1">
          <mxGeometry relative="1" as="geometry">
            <mxPoint x="99.58" y="304" as="sourcePoint" />
            <mxPoint x="99.58" y="404" as="targetPoint" />
          </mxGeometry>
        </mxCell>
        <mxCell id="foetBzrGexGOhYT6dFb3-10" style="edgeStyle=orthogonalEdgeStyle;rounded=0;orthogonalLoop=1;jettySize=auto;html=1;exitX=0.25;exitY=1;exitDx=0;exitDy=0;entryX=0.25;entryY=0;entryDx=0;entryDy=0;" parent="1" edge="1">
          <mxGeometry relative="1" as="geometry">
            <mxPoint x="99.58" y="464" as="sourcePoint" />
            <mxPoint x="99.58" y="564" as="targetPoint" />
          </mxGeometry>
        </mxCell>
        <mxCell id="foetBzrGexGOhYT6dFb3-11" style="edgeStyle=orthogonalEdgeStyle;rounded=0;orthogonalLoop=1;jettySize=auto;html=1;exitX=0.25;exitY=1;exitDx=0;exitDy=0;entryX=0.25;entryY=0;entryDx=0;entryDy=0;" parent="1" edge="1">
          <mxGeometry relative="1" as="geometry">
            <mxPoint x="99.58" y="624" as="sourcePoint" />
            <mxPoint x="99.58" y="724" as="targetPoint" />
          </mxGeometry>
        </mxCell>
        <mxCell id="foetBzrGexGOhYT6dFb3-12" style="edgeStyle=orthogonalEdgeStyle;rounded=0;orthogonalLoop=1;jettySize=auto;html=1;exitX=0.25;exitY=1;exitDx=0;exitDy=0;entryX=0.25;entryY=0;entryDx=0;entryDy=0;" parent="1" edge="1">
          <mxGeometry relative="1" as="geometry">
            <mxPoint x="99.58" y="784" as="sourcePoint" />
            <mxPoint x="99.58" y="874" as="targetPoint" />
          </mxGeometry>
        </mxCell>
        <mxCell id="foetBzrGexGOhYT6dFb3-13" style="edgeStyle=orthogonalEdgeStyle;rounded=0;orthogonalLoop=1;jettySize=auto;html=1;exitX=0.25;exitY=1;exitDx=0;exitDy=0;entryX=0.25;entryY=0;entryDx=0;entryDy=0;" parent="1" edge="1">
          <mxGeometry relative="1" as="geometry">
            <mxPoint x="99.58" y="934" as="sourcePoint" />
            <mxPoint x="99.58" y="1034" as="targetPoint" />
          </mxGeometry>
        </mxCell>
        <mxCell id="foetBzrGexGOhYT6dFb3-14" style="edgeStyle=orthogonalEdgeStyle;rounded=0;orthogonalLoop=1;jettySize=auto;html=1;exitX=0.25;exitY=1;exitDx=0;exitDy=0;entryX=0.25;entryY=0;entryDx=0;entryDy=0;" parent="1" edge="1">
          <mxGeometry relative="1" as="geometry">
            <mxPoint x="99.58" y="1094" as="sourcePoint" />
            <mxPoint x="99.58" y="1193" as="targetPoint" />
          </mxGeometry>
        </mxCell>
        <mxCell id="foetBzrGexGOhYT6dFb3-15" style="edgeStyle=orthogonalEdgeStyle;rounded=0;orthogonalLoop=1;jettySize=auto;html=1;entryX=0.25;entryY=0;entryDx=0;entryDy=0;strokeWidth=2;" parent="1" edge="1">
          <mxGeometry relative="1" as="geometry">
            <mxPoint x="99.58" y="185" as="sourcePoint" />
            <mxPoint x="99.58" y="244" as="targetPoint" />
          </mxGeometry>
        </mxCell>
        <mxCell id="foetBzrGexGOhYT6dFb3-16" style="edgeStyle=orthogonalEdgeStyle;rounded=0;orthogonalLoop=1;jettySize=auto;html=1;exitX=0.25;exitY=1;exitDx=0;exitDy=0;entryX=0.25;entryY=0;entryDx=0;entryDy=0;strokeWidth=2;" parent="1" edge="1">
          <mxGeometry relative="1" as="geometry">
            <mxPoint x="99.58" y="304" as="sourcePoint" />
            <mxPoint x="99.58" y="404" as="targetPoint" />
          </mxGeometry>
        </mxCell>
        <mxCell id="foetBzrGexGOhYT6dFb3-17" style="edgeStyle=orthogonalEdgeStyle;rounded=0;orthogonalLoop=1;jettySize=auto;html=1;exitX=0.25;exitY=1;exitDx=0;exitDy=0;entryX=0.25;entryY=0;entryDx=0;entryDy=0;strokeWidth=2;" parent="1" edge="1">
          <mxGeometry relative="1" as="geometry">
            <mxPoint x="99.58" y="464" as="sourcePoint" />
            <mxPoint x="99.58" y="564" as="targetPoint" />
          </mxGeometry>
        </mxCell>
        <mxCell id="foetBzrGexGOhYT6dFb3-18" style="edgeStyle=orthogonalEdgeStyle;rounded=0;orthogonalLoop=1;jettySize=auto;html=1;exitX=0.25;exitY=1;exitDx=0;exitDy=0;entryX=0.25;entryY=0;entryDx=0;entryDy=0;strokeWidth=2;" parent="1" edge="1">
          <mxGeometry relative="1" as="geometry">
            <mxPoint x="99.58" y="624" as="sourcePoint" />
            <mxPoint x="99.58" y="724" as="targetPoint" />
          </mxGeometry>
        </mxCell>
        <mxCell id="foetBzrGexGOhYT6dFb3-19" style="edgeStyle=orthogonalEdgeStyle;rounded=0;orthogonalLoop=1;jettySize=auto;html=1;exitX=0.25;exitY=1;exitDx=0;exitDy=0;entryX=0.25;entryY=0;entryDx=0;entryDy=0;strokeWidth=2;" parent="1" edge="1">
          <mxGeometry relative="1" as="geometry">
            <mxPoint x="99.58" y="784" as="sourcePoint" />
            <mxPoint x="99.58" y="874" as="targetPoint" />
          </mxGeometry>
        </mxCell>
        <mxCell id="foetBzrGexGOhYT6dFb3-20" style="edgeStyle=orthogonalEdgeStyle;rounded=0;orthogonalLoop=1;jettySize=auto;html=1;exitX=0.25;exitY=1;exitDx=0;exitDy=0;entryX=0.25;entryY=0;entryDx=0;entryDy=0;strokeWidth=2;" parent="1" edge="1">
          <mxGeometry relative="1" as="geometry">
            <mxPoint x="99.58" y="934" as="sourcePoint" />
            <mxPoint x="99.58" y="1034" as="targetPoint" />
          </mxGeometry>
        </mxCell>
        <mxCell id="foetBzrGexGOhYT6dFb3-21" style="edgeStyle=orthogonalEdgeStyle;rounded=0;orthogonalLoop=1;jettySize=auto;html=1;exitX=0.25;exitY=1;exitDx=0;exitDy=0;entryX=0.25;entryY=0;entryDx=0;entryDy=0;strokeWidth=2;" parent="1" edge="1">
          <mxGeometry relative="1" as="geometry">
            <mxPoint x="99.58" y="1094" as="sourcePoint" />
            <mxPoint x="99.58" y="1193" as="targetPoint" />
          </mxGeometry>
        </mxCell>
      </root>
    </mxGraphModel>
  </diagram>
  <diagram id="Dhq7ROsX_Q5CXpIz5vdp" name="Class Diagram">
    <mxGraphModel dx="1548" dy="851" grid="1" gridSize="10" guides="1" tooltips="1" connect="1" arrows="1" fold="1" page="1" pageScale="1" pageWidth="850" pageHeight="1100" math="0" shadow="0">
      <root>
        <mxCell id="0" />
        <mxCell id="1" parent="0" />
        <mxCell id="MYfx41PtJO9IHIUv0DGz-7" value="Node" style="swimlane;fontStyle=0;childLayout=stackLayout;horizontal=1;startSize=30;horizontalStack=0;resizeParent=1;resizeParentMax=0;resizeLast=0;collapsible=1;marginBottom=0;whiteSpace=wrap;html=1;" vertex="1" parent="1">
          <mxGeometry x="1200" y="70" width="140" height="90" as="geometry" />
        </mxCell>
        <mxCell id="MYfx41PtJO9IHIUv0DGz-8" value="- prev_node: Node" style="text;strokeColor=none;fillColor=default;align=left;verticalAlign=middle;spacingLeft=4;spacingRight=4;overflow=hidden;points=[[0,0.5],[1,0.5]];portConstraint=eastwest;rotatable=0;whiteSpace=wrap;html=1;" vertex="1" parent="MYfx41PtJO9IHIUv0DGz-7">
          <mxGeometry y="30" width="140" height="30" as="geometry" />
        </mxCell>
        <mxCell id="MYfx41PtJO9IHIUv0DGz-9" value="- next_node: Node" style="text;strokeColor=none;fillColor=default;align=left;verticalAlign=middle;spacingLeft=4;spacingRight=4;overflow=hidden;points=[[0,0.5],[1,0.5]];portConstraint=eastwest;rotatable=0;whiteSpace=wrap;html=1;" vertex="1" parent="MYfx41PtJO9IHIUv0DGz-7">
          <mxGeometry y="60" width="140" height="30" as="geometry" />
        </mxCell>
        <mxCell id="XD0-1YyBALW8wQHgo1uq-28" style="edgeStyle=orthogonalEdgeStyle;rounded=0;orthogonalLoop=1;jettySize=auto;html=1;endArrow=block;endFill=0;" edge="1" parent="1" source="MYfx41PtJO9IHIUv0DGz-11" target="MYfx41PtJO9IHIUv0DGz-7">
          <mxGeometry relative="1" as="geometry">
            <Array as="points">
              <mxPoint x="1205" y="180" />
              <mxPoint x="1270" y="180" />
            </Array>
          </mxGeometry>
        </mxCell>
        <mxCell id="XD0-1YyBALW8wQHgo1uq-31" style="edgeStyle=orthogonalEdgeStyle;rounded=0;orthogonalLoop=1;jettySize=auto;html=1;entryX=0.5;entryY=0;entryDx=0;entryDy=0;" edge="1" parent="1" source="MYfx41PtJO9IHIUv0DGz-11" target="kKMQgDMmlUpkjQZZtC4L-1">
          <mxGeometry relative="1" as="geometry" />
        </mxCell>
        <mxCell id="MYfx41PtJO9IHIUv0DGz-11" value="Stop (Node)" style="swimlane;fontStyle=0;childLayout=stackLayout;horizontal=1;startSize=30;horizontalStack=0;resizeParent=1;resizeParentMax=0;resizeLast=0;collapsible=1;marginBottom=0;whiteSpace=wrap;html=1;fillColor=default;" vertex="1" parent="1">
          <mxGeometry x="1030" y="220" width="350" height="300" as="geometry" />
        </mxCell>
        <mxCell id="MYfx41PtJO9IHIUv0DGz-12" value="- id: String" style="text;strokeColor=none;fillColor=default;align=left;verticalAlign=middle;spacingLeft=4;spacingRight=4;overflow=hidden;points=[[0,0.5],[1,0.5]];portConstraint=eastwest;rotatable=0;whiteSpace=wrap;html=1;" vertex="1" parent="MYfx41PtJO9IHIUv0DGz-11">
          <mxGeometry y="30" width="350" height="30" as="geometry" />
        </mxCell>
        <mxCell id="MYfx41PtJO9IHIUv0DGz-13" value="- serving_routes: List&amp;lt;Route&amp;gt;" style="text;strokeColor=none;fillColor=default;align=left;verticalAlign=middle;spacingLeft=4;spacingRight=4;overflow=hidden;points=[[0,0.5],[1,0.5]];portConstraint=eastwest;rotatable=0;whiteSpace=wrap;html=1;" vertex="1" parent="MYfx41PtJO9IHIUv0DGz-11">
          <mxGeometry y="60" width="350" height="30" as="geometry" />
        </mxCell>
        <mxCell id="MYfx41PtJO9IHIUv0DGz-14" value="- n_platform: Integer" style="text;strokeColor=none;fillColor=default;align=left;verticalAlign=middle;spacingLeft=4;spacingRight=4;overflow=hidden;points=[[0,0.5],[1,0.5]];portConstraint=eastwest;rotatable=0;whiteSpace=wrap;html=1;" vertex="1" parent="MYfx41PtJO9IHIUv0DGz-11">
          <mxGeometry y="90" width="350" height="30" as="geometry" />
        </mxCell>
        <mxCell id="x-piydwM4OGLtkA_LHWh-1" value="- passenger_boarding_queue: Dict{Route.id: List&amp;lt;Passenger&amp;gt;}" style="text;strokeColor=none;fillColor=default;align=left;verticalAlign=middle;spacingLeft=4;spacingRight=4;overflow=hidden;points=[[0,0.5],[1,0.5]];portConstraint=eastwest;rotatable=0;whiteSpace=wrap;html=1;" vertex="1" parent="MYfx41PtJO9IHIUv0DGz-11">
          <mxGeometry y="120" width="350" height="30" as="geometry" />
        </mxCell>
        <mxCell id="x-piydwM4OGLtkA_LHWh-2" value="- bus_operational_queue: List&amp;lt;Bus&amp;gt;" style="text;strokeColor=none;fillColor=default;align=left;verticalAlign=middle;spacingLeft=4;spacingRight=4;overflow=hidden;points=[[0,0.5],[1,0.5]];portConstraint=eastwest;rotatable=0;whiteSpace=wrap;html=1;" vertex="1" parent="MYfx41PtJO9IHIUv0DGz-11">
          <mxGeometry y="150" width="350" height="30" as="geometry" />
        </mxCell>
        <mxCell id="x-piydwM4OGLtkA_LHWh-3" value="- bus_waiting_queue: List&amp;lt;Bus&amp;gt;" style="text;strokeColor=none;fillColor=default;align=left;verticalAlign=middle;spacingLeft=4;spacingRight=4;overflow=hidden;points=[[0,0.5],[1,0.5]];portConstraint=eastwest;rotatable=0;whiteSpace=wrap;html=1;" vertex="1" parent="MYfx41PtJO9IHIUv0DGz-11">
          <mxGeometry y="180" width="350" height="30" as="geometry" />
        </mxCell>
        <mxCell id="x-piydwM4OGLtkA_LHWh-4" value="- passenger_count_in_platform_log: List&amp;lt;Integer&amp;gt;" style="text;strokeColor=none;fillColor=default;align=left;verticalAlign=middle;spacingLeft=4;spacingRight=4;overflow=hidden;points=[[0,0.5],[1,0.5]];portConstraint=eastwest;rotatable=0;whiteSpace=wrap;html=1;" vertex="1" parent="MYfx41PtJO9IHIUv0DGz-11">
          <mxGeometry y="210" width="350" height="30" as="geometry" />
        </mxCell>
        <mxCell id="x-piydwM4OGLtkA_LHWh-5" value="- bus_count_at_queue_log: List&amp;lt;Integer&amp;gt;" style="text;strokeColor=none;fillColor=default;align=left;verticalAlign=middle;spacingLeft=4;spacingRight=4;overflow=hidden;points=[[0,0.5],[1,0.5]];portConstraint=eastwest;rotatable=0;whiteSpace=wrap;html=1;" vertex="1" parent="MYfx41PtJO9IHIUv0DGz-11">
          <mxGeometry y="240" width="350" height="30" as="geometry" />
        </mxCell>
        <mxCell id="x-piydwM4OGLtkA_LHWh-6" value="- served_buses_count: Integer" style="text;strokeColor=none;fillColor=default;align=left;verticalAlign=middle;spacingLeft=4;spacingRight=4;overflow=hidden;points=[[0,0.5],[1,0.5]];portConstraint=eastwest;rotatable=0;whiteSpace=wrap;html=1;" vertex="1" parent="MYfx41PtJO9IHIUv0DGz-11">
          <mxGeometry y="270" width="350" height="30" as="geometry" />
        </mxCell>
        <mxCell id="XD0-1YyBALW8wQHgo1uq-29" style="edgeStyle=orthogonalEdgeStyle;rounded=0;orthogonalLoop=1;jettySize=auto;html=1;endArrow=block;endFill=0;" edge="1" parent="1" source="MYfx41PtJO9IHIUv0DGz-15" target="MYfx41PtJO9IHIUv0DGz-7">
          <mxGeometry relative="1" as="geometry">
            <Array as="points">
              <mxPoint x="1545" y="180" />
              <mxPoint x="1270" y="180" />
            </Array>
          </mxGeometry>
        </mxCell>
        <mxCell id="MYfx41PtJO9IHIUv0DGz-15" value="Intersection (Node)" style="swimlane;fontStyle=0;childLayout=stackLayout;horizontal=1;startSize=30;horizontalStack=0;resizeParent=1;resizeParentMax=0;resizeLast=0;collapsible=1;marginBottom=0;whiteSpace=wrap;html=1;" vertex="1" parent="1">
          <mxGeometry x="1420" y="220" width="250" height="300" as="geometry" />
        </mxCell>
        <mxCell id="MYfx41PtJO9IHIUv0DGz-16" value="- semaphore: Char" style="text;strokeColor=none;fillColor=default;align=left;verticalAlign=middle;spacingLeft=4;spacingRight=4;overflow=hidden;points=[[0,0.5],[1,0.5]];portConstraint=eastwest;rotatable=0;whiteSpace=wrap;html=1;" vertex="1" parent="MYfx41PtJO9IHIUv0DGz-15">
          <mxGeometry y="30" width="250" height="30" as="geometry" />
        </mxCell>
        <mxCell id="x-piydwM4OGLtkA_LHWh-11" value="- cicle_duration: Integer" style="text;strokeColor=none;fillColor=default;align=left;verticalAlign=middle;spacingLeft=4;spacingRight=4;overflow=hidden;points=[[0,0.5],[1,0.5]];portConstraint=eastwest;rotatable=0;whiteSpace=wrap;html=1;" vertex="1" parent="MYfx41PtJO9IHIUv0DGz-15">
          <mxGeometry y="60" width="250" height="30" as="geometry" />
        </mxCell>
        <mxCell id="x-piydwM4OGLtkA_LHWh-10" value="- effective_green: Float" style="text;strokeColor=none;fillColor=default;align=left;verticalAlign=middle;spacingLeft=4;spacingRight=4;overflow=hidden;points=[[0,0.5],[1,0.5]];portConstraint=eastwest;rotatable=0;whiteSpace=wrap;html=1;" vertex="1" parent="MYfx41PtJO9IHIUv0DGz-15">
          <mxGeometry y="90" width="250" height="30" as="geometry" />
        </mxCell>
        <mxCell id="x-piydwM4OGLtkA_LHWh-9" value="- g_timer: Float" style="text;strokeColor=none;fillColor=default;align=left;verticalAlign=middle;spacingLeft=4;spacingRight=4;overflow=hidden;points=[[0,0.5],[1,0.5]];portConstraint=eastwest;rotatable=0;whiteSpace=wrap;html=1;" vertex="1" parent="MYfx41PtJO9IHIUv0DGz-15">
          <mxGeometry y="120" width="250" height="30" as="geometry" />
        </mxCell>
        <mxCell id="x-piydwM4OGLtkA_LHWh-8" value="- y_timer: Float" style="text;strokeColor=none;fillColor=default;align=left;verticalAlign=middle;spacingLeft=4;spacingRight=4;overflow=hidden;points=[[0,0.5],[1,0.5]];portConstraint=eastwest;rotatable=0;whiteSpace=wrap;html=1;" vertex="1" parent="MYfx41PtJO9IHIUv0DGz-15">
          <mxGeometry y="150" width="250" height="30" as="geometry" />
        </mxCell>
        <mxCell id="x-piydwM4OGLtkA_LHWh-7" value="- r_timer: Float" style="text;strokeColor=none;fillColor=default;align=left;verticalAlign=middle;spacingLeft=4;spacingRight=4;overflow=hidden;points=[[0,0.5],[1,0.5]];portConstraint=eastwest;rotatable=0;whiteSpace=wrap;html=1;" vertex="1" parent="MYfx41PtJO9IHIUv0DGz-15">
          <mxGeometry y="180" width="250" height="30" as="geometry" />
        </mxCell>
        <mxCell id="MYfx41PtJO9IHIUv0DGz-17" value="- current_timer_left: Float" style="text;strokeColor=none;fillColor=default;align=left;verticalAlign=middle;spacingLeft=4;spacingRight=4;overflow=hidden;points=[[0,0.5],[1,0.5]];portConstraint=eastwest;rotatable=0;whiteSpace=wrap;html=1;" vertex="1" parent="MYfx41PtJO9IHIUv0DGz-15">
          <mxGeometry y="210" width="250" height="30" as="geometry" />
        </mxCell>
        <mxCell id="MYfx41PtJO9IHIUv0DGz-18" value="- bus_waiting_queue: List&amp;lt;Bus&amp;gt;" style="text;strokeColor=none;fillColor=default;align=left;verticalAlign=middle;spacingLeft=4;spacingRight=4;overflow=hidden;points=[[0,0.5],[1,0.5]];portConstraint=eastwest;rotatable=0;whiteSpace=wrap;html=1;" vertex="1" parent="MYfx41PtJO9IHIUv0DGz-15">
          <mxGeometry y="240" width="250" height="30" as="geometry" />
        </mxCell>
        <mxCell id="x-piydwM4OGLtkA_LHWh-12" value="- break_signal: Boolean" style="text;strokeColor=none;fillColor=default;align=left;verticalAlign=middle;spacingLeft=4;spacingRight=4;overflow=hidden;points=[[0,0.5],[1,0.5]];portConstraint=eastwest;rotatable=0;whiteSpace=wrap;html=1;" vertex="1" parent="MYfx41PtJO9IHIUv0DGz-15">
          <mxGeometry y="270" width="250" height="30" as="geometry" />
        </mxCell>
        <mxCell id="XD0-1YyBALW8wQHgo1uq-27" style="edgeStyle=orthogonalEdgeStyle;rounded=0;orthogonalLoop=1;jettySize=auto;html=1;endArrow=block;endFill=0;" edge="1" parent="1" source="MYfx41PtJO9IHIUv0DGz-19" target="MYfx41PtJO9IHIUv0DGz-7">
          <mxGeometry relative="1" as="geometry">
            <Array as="points">
              <mxPoint x="930" y="180" />
              <mxPoint x="1270" y="180" />
            </Array>
          </mxGeometry>
        </mxCell>
        <mxCell id="MYfx41PtJO9IHIUv0DGz-19" value="Street (Node)" style="swimlane;fontStyle=0;childLayout=stackLayout;horizontal=1;startSize=30;horizontalStack=0;resizeParent=1;resizeParentMax=0;resizeLast=0;collapsible=1;marginBottom=0;whiteSpace=wrap;html=1;" vertex="1" parent="1">
          <mxGeometry x="860" y="220" width="140" height="90" as="geometry" />
        </mxCell>
        <mxCell id="MYfx41PtJO9IHIUv0DGz-20" value="- tracks: Integer" style="text;strokeColor=none;fillColor=default;align=left;verticalAlign=middle;spacingLeft=4;spacingRight=4;overflow=hidden;points=[[0,0.5],[1,0.5]];portConstraint=eastwest;rotatable=0;whiteSpace=wrap;html=1;" vertex="1" parent="MYfx41PtJO9IHIUv0DGz-19">
          <mxGeometry y="30" width="140" height="30" as="geometry" />
        </mxCell>
        <mxCell id="MYfx41PtJO9IHIUv0DGz-21" value="- length: Integer" style="text;strokeColor=none;fillColor=default;align=left;verticalAlign=middle;spacingLeft=4;spacingRight=4;overflow=hidden;points=[[0,0.5],[1,0.5]];portConstraint=eastwest;rotatable=0;whiteSpace=wrap;html=1;" vertex="1" parent="MYfx41PtJO9IHIUv0DGz-19">
          <mxGeometry y="60" width="140" height="30" as="geometry" />
        </mxCell>
        <mxCell id="XD0-1YyBALW8wQHgo1uq-26" style="edgeStyle=orthogonalEdgeStyle;rounded=0;orthogonalLoop=1;jettySize=auto;html=1;endArrow=block;endFill=0;" edge="1" parent="1" source="MYfx41PtJO9IHIUv0DGz-23" target="MYfx41PtJO9IHIUv0DGz-7">
          <mxGeometry relative="1" as="geometry">
            <Array as="points">
              <mxPoint x="760" y="180" />
              <mxPoint x="1270" y="180" />
            </Array>
          </mxGeometry>
        </mxCell>
        <mxCell id="MYfx41PtJO9IHIUv0DGz-23" value="Start (Node)" style="swimlane;fontStyle=0;childLayout=stackLayout;horizontal=1;startSize=30;horizontalStack=0;resizeParent=1;resizeParentMax=0;resizeLast=0;collapsible=1;marginBottom=0;whiteSpace=wrap;html=1;" vertex="1" parent="1">
          <mxGeometry x="690" y="220" width="140" height="30" as="geometry" />
        </mxCell>
        <mxCell id="XD0-1YyBALW8wQHgo1uq-30" style="edgeStyle=orthogonalEdgeStyle;rounded=0;orthogonalLoop=1;jettySize=auto;html=1;endArrow=block;endFill=0;" edge="1" parent="1" source="MYfx41PtJO9IHIUv0DGz-27" target="MYfx41PtJO9IHIUv0DGz-7">
          <mxGeometry relative="1" as="geometry">
            <Array as="points">
              <mxPoint x="1780" y="180" />
              <mxPoint x="1270" y="180" />
            </Array>
          </mxGeometry>
        </mxCell>
        <mxCell id="MYfx41PtJO9IHIUv0DGz-27" value="End (Node)" style="swimlane;fontStyle=0;childLayout=stackLayout;horizontal=1;startSize=30;horizontalStack=0;resizeParent=1;resizeParentMax=0;resizeLast=0;collapsible=1;marginBottom=0;whiteSpace=wrap;html=1;" vertex="1" parent="1">
          <mxGeometry x="1710" y="220" width="140" height="30" as="geometry" />
        </mxCell>
        <mxCell id="kKMQgDMmlUpkjQZZtC4L-1" value="Route" style="swimlane;fontStyle=0;childLayout=stackLayout;horizontal=1;startSize=30;horizontalStack=0;resizeParent=1;resizeParentMax=0;resizeLast=0;collapsible=1;marginBottom=0;whiteSpace=wrap;html=1;" vertex="1" parent="1">
          <mxGeometry x="1125" y="600" width="160" height="90" as="geometry" />
        </mxCell>
        <mxCell id="kKMQgDMmlUpkjQZZtC4L-2" value="- id: String" style="text;strokeColor=none;fillColor=default;align=left;verticalAlign=middle;spacingLeft=4;spacingRight=4;overflow=hidden;points=[[0,0.5],[1,0.5]];portConstraint=eastwest;rotatable=0;whiteSpace=wrap;html=1;" vertex="1" parent="kKMQgDMmlUpkjQZZtC4L-1">
          <mxGeometry y="30" width="160" height="30" as="geometry" />
        </mxCell>
        <mxCell id="kKMQgDMmlUpkjQZZtC4L-3" value="- serving_stops: List&amp;lt;Stop&amp;gt;" style="text;strokeColor=none;fillColor=default;align=left;verticalAlign=middle;spacingLeft=4;spacingRight=4;overflow=hidden;points=[[0,0.5],[1,0.5]];portConstraint=eastwest;rotatable=0;whiteSpace=wrap;html=1;" vertex="1" parent="kKMQgDMmlUpkjQZZtC4L-1">
          <mxGeometry y="60" width="160" height="30" as="geometry" />
        </mxCell>
        <mxCell id="XD0-1YyBALW8wQHgo1uq-32" style="edgeStyle=orthogonalEdgeStyle;rounded=0;orthogonalLoop=1;jettySize=auto;html=1;" edge="1" parent="1" source="kKMQgDMmlUpkjQZZtC4L-5" target="kKMQgDMmlUpkjQZZtC4L-1">
          <mxGeometry relative="1" as="geometry">
            <Array as="points">
              <mxPoint x="1000" y="730" />
              <mxPoint x="1205" y="730" />
            </Array>
          </mxGeometry>
        </mxCell>
        <mxCell id="kKMQgDMmlUpkjQZZtC4L-5" value="Passenger" style="swimlane;fontStyle=0;childLayout=stackLayout;horizontal=1;startSize=30;horizontalStack=0;resizeParent=1;resizeParentMax=0;resizeLast=0;collapsible=1;marginBottom=0;whiteSpace=wrap;html=1;strokeWidth=1;" vertex="1" parent="1">
          <mxGeometry x="915" y="780" width="170" height="240" as="geometry" />
        </mxCell>
        <mxCell id="kKMQgDMmlUpkjQZZtC4L-6" value="- arrival_time: Integer" style="text;strokeColor=none;fillColor=default;align=left;verticalAlign=middle;spacingLeft=4;spacingRight=4;overflow=hidden;points=[[0,0.5],[1,0.5]];portConstraint=eastwest;rotatable=0;whiteSpace=wrap;html=1;" vertex="1" parent="kKMQgDMmlUpkjQZZtC4L-5">
          <mxGeometry y="30" width="170" height="30" as="geometry" />
        </mxCell>
        <mxCell id="kKMQgDMmlUpkjQZZtC4L-7" value="- origin: String" style="text;strokeColor=none;fillColor=default;align=left;verticalAlign=middle;spacingLeft=4;spacingRight=4;overflow=hidden;points=[[0,0.5],[1,0.5]];portConstraint=eastwest;rotatable=0;whiteSpace=wrap;html=1;" vertex="1" parent="kKMQgDMmlUpkjQZZtC4L-5">
          <mxGeometry y="60" width="170" height="30" as="geometry" />
        </mxCell>
        <mxCell id="kKMQgDMmlUpkjQZZtC4L-13" value="- destiny: String" style="text;strokeColor=none;fillColor=default;align=left;verticalAlign=middle;spacingLeft=4;spacingRight=4;overflow=hidden;points=[[0,0.5],[1,0.5]];portConstraint=eastwest;rotatable=0;whiteSpace=wrap;html=1;" vertex="1" parent="kKMQgDMmlUpkjQZZtC4L-5">
          <mxGeometry y="90" width="170" height="30" as="geometry" />
        </mxCell>
        <mxCell id="kKMQgDMmlUpkjQZZtC4L-12" value="- route: Route" style="text;strokeColor=none;fillColor=default;align=left;verticalAlign=middle;spacingLeft=4;spacingRight=4;overflow=hidden;points=[[0,0.5],[1,0.5]];portConstraint=eastwest;rotatable=0;whiteSpace=wrap;html=1;" vertex="1" parent="kKMQgDMmlUpkjQZZtC4L-5">
          <mxGeometry y="120" width="170" height="30" as="geometry" />
        </mxCell>
        <mxCell id="kKMQgDMmlUpkjQZZtC4L-11" value="- boarding_time: Integer" style="text;strokeColor=none;fillColor=default;align=left;verticalAlign=middle;spacingLeft=4;spacingRight=4;overflow=hidden;points=[[0,0.5],[1,0.5]];portConstraint=eastwest;rotatable=0;whiteSpace=wrap;html=1;" vertex="1" parent="kKMQgDMmlUpkjQZZtC4L-5">
          <mxGeometry y="150" width="170" height="30" as="geometry" />
        </mxCell>
        <mxCell id="kKMQgDMmlUpkjQZZtC4L-10" value="- alighting_time: Integer" style="text;strokeColor=none;fillColor=default;align=left;verticalAlign=middle;spacingLeft=4;spacingRight=4;overflow=hidden;points=[[0,0.5],[1,0.5]];portConstraint=eastwest;rotatable=0;whiteSpace=wrap;html=1;" vertex="1" parent="kKMQgDMmlUpkjQZZtC4L-5">
          <mxGeometry y="180" width="170" height="30" as="geometry" />
        </mxCell>
        <mxCell id="kKMQgDMmlUpkjQZZtC4L-9" value="- waiting_time_log: Float" style="text;strokeColor=none;fillColor=default;align=left;verticalAlign=middle;spacingLeft=4;spacingRight=4;overflow=hidden;points=[[0,0.5],[1,0.5]];portConstraint=eastwest;rotatable=0;whiteSpace=wrap;html=1;" vertex="1" parent="kKMQgDMmlUpkjQZZtC4L-5">
          <mxGeometry y="210" width="170" height="30" as="geometry" />
        </mxCell>
        <mxCell id="XD0-1YyBALW8wQHgo1uq-33" style="edgeStyle=orthogonalEdgeStyle;rounded=0;orthogonalLoop=1;jettySize=auto;html=1;" edge="1" parent="1" source="XD0-1YyBALW8wQHgo1uq-2" target="kKMQgDMmlUpkjQZZtC4L-1">
          <mxGeometry relative="1" as="geometry">
            <Array as="points">
              <mxPoint x="1460" y="730" />
              <mxPoint x="1205" y="730" />
            </Array>
          </mxGeometry>
        </mxCell>
        <mxCell id="XD0-1YyBALW8wQHgo1uq-2" value="Bus" style="swimlane;fontStyle=0;childLayout=stackLayout;horizontal=1;startSize=30;horizontalStack=0;resizeParent=1;resizeParentMax=0;resizeLast=0;collapsible=1;marginBottom=0;whiteSpace=wrap;html=1;" vertex="1" parent="1">
          <mxGeometry x="1355" y="780" width="210" height="720" as="geometry" />
        </mxCell>
        <mxCell id="XD0-1YyBALW8wQHgo1uq-3" value="- arrival_time: Integer" style="text;strokeColor=none;fillColor=default;align=left;verticalAlign=middle;spacingLeft=4;spacingRight=4;overflow=hidden;points=[[0,0.5],[1,0.5]];portConstraint=eastwest;rotatable=0;whiteSpace=wrap;html=1;" vertex="1" parent="XD0-1YyBALW8wQHgo1uq-2">
          <mxGeometry y="30" width="210" height="30" as="geometry" />
        </mxCell>
        <mxCell id="XD0-1YyBALW8wQHgo1uq-4" value="- id: String" style="text;strokeColor=none;fillColor=default;align=left;verticalAlign=middle;spacingLeft=4;spacingRight=4;overflow=hidden;points=[[0,0.5],[1,0.5]];portConstraint=eastwest;rotatable=0;whiteSpace=wrap;html=1;" vertex="1" parent="XD0-1YyBALW8wQHgo1uq-2">
          <mxGeometry y="60" width="210" height="30" as="geometry" />
        </mxCell>
        <mxCell id="XD0-1YyBALW8wQHgo1uq-5" value="- route: Route" style="text;strokeColor=none;fillColor=default;align=left;verticalAlign=middle;spacingLeft=4;spacingRight=4;overflow=hidden;points=[[0,0.5],[1,0.5]];portConstraint=eastwest;rotatable=0;whiteSpace=wrap;html=1;" vertex="1" parent="XD0-1YyBALW8wQHgo1uq-2">
          <mxGeometry y="90" width="210" height="30" as="geometry" />
        </mxCell>
        <mxCell id="XD0-1YyBALW8wQHgo1uq-15" value="- door_n: Integer" style="text;strokeColor=none;fillColor=default;align=left;verticalAlign=middle;spacingLeft=4;spacingRight=4;overflow=hidden;points=[[0,0.5],[1,0.5]];portConstraint=eastwest;rotatable=0;whiteSpace=wrap;html=1;" vertex="1" parent="XD0-1YyBALW8wQHgo1uq-2">
          <mxGeometry y="120" width="210" height="30" as="geometry" />
        </mxCell>
        <mxCell id="XD0-1YyBALW8wQHgo1uq-14" value="- top_speed: Float" style="text;strokeColor=none;fillColor=default;align=left;verticalAlign=middle;spacingLeft=4;spacingRight=4;overflow=hidden;points=[[0,0.5],[1,0.5]];portConstraint=eastwest;rotatable=0;whiteSpace=wrap;html=1;" vertex="1" parent="XD0-1YyBALW8wQHgo1uq-2">
          <mxGeometry y="150" width="210" height="30" as="geometry" />
        </mxCell>
        <mxCell id="XD0-1YyBALW8wQHgo1uq-13" value="- acc: Float" style="text;strokeColor=none;fillColor=default;align=left;verticalAlign=middle;spacingLeft=4;spacingRight=4;overflow=hidden;points=[[0,0.5],[1,0.5]];portConstraint=eastwest;rotatable=0;whiteSpace=wrap;html=1;" vertex="1" parent="XD0-1YyBALW8wQHgo1uq-2">
          <mxGeometry y="180" width="210" height="30" as="geometry" />
        </mxCell>
        <mxCell id="XD0-1YyBALW8wQHgo1uq-12" value="- desc: Float" style="text;strokeColor=none;fillColor=default;align=left;verticalAlign=middle;spacingLeft=4;spacingRight=4;overflow=hidden;points=[[0,0.5],[1,0.5]];portConstraint=eastwest;rotatable=0;whiteSpace=wrap;html=1;" vertex="1" parent="XD0-1YyBALW8wQHgo1uq-2">
          <mxGeometry y="210" width="210" height="30" as="geometry" />
        </mxCell>
        <mxCell id="XD0-1YyBALW8wQHgo1uq-11" value="- location: Node" style="text;strokeColor=none;fillColor=default;align=left;verticalAlign=middle;spacingLeft=4;spacingRight=4;overflow=hidden;points=[[0,0.5],[1,0.5]];portConstraint=eastwest;rotatable=0;whiteSpace=wrap;html=1;" vertex="1" parent="XD0-1YyBALW8wQHgo1uq-2">
          <mxGeometry y="240" width="210" height="30" as="geometry" />
        </mxCell>
        <mxCell id="XD0-1YyBALW8wQHgo1uq-10" value="- position: Float" style="text;strokeColor=none;fillColor=default;align=left;verticalAlign=middle;spacingLeft=4;spacingRight=4;overflow=hidden;points=[[0,0.5],[1,0.5]];portConstraint=eastwest;rotatable=0;whiteSpace=wrap;html=1;" vertex="1" parent="XD0-1YyBALW8wQHgo1uq-2">
          <mxGeometry y="270" width="210" height="30" as="geometry" />
        </mxCell>
        <mxCell id="XD0-1YyBALW8wQHgo1uq-9" value="- next_node: Node" style="text;strokeColor=none;fillColor=default;align=left;verticalAlign=middle;spacingLeft=4;spacingRight=4;overflow=hidden;points=[[0,0.5],[1,0.5]];portConstraint=eastwest;rotatable=0;whiteSpace=wrap;html=1;" vertex="1" parent="XD0-1YyBALW8wQHgo1uq-2">
          <mxGeometry y="300" width="210" height="30" as="geometry" />
        </mxCell>
        <mxCell id="XD0-1YyBALW8wQHgo1uq-8" value="- stop_flag: Boolean" style="text;strokeColor=none;fillColor=default;align=left;verticalAlign=middle;spacingLeft=4;spacingRight=4;overflow=hidden;points=[[0,0.5],[1,0.5]];portConstraint=eastwest;rotatable=0;whiteSpace=wrap;html=1;" vertex="1" parent="XD0-1YyBALW8wQHgo1uq-2">
          <mxGeometry y="330" width="210" height="30" as="geometry" />
        </mxCell>
        <mxCell id="XD0-1YyBALW8wQHgo1uq-7" value="- check_stop_flag: Boolean" style="text;strokeColor=none;fillColor=default;align=left;verticalAlign=middle;spacingLeft=4;spacingRight=4;overflow=hidden;points=[[0,0.5],[1,0.5]];portConstraint=eastwest;rotatable=0;whiteSpace=wrap;html=1;" vertex="1" parent="XD0-1YyBALW8wQHgo1uq-2">
          <mxGeometry y="360" width="210" height="30" as="geometry" />
        </mxCell>
        <mxCell id="XD0-1YyBALW8wQHgo1uq-21" value="- breaking_point: Float" style="text;strokeColor=none;fillColor=default;align=left;verticalAlign=middle;spacingLeft=4;spacingRight=4;overflow=hidden;points=[[0,0.5],[1,0.5]];portConstraint=eastwest;rotatable=0;whiteSpace=wrap;html=1;" vertex="1" parent="XD0-1YyBALW8wQHgo1uq-2">
          <mxGeometry y="390" width="210" height="30" as="geometry" />
        </mxCell>
        <mxCell id="XD0-1YyBALW8wQHgo1uq-20" value="- passengers: List&amp;lt;Passenger&amp;gt;" style="text;strokeColor=none;fillColor=default;align=left;verticalAlign=middle;spacingLeft=4;spacingRight=4;overflow=hidden;points=[[0,0.5],[1,0.5]];portConstraint=eastwest;rotatable=0;whiteSpace=wrap;html=1;" vertex="1" parent="XD0-1YyBALW8wQHgo1uq-2">
          <mxGeometry y="420" width="210" height="30" as="geometry" />
        </mxCell>
        <mxCell id="XD0-1YyBALW8wQHgo1uq-6" value="- alighting_queue: List&amp;lt;Passenger&amp;gt;" style="text;strokeColor=none;fillColor=default;align=left;verticalAlign=middle;spacingLeft=4;spacingRight=4;overflow=hidden;points=[[0,0.5],[1,0.5]];portConstraint=eastwest;rotatable=0;whiteSpace=wrap;html=1;" vertex="1" parent="XD0-1YyBALW8wQHgo1uq-2">
          <mxGeometry y="450" width="210" height="30" as="geometry" />
        </mxCell>
        <mxCell id="XD0-1YyBALW8wQHgo1uq-19" value="- status: String" style="text;strokeColor=none;fillColor=default;align=left;verticalAlign=middle;spacingLeft=4;spacingRight=4;overflow=hidden;points=[[0,0.5],[1,0.5]];portConstraint=eastwest;rotatable=0;whiteSpace=wrap;html=1;" vertex="1" parent="XD0-1YyBALW8wQHgo1uq-2">
          <mxGeometry y="480" width="210" height="30" as="geometry" />
        </mxCell>
        <mxCell id="XD0-1YyBALW8wQHgo1uq-18" value="- speed: Float" style="text;strokeColor=none;fillColor=default;align=left;verticalAlign=middle;spacingLeft=4;spacingRight=4;overflow=hidden;points=[[0,0.5],[1,0.5]];portConstraint=eastwest;rotatable=0;whiteSpace=wrap;html=1;" vertex="1" parent="XD0-1YyBALW8wQHgo1uq-2">
          <mxGeometry y="510" width="210" height="30" as="geometry" />
        </mxCell>
        <mxCell id="XD0-1YyBALW8wQHgo1uq-17" value="- travel_distance: Float" style="text;strokeColor=none;fillColor=default;align=left;verticalAlign=middle;spacingLeft=4;spacingRight=4;overflow=hidden;points=[[0,0.5],[1,0.5]];portConstraint=eastwest;rotatable=0;whiteSpace=wrap;html=1;" vertex="1" parent="XD0-1YyBALW8wQHgo1uq-2">
          <mxGeometry y="540" width="210" height="30" as="geometry" />
        </mxCell>
        <mxCell id="XD0-1YyBALW8wQHgo1uq-16" value="- speed_log: List&amp;lt;Integer&amp;gt;" style="text;strokeColor=none;fillColor=default;align=left;verticalAlign=middle;spacingLeft=4;spacingRight=4;overflow=hidden;points=[[0,0.5],[1,0.5]];portConstraint=eastwest;rotatable=0;whiteSpace=wrap;html=1;" vertex="1" parent="XD0-1YyBALW8wQHgo1uq-2">
          <mxGeometry y="570" width="210" height="30" as="geometry" />
        </mxCell>
        <mxCell id="XD0-1YyBALW8wQHgo1uq-24" value="- time_log: Float" style="text;strokeColor=none;fillColor=default;align=left;verticalAlign=middle;spacingLeft=4;spacingRight=4;overflow=hidden;points=[[0,0.5],[1,0.5]];portConstraint=eastwest;rotatable=0;whiteSpace=wrap;html=1;" vertex="1" parent="XD0-1YyBALW8wQHgo1uq-2">
          <mxGeometry y="600" width="210" height="30" as="geometry" />
        </mxCell>
        <mxCell id="XD0-1YyBALW8wQHgo1uq-23" value="- stop_queue_time_log: Float" style="text;strokeColor=none;fillColor=default;align=left;verticalAlign=middle;spacingLeft=4;spacingRight=4;overflow=hidden;points=[[0,0.5],[1,0.5]];portConstraint=eastwest;rotatable=0;whiteSpace=wrap;html=1;" vertex="1" parent="XD0-1YyBALW8wQHgo1uq-2">
          <mxGeometry y="630" width="210" height="30" as="geometry" />
        </mxCell>
        <mxCell id="XD0-1YyBALW8wQHgo1uq-22" value="- stop_dwell_time_log: Float" style="text;strokeColor=none;fillColor=default;align=left;verticalAlign=middle;spacingLeft=4;spacingRight=4;overflow=hidden;points=[[0,0.5],[1,0.5]];portConstraint=eastwest;rotatable=0;whiteSpace=wrap;html=1;" vertex="1" parent="XD0-1YyBALW8wQHgo1uq-2">
          <mxGeometry y="660" width="210" height="30" as="geometry" />
        </mxCell>
        <mxCell id="XD0-1YyBALW8wQHgo1uq-25" value="- intersection:queue_time_log: Float" style="text;strokeColor=none;fillColor=default;align=left;verticalAlign=middle;spacingLeft=4;spacingRight=4;overflow=hidden;points=[[0,0.5],[1,0.5]];portConstraint=eastwest;rotatable=0;whiteSpace=wrap;html=1;" vertex="1" parent="XD0-1YyBALW8wQHgo1uq-2">
          <mxGeometry y="690" width="210" height="30" as="geometry" />
        </mxCell>
      </root>
    </mxGraphModel>
  </diagram>
  <diagram id="EZyw_GeM41H7Dqwpguk0" name="Nodes">
    <mxGraphModel dx="1393" dy="766" grid="1" gridSize="10" guides="1" tooltips="1" connect="1" arrows="1" fold="1" page="1" pageScale="1" pageWidth="850" pageHeight="1100" math="0" shadow="0">
      <root>
        <mxCell id="0" />
        <mxCell id="1" parent="0" />
        <mxCell id="fhWiLxBi0U_N-hDFiv27-1" value="Start" style="ellipse;whiteSpace=wrap;html=1;aspect=fixed;fillColor=#d5e8d4;strokeColor=#82b366;" parent="1" vertex="1">
          <mxGeometry x="60" y="99" width="40" height="40" as="geometry" />
        </mxCell>
        <mxCell id="fhWiLxBi0U_N-hDFiv27-2" value="End" style="ellipse;whiteSpace=wrap;html=1;aspect=fixed;fillColor=#f8cecc;strokeColor=#b85450;" parent="1" vertex="1">
          <mxGeometry x="130" y="99" width="40" height="40" as="geometry" />
        </mxCell>
        <mxCell id="Lr7Pyga0uyhA2rq1F_3K-37" value="" style="group" parent="1" vertex="1" connectable="0">
          <mxGeometry x="200" y="39" width="340" height="90" as="geometry" />
        </mxCell>
        <mxCell id="Lr7Pyga0uyhA2rq1F_3K-33" value="" style="group" parent="Lr7Pyga0uyhA2rq1F_3K-37" vertex="1" connectable="0">
          <mxGeometry y="10" width="340" height="80" as="geometry" />
        </mxCell>
        <mxCell id="x4Rk1ANgWG0FkRYTRlj3-1" value="" style="endArrow=none;html=1;rounded=0;" parent="Lr7Pyga0uyhA2rq1F_3K-33" edge="1">
          <mxGeometry width="50" height="50" relative="1" as="geometry">
            <mxPoint as="sourcePoint" />
            <mxPoint x="340" as="targetPoint" />
          </mxGeometry>
        </mxCell>
        <mxCell id="x4Rk1ANgWG0FkRYTRlj3-2" value="" style="endArrow=none;html=1;rounded=0;" parent="Lr7Pyga0uyhA2rq1F_3K-33" edge="1">
          <mxGeometry width="50" height="50" relative="1" as="geometry">
            <mxPoint y="80" as="sourcePoint" />
            <mxPoint x="340" y="80" as="targetPoint" />
          </mxGeometry>
        </mxCell>
        <mxCell id="Lr7Pyga0uyhA2rq1F_3K-32" value="" style="rounded=0;whiteSpace=wrap;html=1;strokeColor=none;fillColor=#CCCCCC;container=0;" parent="Lr7Pyga0uyhA2rq1F_3K-33" vertex="1">
          <mxGeometry width="340" height="80" as="geometry" />
        </mxCell>
        <mxCell id="x4Rk1ANgWG0FkRYTRlj3-3" value="" style="endArrow=none;dashed=1;html=1;rounded=0;jumpSize=13;jumpStyle=none;dashPattern=8 8;" parent="Lr7Pyga0uyhA2rq1F_3K-33" edge="1">
          <mxGeometry width="50" height="50" relative="1" as="geometry">
            <mxPoint y="40" as="sourcePoint" />
            <mxPoint x="340" y="40" as="targetPoint" />
          </mxGeometry>
        </mxCell>
        <mxCell id="Lr7Pyga0uyhA2rq1F_3K-34" value="d&lt;sub&gt;&lt;i&gt;i&lt;/i&gt;&lt;/sub&gt;" style="endArrow=none;html=1;rounded=0;" parent="Lr7Pyga0uyhA2rq1F_3K-37" edge="1">
          <mxGeometry width="50" height="50" relative="1" as="geometry">
            <mxPoint y="5" as="sourcePoint" />
            <mxPoint x="340" y="5" as="targetPoint" />
          </mxGeometry>
        </mxCell>
        <mxCell id="Lr7Pyga0uyhA2rq1F_3K-35" value="" style="endArrow=none;html=1;rounded=0;" parent="Lr7Pyga0uyhA2rq1F_3K-37" edge="1">
          <mxGeometry width="50" height="50" relative="1" as="geometry">
            <mxPoint x="339.89" y="10" as="sourcePoint" />
            <mxPoint x="339.89" as="targetPoint" />
            <Array as="points">
              <mxPoint x="340" y="10" />
            </Array>
          </mxGeometry>
        </mxCell>
        <mxCell id="Lr7Pyga0uyhA2rq1F_3K-36" value="" style="endArrow=none;html=1;rounded=0;" parent="Lr7Pyga0uyhA2rq1F_3K-37" edge="1">
          <mxGeometry width="50" height="50" relative="1" as="geometry">
            <mxPoint y="10" as="sourcePoint" />
            <mxPoint as="targetPoint" />
          </mxGeometry>
        </mxCell>
        <mxCell id="Lr7Pyga0uyhA2rq1F_3K-27" value="" style="group" parent="1" vertex="1" connectable="0">
          <mxGeometry x="560" y="8" width="150" height="160" as="geometry" />
        </mxCell>
        <mxCell id="Lr7Pyga0uyhA2rq1F_3K-11" value="" style="endArrow=none;html=1;strokeWidth=2;rounded=0;fillColor=#f5f5f5;strokeColor=#666666;exitX=1;exitY=0;exitDx=0;exitDy=0;" parent="Lr7Pyga0uyhA2rq1F_3K-27" edge="1">
          <mxGeometry width="50" height="50" relative="1" as="geometry">
            <mxPoint x="139" y="120" as="sourcePoint" />
            <mxPoint x="139" y="39" as="targetPoint" />
          </mxGeometry>
        </mxCell>
        <mxCell id="Lr7Pyga0uyhA2rq1F_3K-2" value="" style="rounded=0;whiteSpace=wrap;html=1;fillColor=#fff2cc;strokeColor=#d6b656;strokeWidth=2;container=0;" parent="Lr7Pyga0uyhA2rq1F_3K-27" vertex="1">
          <mxGeometry x="30" y="120" width="120" height="40" as="geometry" />
        </mxCell>
        <mxCell id="Lr7Pyga0uyhA2rq1F_3K-4" value="" style="rounded=0;whiteSpace=wrap;html=1;fillColor=default;strokeColor=#82b366;strokeWidth=2;container=0;" parent="Lr7Pyga0uyhA2rq1F_3K-27" vertex="1">
          <mxGeometry x="129" y="122.5" width="10" height="35" as="geometry" />
        </mxCell>
        <mxCell id="Lr7Pyga0uyhA2rq1F_3K-7" value="" style="rounded=0;whiteSpace=wrap;html=1;fillColor=#dae8fc;strokeColor=#6c8ebf;container=0;" parent="Lr7Pyga0uyhA2rq1F_3K-27" vertex="1">
          <mxGeometry x="95" y="84" width="50" height="30" as="geometry" />
        </mxCell>
        <mxCell id="Lr7Pyga0uyhA2rq1F_3K-8" value="" style="rounded=0;whiteSpace=wrap;html=1;fillColor=default;strokeColor=#82b366;strokeWidth=2;container=0;" parent="Lr7Pyga0uyhA2rq1F_3K-27" vertex="1">
          <mxGeometry x="69" y="122.5" width="10" height="35" as="geometry" />
        </mxCell>
        <mxCell id="Lr7Pyga0uyhA2rq1F_3K-9" value="" style="rounded=0;whiteSpace=wrap;html=1;fillColor=#dae8fc;strokeColor=#6c8ebf;container=0;" parent="Lr7Pyga0uyhA2rq1F_3K-27" vertex="1">
          <mxGeometry x="35" y="84" width="50" height="30" as="geometry" />
        </mxCell>
        <mxCell id="Lr7Pyga0uyhA2rq1F_3K-12" value="" style="ellipse;whiteSpace=wrap;html=1;aspect=fixed;fillColor=#ffe6cc;strokeColor=#d79b00;container=0;" parent="Lr7Pyga0uyhA2rq1F_3K-27" vertex="1">
          <mxGeometry x="129" y="94" width="10" height="10" as="geometry" />
        </mxCell>
        <mxCell id="Lr7Pyga0uyhA2rq1F_3K-13" value="" style="ellipse;whiteSpace=wrap;html=1;aspect=fixed;fillColor=#ffe6cc;strokeColor=#d79b00;container=0;" parent="Lr7Pyga0uyhA2rq1F_3K-27" vertex="1">
          <mxGeometry x="69" y="94" width="10" height="10" as="geometry" />
        </mxCell>
        <mxCell id="Lr7Pyga0uyhA2rq1F_3K-18" value="d&lt;sub&gt;b&lt;/sub&gt;" style="endArrow=none;html=1;rounded=0;" parent="Lr7Pyga0uyhA2rq1F_3K-27" edge="1">
          <mxGeometry width="50" height="50" relative="1" as="geometry">
            <mxPoint y="18" as="sourcePoint" />
            <mxPoint x="139" y="18" as="targetPoint" />
          </mxGeometry>
        </mxCell>
        <mxCell id="Lr7Pyga0uyhA2rq1F_3K-19" value="" style="endArrow=none;html=1;rounded=0;" parent="Lr7Pyga0uyhA2rq1F_3K-27" edge="1">
          <mxGeometry width="50" height="50" relative="1" as="geometry">
            <mxPoint x="138.89" y="23" as="sourcePoint" />
            <mxPoint x="138.89" y="13" as="targetPoint" />
          </mxGeometry>
        </mxCell>
        <mxCell id="Lr7Pyga0uyhA2rq1F_3K-20" value="" style="endArrow=none;html=1;rounded=0;" parent="Lr7Pyga0uyhA2rq1F_3K-27" edge="1">
          <mxGeometry width="50" height="50" relative="1" as="geometry">
            <mxPoint y="23" as="sourcePoint" />
            <mxPoint y="13" as="targetPoint" />
          </mxGeometry>
        </mxCell>
        <mxCell id="Lr7Pyga0uyhA2rq1F_3K-21" value="" style="html=1;verticalLabelPosition=bottom;align=center;labelBackgroundColor=#ffffff;verticalAlign=top;strokeWidth=2;strokeColor=#b85450;shadow=0;dashed=0;shape=mxgraph.ios7.icons.flag;fillColor=#f8cecc;container=0;" parent="Lr7Pyga0uyhA2rq1F_3K-27" vertex="1">
          <mxGeometry width="10" height="10" as="geometry" />
        </mxCell>
        <mxCell id="Lr7Pyga0uyhA2rq1F_3K-22" value="" style="endArrow=none;dashed=1;html=1;dashPattern=1 3;strokeWidth=1;rounded=0;fillColor=#f8cecc;strokeColor=#B80606;" parent="Lr7Pyga0uyhA2rq1F_3K-27" edge="1">
          <mxGeometry width="50" height="50" relative="1" as="geometry">
            <mxPoint y="119" as="sourcePoint" />
            <mxPoint y="19" as="targetPoint" />
          </mxGeometry>
        </mxCell>
        <mxCell id="Lr7Pyga0uyhA2rq1F_3K-26" value="" style="endArrow=none;dashed=1;html=1;dashPattern=1 3;strokeWidth=1;rounded=0;fillColor=#f8cecc;strokeColor=#ff0800;exitX=1;exitY=0.5;exitDx=0;exitDy=0;" parent="Lr7Pyga0uyhA2rq1F_3K-27" source="Lr7Pyga0uyhA2rq1F_3K-12" edge="1">
          <mxGeometry width="50" height="50" relative="1" as="geometry">
            <mxPoint x="184" y="79" as="sourcePoint" />
            <mxPoint x="139" y="19" as="targetPoint" />
          </mxGeometry>
        </mxCell>
        <mxCell id="lLeHS-UcZW8FNfTa1zkQ-36" value="" style="group" parent="1" vertex="1" connectable="0">
          <mxGeometry x="476" y="278" width="269" height="160" as="geometry" />
        </mxCell>
        <mxCell id="lLeHS-UcZW8FNfTa1zkQ-1" value="" style="endArrow=none;html=1;rounded=0;" parent="lLeHS-UcZW8FNfTa1zkQ-36" edge="1">
          <mxGeometry width="50" height="50" relative="1" as="geometry">
            <mxPoint x="169" y="40" as="sourcePoint" />
            <mxPoint x="169" as="targetPoint" />
          </mxGeometry>
        </mxCell>
        <mxCell id="lLeHS-UcZW8FNfTa1zkQ-2" value="" style="endArrow=none;html=1;rounded=0;" parent="lLeHS-UcZW8FNfTa1zkQ-36" edge="1">
          <mxGeometry width="50" height="50" relative="1" as="geometry">
            <mxPoint x="229" y="40" as="sourcePoint" />
            <mxPoint x="269" y="40" as="targetPoint" />
          </mxGeometry>
        </mxCell>
        <mxCell id="lLeHS-UcZW8FNfTa1zkQ-3" value="" style="endArrow=none;html=1;rounded=0;" parent="lLeHS-UcZW8FNfTa1zkQ-36" edge="1">
          <mxGeometry width="50" height="50" relative="1" as="geometry">
            <mxPoint x="229" y="40" as="sourcePoint" />
            <mxPoint x="229" as="targetPoint" />
          </mxGeometry>
        </mxCell>
        <mxCell id="lLeHS-UcZW8FNfTa1zkQ-4" value="" style="endArrow=none;html=1;rounded=0;" parent="lLeHS-UcZW8FNfTa1zkQ-36" edge="1">
          <mxGeometry width="50" height="50" relative="1" as="geometry">
            <mxPoint x="169" y="160" as="sourcePoint" />
            <mxPoint x="169" y="120" as="targetPoint" />
          </mxGeometry>
        </mxCell>
        <mxCell id="lLeHS-UcZW8FNfTa1zkQ-5" value="" style="endArrow=none;html=1;rounded=0;" parent="lLeHS-UcZW8FNfTa1zkQ-36" edge="1">
          <mxGeometry width="50" height="50" relative="1" as="geometry">
            <mxPoint x="269" y="120" as="sourcePoint" />
            <mxPoint x="229" y="120" as="targetPoint" />
          </mxGeometry>
        </mxCell>
        <mxCell id="lLeHS-UcZW8FNfTa1zkQ-6" value="" style="endArrow=none;html=1;rounded=0;" parent="lLeHS-UcZW8FNfTa1zkQ-36" edge="1">
          <mxGeometry width="50" height="50" relative="1" as="geometry">
            <mxPoint x="229" y="120" as="sourcePoint" />
            <mxPoint x="229" y="160" as="targetPoint" />
          </mxGeometry>
        </mxCell>
        <mxCell id="lLeHS-UcZW8FNfTa1zkQ-7" value="" style="endArrow=none;html=1;rounded=0;" parent="lLeHS-UcZW8FNfTa1zkQ-36" edge="1">
          <mxGeometry width="50" height="50" relative="1" as="geometry">
            <mxPoint x="149" y="120" as="sourcePoint" />
            <mxPoint x="149" y="40" as="targetPoint" />
          </mxGeometry>
        </mxCell>
        <mxCell id="lLeHS-UcZW8FNfTa1zkQ-8" value="" style="endArrow=none;html=1;rounded=0;" parent="lLeHS-UcZW8FNfTa1zkQ-36" edge="1">
          <mxGeometry width="50" height="50" relative="1" as="geometry">
            <mxPoint x="159" y="120" as="sourcePoint" />
            <mxPoint x="159" y="40" as="targetPoint" />
          </mxGeometry>
        </mxCell>
        <mxCell id="lLeHS-UcZW8FNfTa1zkQ-19" value="" style="endArrow=none;html=1;rounded=0;" parent="lLeHS-UcZW8FNfTa1zkQ-36" edge="1">
          <mxGeometry width="50" height="50" relative="1" as="geometry">
            <mxPoint x="149" y="40" as="sourcePoint" />
            <mxPoint x="169" y="40" as="targetPoint" />
          </mxGeometry>
        </mxCell>
        <mxCell id="lLeHS-UcZW8FNfTa1zkQ-21" value="" style="endArrow=none;html=1;rounded=0;" parent="lLeHS-UcZW8FNfTa1zkQ-36" edge="1">
          <mxGeometry width="50" height="50" relative="1" as="geometry">
            <mxPoint x="149" y="120" as="sourcePoint" />
            <mxPoint x="169" y="120" as="targetPoint" />
          </mxGeometry>
        </mxCell>
        <mxCell id="lLeHS-UcZW8FNfTa1zkQ-22" value="" style="rounded=0;whiteSpace=wrap;html=1;fillColor=#dae8fc;strokeColor=#6c8ebf;container=0;" parent="lLeHS-UcZW8FNfTa1zkQ-36" vertex="1">
          <mxGeometry x="97" y="85" width="50" height="30" as="geometry" />
        </mxCell>
        <mxCell id="lLeHS-UcZW8FNfTa1zkQ-23" value="" style="ellipse;whiteSpace=wrap;html=1;aspect=fixed;fillColor=#ffe6cc;strokeColor=#d79b00;container=0;" parent="lLeHS-UcZW8FNfTa1zkQ-36" vertex="1">
          <mxGeometry x="131" y="95" width="10" height="10" as="geometry" />
        </mxCell>
        <mxCell id="lLeHS-UcZW8FNfTa1zkQ-26" value="" style="rounded=0;whiteSpace=wrap;html=1;fillColor=#dae8fc;strokeColor=#6c8ebf;container=0;" parent="lLeHS-UcZW8FNfTa1zkQ-36" vertex="1">
          <mxGeometry x="40" y="85" width="50" height="30" as="geometry" />
        </mxCell>
        <mxCell id="lLeHS-UcZW8FNfTa1zkQ-27" value="" style="ellipse;whiteSpace=wrap;html=1;aspect=fixed;fillColor=#ffe6cc;strokeColor=#d79b00;container=0;" parent="lLeHS-UcZW8FNfTa1zkQ-36" vertex="1">
          <mxGeometry x="74" y="95" width="10" height="10" as="geometry" />
        </mxCell>
        <mxCell id="lLeHS-UcZW8FNfTa1zkQ-28" value="d&lt;sub&gt;b&lt;/sub&gt;" style="endArrow=none;html=1;rounded=0;" parent="lLeHS-UcZW8FNfTa1zkQ-36" edge="1">
          <mxGeometry width="50" height="50" relative="1" as="geometry">
            <mxPoint x="1.4700000000000273" y="19" as="sourcePoint" />
            <mxPoint x="140.47000000000003" y="19" as="targetPoint" />
          </mxGeometry>
        </mxCell>
        <mxCell id="lLeHS-UcZW8FNfTa1zkQ-29" value="" style="endArrow=none;html=1;rounded=0;" parent="lLeHS-UcZW8FNfTa1zkQ-36" edge="1">
          <mxGeometry width="50" height="50" relative="1" as="geometry">
            <mxPoint x="140.36" y="24" as="sourcePoint" />
            <mxPoint x="140.36" y="14" as="targetPoint" />
          </mxGeometry>
        </mxCell>
        <mxCell id="lLeHS-UcZW8FNfTa1zkQ-30" value="" style="endArrow=none;html=1;rounded=0;" parent="lLeHS-UcZW8FNfTa1zkQ-36" edge="1">
          <mxGeometry width="50" height="50" relative="1" as="geometry">
            <mxPoint x="1.4700000000000273" y="24" as="sourcePoint" />
            <mxPoint x="1.4700000000000273" y="14" as="targetPoint" />
          </mxGeometry>
        </mxCell>
        <mxCell id="lLeHS-UcZW8FNfTa1zkQ-31" value="" style="html=1;verticalLabelPosition=bottom;align=center;labelBackgroundColor=#ffffff;verticalAlign=top;strokeWidth=2;strokeColor=#b85450;shadow=0;dashed=0;shape=mxgraph.ios7.icons.flag;fillColor=#f8cecc;container=0;" parent="lLeHS-UcZW8FNfTa1zkQ-36" vertex="1">
          <mxGeometry x="1.4700000000000273" y="1" width="10" height="10" as="geometry" />
        </mxCell>
        <mxCell id="lLeHS-UcZW8FNfTa1zkQ-32" value="" style="endArrow=none;dashed=1;html=1;dashPattern=1 3;strokeWidth=1;rounded=0;fillColor=#f8cecc;strokeColor=#ff0800;exitX=1;exitY=0.5;exitDx=0;exitDy=0;" parent="lLeHS-UcZW8FNfTa1zkQ-36" edge="1">
          <mxGeometry width="50" height="50" relative="1" as="geometry">
            <mxPoint x="140.47000000000003" y="100" as="sourcePoint" />
            <mxPoint x="140.47000000000003" y="20" as="targetPoint" />
          </mxGeometry>
        </mxCell>
        <mxCell id="lLeHS-UcZW8FNfTa1zkQ-33" value="" style="endArrow=none;dashed=1;html=1;dashPattern=1 3;strokeWidth=1;rounded=0;fillColor=#f8cecc;strokeColor=#ff0800;exitX=1;exitY=0.5;exitDx=0;exitDy=0;" parent="lLeHS-UcZW8FNfTa1zkQ-36" edge="1">
          <mxGeometry width="50" height="50" relative="1" as="geometry">
            <mxPoint x="1.4700000000000273" y="100" as="sourcePoint" />
            <mxPoint x="1.4700000000000273" y="20" as="targetPoint" />
          </mxGeometry>
        </mxCell>
        <mxCell id="lLeHS-UcZW8FNfTa1zkQ-34" value="" style="endArrow=none;dashed=1;html=1;dashPattern=1 2;strokeWidth=5;rounded=0;entryX=0;entryY=0.5;entryDx=0;entryDy=0;" parent="lLeHS-UcZW8FNfTa1zkQ-36" target="lLeHS-UcZW8FNfTa1zkQ-26" edge="1">
          <mxGeometry width="50" height="50" relative="1" as="geometry">
            <mxPoint y="100" as="sourcePoint" />
            <mxPoint x="70" y="140" as="targetPoint" />
          </mxGeometry>
        </mxCell>
        <mxCell id="lLeHS-UcZW8FNfTa1zkQ-35" value="" style="shape=image;html=1;verticalAlign=top;verticalLabelPosition=bottom;labelBackgroundColor=#ffffff;imageAspect=0;aspect=fixed;image=https://cdn2.iconfinder.com/data/icons/circle-icons-1/64/traffic-128.png" parent="lLeHS-UcZW8FNfTa1zkQ-36" vertex="1">
          <mxGeometry x="180" y="59" width="40" height="40" as="geometry" />
        </mxCell>
      </root>
    </mxGraphModel>
  </diagram>
  <diagram id="Qly5fGkfjyFelwmjiEJu" name="Nodes Representation">
    <mxGraphModel dx="796" dy="438" grid="1" gridSize="10" guides="1" tooltips="1" connect="1" arrows="1" fold="1" page="1" pageScale="1" pageWidth="850" pageHeight="1100" math="0" shadow="0">
      <root>
        <mxCell id="0" />
        <mxCell id="1" parent="0" />
        <mxCell id="aVFP65PxiB08wbSl48Av-14" value="" style="group" vertex="1" connectable="0" parent="1">
          <mxGeometry x="230" y="360" width="90" height="80" as="geometry" />
        </mxCell>
        <mxCell id="g4xMDfzxZXtKpLWxH_7b-1" value="" style="endArrow=none;html=1;rounded=0;" edge="1" parent="aVFP65PxiB08wbSl48Av-14">
          <mxGeometry width="50" height="50" relative="1" as="geometry">
            <mxPoint as="sourcePoint" />
            <mxPoint x="90" as="targetPoint" />
          </mxGeometry>
        </mxCell>
        <mxCell id="g4xMDfzxZXtKpLWxH_7b-2" value="" style="endArrow=none;html=1;rounded=0;" edge="1" parent="aVFP65PxiB08wbSl48Av-14">
          <mxGeometry width="50" height="50" relative="1" as="geometry">
            <mxPoint y="80" as="sourcePoint" />
            <mxPoint x="90" y="80" as="targetPoint" />
          </mxGeometry>
        </mxCell>
        <mxCell id="g4xMDfzxZXtKpLWxH_7b-4" value="" style="curved=1;endArrow=none;html=1;rounded=0;endFill=0;" edge="1" parent="aVFP65PxiB08wbSl48Av-14">
          <mxGeometry width="50" height="50" relative="1" as="geometry">
            <mxPoint y="80" as="sourcePoint" />
            <mxPoint as="targetPoint" />
            <Array as="points">
              <mxPoint y="50" />
              <mxPoint x="30" y="50" />
              <mxPoint x="30" y="20" />
              <mxPoint y="30" />
            </Array>
          </mxGeometry>
        </mxCell>
        <mxCell id="g4xMDfzxZXtKpLWxH_7b-10" value="" style="curved=1;endArrow=none;html=1;rounded=0;endFill=0;" edge="1" parent="aVFP65PxiB08wbSl48Av-14">
          <mxGeometry width="50" height="50" relative="1" as="geometry">
            <mxPoint x="90" y="80" as="sourcePoint" />
            <mxPoint x="90" as="targetPoint" />
            <Array as="points">
              <mxPoint x="90" y="50" />
              <mxPoint x="60" y="50" />
              <mxPoint x="60" y="30" />
              <mxPoint x="90" y="30" />
            </Array>
          </mxGeometry>
        </mxCell>
        <mxCell id="aVFP65PxiB08wbSl48Av-15" value="" style="group" vertex="1" connectable="0" parent="1">
          <mxGeometry x="230" y="250" width="80" height="80" as="geometry" />
        </mxCell>
        <mxCell id="g4xMDfzxZXtKpLWxH_7b-5" value="" style="curved=1;endArrow=none;html=1;rounded=0;endFill=0;" edge="1" parent="aVFP65PxiB08wbSl48Av-15">
          <mxGeometry width="50" height="50" relative="1" as="geometry">
            <mxPoint x="50" y="80" as="sourcePoint" />
            <mxPoint x="50" as="targetPoint" />
            <Array as="points">
              <mxPoint x="50" y="50" />
              <mxPoint x="80" y="50" />
              <mxPoint x="80" y="20" />
              <mxPoint x="50" y="30" />
            </Array>
          </mxGeometry>
        </mxCell>
        <mxCell id="g4xMDfzxZXtKpLWxH_7b-6" value="" style="endArrow=none;html=1;rounded=0;" edge="1" parent="aVFP65PxiB08wbSl48Av-15">
          <mxGeometry width="50" height="50" relative="1" as="geometry">
            <mxPoint as="sourcePoint" />
            <mxPoint x="50" as="targetPoint" />
          </mxGeometry>
        </mxCell>
        <mxCell id="g4xMDfzxZXtKpLWxH_7b-7" value="" style="endArrow=none;html=1;rounded=0;" edge="1" parent="aVFP65PxiB08wbSl48Av-15">
          <mxGeometry width="50" height="50" relative="1" as="geometry">
            <mxPoint y="80" as="sourcePoint" />
            <mxPoint x="50" y="80" as="targetPoint" />
          </mxGeometry>
        </mxCell>
        <mxCell id="g4xMDfzxZXtKpLWxH_7b-8" value="" style="endArrow=none;html=1;rounded=0;" edge="1" parent="aVFP65PxiB08wbSl48Av-15">
          <mxGeometry width="50" height="50" relative="1" as="geometry">
            <mxPoint y="80" as="sourcePoint" />
            <mxPoint as="targetPoint" />
          </mxGeometry>
        </mxCell>
        <mxCell id="aVFP65PxiB08wbSl48Av-16" value="" style="group" vertex="1" connectable="0" parent="1">
          <mxGeometry x="320" y="250" width="80" height="80" as="geometry" />
        </mxCell>
        <mxCell id="aVFP65PxiB08wbSl48Av-6" value="" style="endArrow=none;html=1;rounded=0;" edge="1" parent="aVFP65PxiB08wbSl48Av-16">
          <mxGeometry width="50" height="50" relative="1" as="geometry">
            <mxPoint x="30" as="sourcePoint" />
            <mxPoint x="80" as="targetPoint" />
          </mxGeometry>
        </mxCell>
        <mxCell id="aVFP65PxiB08wbSl48Av-7" value="" style="endArrow=none;html=1;rounded=0;" edge="1" parent="aVFP65PxiB08wbSl48Av-16">
          <mxGeometry width="50" height="50" relative="1" as="geometry">
            <mxPoint x="30" y="80" as="sourcePoint" />
            <mxPoint x="80" y="80" as="targetPoint" />
          </mxGeometry>
        </mxCell>
        <mxCell id="aVFP65PxiB08wbSl48Av-8" value="" style="endArrow=none;html=1;rounded=0;" edge="1" parent="aVFP65PxiB08wbSl48Av-16">
          <mxGeometry width="50" height="50" relative="1" as="geometry">
            <mxPoint x="80" y="80" as="sourcePoint" />
            <mxPoint x="80" as="targetPoint" />
          </mxGeometry>
        </mxCell>
        <mxCell id="aVFP65PxiB08wbSl48Av-9" value="" style="curved=1;endArrow=none;html=1;rounded=0;endFill=0;" edge="1" parent="aVFP65PxiB08wbSl48Av-16">
          <mxGeometry width="50" height="50" relative="1" as="geometry">
            <mxPoint x="30" y="80" as="sourcePoint" />
            <mxPoint x="30" as="targetPoint" />
            <Array as="points">
              <mxPoint x="30" y="50" />
              <mxPoint y="50" />
              <mxPoint y="30" />
              <mxPoint x="30" y="30" />
            </Array>
          </mxGeometry>
        </mxCell>
        <mxCell id="aVFP65PxiB08wbSl48Av-17" value="" style="group" vertex="1" connectable="0" parent="1">
          <mxGeometry x="340" y="360" width="150" height="80" as="geometry" />
        </mxCell>
        <mxCell id="aVFP65PxiB08wbSl48Av-1" value="" style="endArrow=none;html=1;rounded=0;" edge="1" parent="aVFP65PxiB08wbSl48Av-17">
          <mxGeometry width="50" height="50" relative="1" as="geometry">
            <mxPoint x="30" as="sourcePoint" />
            <mxPoint x="120" as="targetPoint" />
          </mxGeometry>
        </mxCell>
        <mxCell id="aVFP65PxiB08wbSl48Av-2" value="" style="endArrow=none;html=1;rounded=0;" edge="1" parent="aVFP65PxiB08wbSl48Av-17">
          <mxGeometry width="50" height="50" relative="1" as="geometry">
            <mxPoint x="30" y="80" as="sourcePoint" />
            <mxPoint x="120" y="80" as="targetPoint" />
          </mxGeometry>
        </mxCell>
        <mxCell id="aVFP65PxiB08wbSl48Av-3" value="" style="curved=1;endArrow=none;html=1;rounded=0;endFill=0;" edge="1" parent="aVFP65PxiB08wbSl48Av-17">
          <mxGeometry width="50" height="50" relative="1" as="geometry">
            <mxPoint x="30" y="80" as="sourcePoint" />
            <mxPoint x="30" as="targetPoint" />
            <Array as="points">
              <mxPoint x="30" y="50" />
              <mxPoint y="50" />
              <mxPoint y="30" />
              <mxPoint x="30" y="30" />
            </Array>
          </mxGeometry>
        </mxCell>
        <mxCell id="aVFP65PxiB08wbSl48Av-4" value="" style="curved=1;endArrow=none;html=1;rounded=0;endFill=0;" edge="1" parent="aVFP65PxiB08wbSl48Av-17">
          <mxGeometry width="50" height="50" relative="1" as="geometry">
            <mxPoint x="120" y="80" as="sourcePoint" />
            <mxPoint x="120" as="targetPoint" />
            <Array as="points">
              <mxPoint x="120" y="50" />
              <mxPoint x="150" y="50" />
              <mxPoint x="150" y="20" />
              <mxPoint x="120" y="30" />
            </Array>
          </mxGeometry>
        </mxCell>
        <mxCell id="aVFP65PxiB08wbSl48Av-18" value="" style="group" vertex="1" connectable="0" parent="1">
          <mxGeometry x="140" y="480" width="80" height="80" as="geometry" />
        </mxCell>
        <mxCell id="aVFP65PxiB08wbSl48Av-19" value="" style="curved=1;endArrow=none;html=1;rounded=0;endFill=0;" edge="1" parent="aVFP65PxiB08wbSl48Av-18">
          <mxGeometry width="50" height="50" relative="1" as="geometry">
            <mxPoint x="50" y="80" as="sourcePoint" />
            <mxPoint x="50" as="targetPoint" />
            <Array as="points">
              <mxPoint x="50" y="50" />
              <mxPoint x="80" y="50" />
              <mxPoint x="80" y="20" />
              <mxPoint x="50" y="30" />
            </Array>
          </mxGeometry>
        </mxCell>
        <mxCell id="aVFP65PxiB08wbSl48Av-20" value="" style="endArrow=none;html=1;rounded=0;" edge="1" parent="aVFP65PxiB08wbSl48Av-18">
          <mxGeometry width="50" height="50" relative="1" as="geometry">
            <mxPoint as="sourcePoint" />
            <mxPoint x="50" as="targetPoint" />
          </mxGeometry>
        </mxCell>
        <mxCell id="aVFP65PxiB08wbSl48Av-21" value="" style="endArrow=none;html=1;rounded=0;" edge="1" parent="aVFP65PxiB08wbSl48Av-18">
          <mxGeometry width="50" height="50" relative="1" as="geometry">
            <mxPoint y="80" as="sourcePoint" />
            <mxPoint x="50" y="80" as="targetPoint" />
          </mxGeometry>
        </mxCell>
        <mxCell id="aVFP65PxiB08wbSl48Av-22" value="" style="endArrow=none;html=1;rounded=0;" edge="1" parent="aVFP65PxiB08wbSl48Av-18">
          <mxGeometry width="50" height="50" relative="1" as="geometry">
            <mxPoint y="80" as="sourcePoint" />
            <mxPoint as="targetPoint" />
          </mxGeometry>
        </mxCell>
        <mxCell id="aVFP65PxiB08wbSl48Av-23" value="" style="group" vertex="1" connectable="0" parent="1">
          <mxGeometry x="190" y="480" width="90" height="80" as="geometry" />
        </mxCell>
        <mxCell id="aVFP65PxiB08wbSl48Av-24" value="" style="endArrow=none;html=1;rounded=0;" edge="1" parent="aVFP65PxiB08wbSl48Av-23">
          <mxGeometry width="50" height="50" relative="1" as="geometry">
            <mxPoint as="sourcePoint" />
            <mxPoint x="90" as="targetPoint" />
          </mxGeometry>
        </mxCell>
        <mxCell id="aVFP65PxiB08wbSl48Av-25" value="" style="endArrow=none;html=1;rounded=0;" edge="1" parent="aVFP65PxiB08wbSl48Av-23">
          <mxGeometry width="50" height="50" relative="1" as="geometry">
            <mxPoint y="80" as="sourcePoint" />
            <mxPoint x="90" y="80" as="targetPoint" />
          </mxGeometry>
        </mxCell>
        <mxCell id="aVFP65PxiB08wbSl48Av-26" value="" style="curved=1;endArrow=none;html=1;rounded=0;endFill=0;" edge="1" parent="aVFP65PxiB08wbSl48Av-23">
          <mxGeometry width="50" height="50" relative="1" as="geometry">
            <mxPoint y="80" as="sourcePoint" />
            <mxPoint as="targetPoint" />
            <Array as="points">
              <mxPoint y="50" />
              <mxPoint x="30" y="50" />
              <mxPoint x="30" y="20" />
              <mxPoint y="30" />
            </Array>
          </mxGeometry>
        </mxCell>
        <mxCell id="aVFP65PxiB08wbSl48Av-27" value="" style="curved=1;endArrow=none;html=1;rounded=0;endFill=0;" edge="1" parent="aVFP65PxiB08wbSl48Av-23">
          <mxGeometry width="50" height="50" relative="1" as="geometry">
            <mxPoint x="90" y="80" as="sourcePoint" />
            <mxPoint x="90" as="targetPoint" />
            <Array as="points">
              <mxPoint x="90" y="50" />
              <mxPoint x="60" y="50" />
              <mxPoint x="60" y="30" />
              <mxPoint x="90" y="30" />
            </Array>
          </mxGeometry>
        </mxCell>
        <mxCell id="aVFP65PxiB08wbSl48Av-28" value="" style="group" vertex="1" connectable="0" parent="1">
          <mxGeometry x="370" y="480" width="90" height="80" as="geometry" />
        </mxCell>
        <mxCell id="aVFP65PxiB08wbSl48Av-29" value="" style="endArrow=none;html=1;rounded=0;" edge="1" parent="aVFP65PxiB08wbSl48Av-28">
          <mxGeometry width="50" height="50" relative="1" as="geometry">
            <mxPoint as="sourcePoint" />
            <mxPoint x="90" as="targetPoint" />
          </mxGeometry>
        </mxCell>
        <mxCell id="aVFP65PxiB08wbSl48Av-30" value="" style="endArrow=none;html=1;rounded=0;" edge="1" parent="aVFP65PxiB08wbSl48Av-28">
          <mxGeometry width="50" height="50" relative="1" as="geometry">
            <mxPoint y="80" as="sourcePoint" />
            <mxPoint x="90" y="80" as="targetPoint" />
          </mxGeometry>
        </mxCell>
        <mxCell id="aVFP65PxiB08wbSl48Av-31" value="" style="curved=1;endArrow=none;html=1;rounded=0;endFill=0;" edge="1" parent="aVFP65PxiB08wbSl48Av-28">
          <mxGeometry width="50" height="50" relative="1" as="geometry">
            <mxPoint y="80" as="sourcePoint" />
            <mxPoint as="targetPoint" />
            <Array as="points">
              <mxPoint y="50" />
              <mxPoint x="30" y="50" />
              <mxPoint x="30" y="20" />
              <mxPoint y="30" />
            </Array>
          </mxGeometry>
        </mxCell>
        <mxCell id="aVFP65PxiB08wbSl48Av-32" value="" style="curved=1;endArrow=none;html=1;rounded=0;endFill=0;" edge="1" parent="aVFP65PxiB08wbSl48Av-28">
          <mxGeometry width="50" height="50" relative="1" as="geometry">
            <mxPoint x="90" y="80" as="sourcePoint" />
            <mxPoint x="90" as="targetPoint" />
            <Array as="points">
              <mxPoint x="90" y="50" />
              <mxPoint x="60" y="50" />
              <mxPoint x="60" y="30" />
              <mxPoint x="90" y="30" />
            </Array>
          </mxGeometry>
        </mxCell>
        <mxCell id="aVFP65PxiB08wbSl48Av-33" value="" style="group" vertex="1" connectable="0" parent="1">
          <mxGeometry x="250" y="480" width="150" height="80" as="geometry" />
        </mxCell>
        <mxCell id="aVFP65PxiB08wbSl48Av-34" value="" style="endArrow=none;html=1;rounded=0;" edge="1" parent="aVFP65PxiB08wbSl48Av-33">
          <mxGeometry width="50" height="50" relative="1" as="geometry">
            <mxPoint x="30" as="sourcePoint" />
            <mxPoint x="120" as="targetPoint" />
          </mxGeometry>
        </mxCell>
        <mxCell id="aVFP65PxiB08wbSl48Av-35" value="" style="endArrow=none;html=1;rounded=0;" edge="1" parent="aVFP65PxiB08wbSl48Av-33">
          <mxGeometry width="50" height="50" relative="1" as="geometry">
            <mxPoint x="30" y="80" as="sourcePoint" />
            <mxPoint x="120" y="80" as="targetPoint" />
          </mxGeometry>
        </mxCell>
        <mxCell id="aVFP65PxiB08wbSl48Av-36" value="" style="curved=1;endArrow=none;html=1;rounded=0;endFill=0;" edge="1" parent="aVFP65PxiB08wbSl48Av-33">
          <mxGeometry width="50" height="50" relative="1" as="geometry">
            <mxPoint x="30" y="80" as="sourcePoint" />
            <mxPoint x="30" as="targetPoint" />
            <Array as="points">
              <mxPoint x="30" y="50" />
              <mxPoint y="50" />
              <mxPoint y="30" />
              <mxPoint x="30" y="30" />
            </Array>
          </mxGeometry>
        </mxCell>
        <mxCell id="aVFP65PxiB08wbSl48Av-37" value="" style="curved=1;endArrow=none;html=1;rounded=0;endFill=0;" edge="1" parent="aVFP65PxiB08wbSl48Av-33">
          <mxGeometry width="50" height="50" relative="1" as="geometry">
            <mxPoint x="120" y="80" as="sourcePoint" />
            <mxPoint x="120" as="targetPoint" />
            <Array as="points">
              <mxPoint x="120" y="50" />
              <mxPoint x="150" y="50" />
              <mxPoint x="150" y="20" />
              <mxPoint x="120" y="30" />
            </Array>
          </mxGeometry>
        </mxCell>
        <mxCell id="aVFP65PxiB08wbSl48Av-38" value="" style="group" vertex="1" connectable="0" parent="1">
          <mxGeometry x="430" y="480" width="80" height="80" as="geometry" />
        </mxCell>
        <mxCell id="aVFP65PxiB08wbSl48Av-39" value="" style="endArrow=none;html=1;rounded=0;" edge="1" parent="aVFP65PxiB08wbSl48Av-38">
          <mxGeometry width="50" height="50" relative="1" as="geometry">
            <mxPoint x="30" as="sourcePoint" />
            <mxPoint x="80" as="targetPoint" />
          </mxGeometry>
        </mxCell>
        <mxCell id="aVFP65PxiB08wbSl48Av-40" value="" style="endArrow=none;html=1;rounded=0;" edge="1" parent="aVFP65PxiB08wbSl48Av-38">
          <mxGeometry width="50" height="50" relative="1" as="geometry">
            <mxPoint x="30" y="80" as="sourcePoint" />
            <mxPoint x="80" y="80" as="targetPoint" />
          </mxGeometry>
        </mxCell>
        <mxCell id="aVFP65PxiB08wbSl48Av-41" value="" style="endArrow=none;html=1;rounded=0;" edge="1" parent="aVFP65PxiB08wbSl48Av-38">
          <mxGeometry width="50" height="50" relative="1" as="geometry">
            <mxPoint x="80" y="80" as="sourcePoint" />
            <mxPoint x="80" as="targetPoint" />
          </mxGeometry>
        </mxCell>
        <mxCell id="aVFP65PxiB08wbSl48Av-42" value="" style="curved=1;endArrow=none;html=1;rounded=0;endFill=0;" edge="1" parent="aVFP65PxiB08wbSl48Av-38">
          <mxGeometry width="50" height="50" relative="1" as="geometry">
            <mxPoint x="30" y="80" as="sourcePoint" />
            <mxPoint x="30" as="targetPoint" />
            <Array as="points">
              <mxPoint x="30" y="50" />
              <mxPoint y="50" />
              <mxPoint y="30" />
              <mxPoint x="30" y="30" />
            </Array>
          </mxGeometry>
        </mxCell>
      </root>
    </mxGraphModel>
  </diagram>
  <diagram id="AdmtrY_0D9zPu9L6WxAu" name="Components Diagram">
    <mxGraphModel dx="1393" dy="766" grid="1" gridSize="10" guides="1" tooltips="1" connect="1" arrows="1" fold="1" page="1" pageScale="1" pageWidth="850" pageHeight="1100" math="0" shadow="0">
      <root>
        <mxCell id="0" />
        <mxCell id="1" parent="0" />
        <mxCell id="8zSa8AkhDFFGI9oU3RUi-14" value="" style="rounded=1;whiteSpace=wrap;html=1;strokeWidth=2;arcSize=8;" parent="1" vertex="1">
          <mxGeometry x="1230" y="25" width="200" height="185" as="geometry" />
        </mxCell>
        <mxCell id="mN7nepTJ9cvUC0dFq-xV-5" value="" style="whiteSpace=wrap;html=1;aspect=fixed;" parent="1" vertex="1">
          <mxGeometry x="500" y="500" width="131" height="131" as="geometry" />
        </mxCell>
        <mxCell id="p-JEFDLRTnTwNjQ3M5GP-9" value="" style="rounded=0;whiteSpace=wrap;html=1;" parent="1" vertex="1">
          <mxGeometry x="10" y="20" width="480" height="131" as="geometry" />
        </mxCell>
        <mxCell id="p-JEFDLRTnTwNjQ3M5GP-4" value="" style="rounded=0;whiteSpace=wrap;html=1;fillColor=#fff2cc;strokeColor=#d6b656;" parent="1" vertex="1">
          <mxGeometry x="220" y="155" width="270" height="90" as="geometry" />
        </mxCell>
        <mxCell id="p-JEFDLRTnTwNjQ3M5GP-1" value="" style="rounded=0;whiteSpace=wrap;html=1;fillColor=#dae8fc;strokeColor=#6c8ebf;" parent="1" vertex="1">
          <mxGeometry x="230" y="95" width="120" height="50" as="geometry" />
        </mxCell>
        <mxCell id="p-JEFDLRTnTwNjQ3M5GP-2" value="" style="rounded=0;whiteSpace=wrap;html=1;fillColor=#dae8fc;strokeColor=#6c8ebf;" parent="1" vertex="1">
          <mxGeometry x="360" y="95" width="120" height="50" as="geometry" />
        </mxCell>
        <mxCell id="p-JEFDLRTnTwNjQ3M5GP-5" value="" style="rounded=0;whiteSpace=wrap;html=1;fillColor=default;strokeColor=#82b366;strokeWidth=3;" parent="1" vertex="1">
          <mxGeometry x="450" y="160" width="20" height="80" as="geometry" />
        </mxCell>
        <mxCell id="p-JEFDLRTnTwNjQ3M5GP-6" value="" style="rounded=0;whiteSpace=wrap;html=1;fillColor=default;strokeColor=#82b366;strokeWidth=3;" parent="1" vertex="1">
          <mxGeometry x="320" y="160" width="20" height="80" as="geometry" />
        </mxCell>
        <mxCell id="p-JEFDLRTnTwNjQ3M5GP-8" value="" style="rounded=0;whiteSpace=wrap;html=1;fillColor=#f8cecc;strokeColor=#b85450;" parent="1" vertex="1">
          <mxGeometry x="100" y="95" width="120" height="50" as="geometry" />
        </mxCell>
        <mxCell id="p-JEFDLRTnTwNjQ3M5GP-11" value="" style="endArrow=none;dashed=1;html=1;rounded=0;exitX=0;exitY=0.5;exitDx=0;exitDy=0;entryX=1;entryY=0.5;entryDx=0;entryDy=0;dashPattern=12 12;strokeWidth=2;sourcePerimeterSpacing=2;" parent="1" source="p-JEFDLRTnTwNjQ3M5GP-9" target="p-JEFDLRTnTwNjQ3M5GP-9" edge="1">
          <mxGeometry width="50" height="50" relative="1" as="geometry">
            <mxPoint x="400" y="215" as="sourcePoint" />
            <mxPoint x="450" y="165" as="targetPoint" />
          </mxGeometry>
        </mxCell>
        <mxCell id="_OTMsR6TYkasu3cVTDzk-1" value="" style="rounded=0;whiteSpace=wrap;html=1;" parent="1" vertex="1">
          <mxGeometry x="620" y="20" width="480" height="131" as="geometry" />
        </mxCell>
        <mxCell id="_OTMsR6TYkasu3cVTDzk-2" value="" style="rounded=0;whiteSpace=wrap;html=1;fillColor=#fff2cc;strokeColor=#d6b656;" parent="1" vertex="1">
          <mxGeometry x="940" y="155" width="160" height="90" as="geometry" />
        </mxCell>
        <mxCell id="_OTMsR6TYkasu3cVTDzk-3" value="" style="rounded=0;whiteSpace=wrap;html=1;fillColor=#f8cecc;strokeColor=#b85450;" parent="1" vertex="1">
          <mxGeometry x="840" y="95" width="120" height="50" as="geometry" />
        </mxCell>
        <mxCell id="_OTMsR6TYkasu3cVTDzk-4" value="" style="rounded=0;whiteSpace=wrap;html=1;fillColor=#dae8fc;strokeColor=#6c8ebf;" parent="1" vertex="1">
          <mxGeometry x="970" y="95" width="120" height="50" as="geometry" />
        </mxCell>
        <mxCell id="_OTMsR6TYkasu3cVTDzk-5" value="" style="rounded=0;whiteSpace=wrap;html=1;fillColor=default;strokeColor=#82b366;strokeWidth=3;" parent="1" vertex="1">
          <mxGeometry x="1060" y="160" width="20" height="80" as="geometry" />
        </mxCell>
        <mxCell id="_OTMsR6TYkasu3cVTDzk-7" value="" style="rounded=0;whiteSpace=wrap;html=1;fillColor=#f8cecc;strokeColor=#b85450;" parent="1" vertex="1">
          <mxGeometry x="710" y="95" width="120" height="50" as="geometry" />
        </mxCell>
        <mxCell id="_OTMsR6TYkasu3cVTDzk-8" value="" style="endArrow=none;dashed=1;html=1;rounded=0;exitX=0;exitY=0.5;exitDx=0;exitDy=0;entryX=1;entryY=0.5;entryDx=0;entryDy=0;dashPattern=12 12;strokeWidth=2;sourcePerimeterSpacing=2;" parent="1" source="_OTMsR6TYkasu3cVTDzk-1" target="_OTMsR6TYkasu3cVTDzk-1" edge="1">
          <mxGeometry width="50" height="50" relative="1" as="geometry">
            <mxPoint x="1010" y="215" as="sourcePoint" />
            <mxPoint x="1060" y="165" as="targetPoint" />
          </mxGeometry>
        </mxCell>
        <mxCell id="_OTMsR6TYkasu3cVTDzk-10" value="" style="rounded=0;whiteSpace=wrap;html=1;" parent="1" vertex="1">
          <mxGeometry x="20" y="500" width="480" height="131" as="geometry" />
        </mxCell>
        <mxCell id="_OTMsR6TYkasu3cVTDzk-11" value="" style="endArrow=none;dashed=1;html=1;rounded=0;exitX=0;exitY=0.5;exitDx=0;exitDy=0;entryX=1;entryY=0.5;entryDx=0;entryDy=0;dashPattern=12 12;strokeWidth=2;sourcePerimeterSpacing=2;" parent="1" source="_OTMsR6TYkasu3cVTDzk-10" target="_OTMsR6TYkasu3cVTDzk-10" edge="1">
          <mxGeometry width="50" height="50" relative="1" as="geometry">
            <mxPoint x="410" y="695" as="sourcePoint" />
            <mxPoint x="460" y="645" as="targetPoint" />
          </mxGeometry>
        </mxCell>
        <mxCell id="_OTMsR6TYkasu3cVTDzk-9" value="" style="shape=image;html=1;verticalAlign=top;verticalLabelPosition=bottom;labelBackgroundColor=#ffffff;imageAspect=0;aspect=fixed;image=https://cdn0.iconfinder.com/data/icons/strabo/24/traffic_light.png" parent="1" vertex="1">
          <mxGeometry x="485" y="480" width="30" height="30" as="geometry" />
        </mxCell>
        <mxCell id="_OTMsR6TYkasu3cVTDzk-13" value="" style="rounded=0;whiteSpace=wrap;html=1;fillColor=#f8cecc;strokeColor=#b85450;" parent="1" vertex="1">
          <mxGeometry x="375" y="575" width="120" height="50" as="geometry" />
        </mxCell>
        <mxCell id="_OTMsR6TYkasu3cVTDzk-14" value="" style="rounded=0;whiteSpace=wrap;html=1;fillColor=#f8cecc;strokeColor=#b85450;" parent="1" vertex="1">
          <mxGeometry x="244" y="575" width="120" height="50" as="geometry" />
        </mxCell>
        <mxCell id="_OTMsR6TYkasu3cVTDzk-15" value="" style="rounded=0;whiteSpace=wrap;html=1;fillColor=#f8cecc;strokeColor=#b85450;" parent="1" vertex="1">
          <mxGeometry x="112" y="575" width="120" height="50" as="geometry" />
        </mxCell>
        <mxCell id="_OTMsR6TYkasu3cVTDzk-16" value="" style="rounded=1;whiteSpace=wrap;html=1;" parent="1" vertex="1">
          <mxGeometry x="70" y="790" width="310" height="130" as="geometry" />
        </mxCell>
        <mxCell id="_OTMsR6TYkasu3cVTDzk-17" value="" style="ellipse;whiteSpace=wrap;html=1;aspect=fixed;" parent="1" vertex="1">
          <mxGeometry x="270" y="890" width="50" height="50" as="geometry" />
        </mxCell>
        <mxCell id="_OTMsR6TYkasu3cVTDzk-18" value="" style="ellipse;whiteSpace=wrap;html=1;aspect=fixed;" parent="1" vertex="1">
          <mxGeometry x="90" y="890" width="50" height="50" as="geometry" />
        </mxCell>
        <mxCell id="_OTMsR6TYkasu3cVTDzk-19" value="" style="whiteSpace=wrap;html=1;aspect=fixed;" parent="1" vertex="1">
          <mxGeometry x="85" y="810" width="40" height="40" as="geometry" />
        </mxCell>
        <mxCell id="_OTMsR6TYkasu3cVTDzk-20" value="" style="whiteSpace=wrap;html=1;aspect=fixed;" parent="1" vertex="1">
          <mxGeometry x="135" y="810" width="40" height="40" as="geometry" />
        </mxCell>
        <mxCell id="_OTMsR6TYkasu3cVTDzk-21" value="" style="whiteSpace=wrap;html=1;aspect=fixed;" parent="1" vertex="1">
          <mxGeometry x="185" y="810" width="40" height="40" as="geometry" />
        </mxCell>
        <mxCell id="_OTMsR6TYkasu3cVTDzk-22" value="" style="whiteSpace=wrap;html=1;aspect=fixed;" parent="1" vertex="1">
          <mxGeometry x="235" y="810" width="40" height="40" as="geometry" />
        </mxCell>
        <mxCell id="_OTMsR6TYkasu3cVTDzk-25" value="" style="rounded=1;whiteSpace=wrap;html=1;fillColor=#f8cecc;strokeColor=#b85450;" parent="1" vertex="1">
          <mxGeometry x="330" y="810" width="20" height="100" as="geometry" />
        </mxCell>
        <mxCell id="mN7nepTJ9cvUC0dFq-xV-15" value="" style="rounded=1;whiteSpace=wrap;html=1;" parent="1" vertex="1">
          <mxGeometry x="430" y="790" width="370" height="130" as="geometry" />
        </mxCell>
        <mxCell id="mN7nepTJ9cvUC0dFq-xV-16" value="" style="ellipse;whiteSpace=wrap;html=1;aspect=fixed;" parent="1" vertex="1">
          <mxGeometry x="690" y="890" width="50" height="50" as="geometry" />
        </mxCell>
        <mxCell id="mN7nepTJ9cvUC0dFq-xV-17" value="" style="ellipse;whiteSpace=wrap;html=1;aspect=fixed;" parent="1" vertex="1">
          <mxGeometry x="450" y="890" width="50" height="50" as="geometry" />
        </mxCell>
        <mxCell id="mN7nepTJ9cvUC0dFq-xV-18" value="" style="whiteSpace=wrap;html=1;aspect=fixed;" parent="1" vertex="1">
          <mxGeometry x="450" y="810" width="40" height="40" as="geometry" />
        </mxCell>
        <mxCell id="mN7nepTJ9cvUC0dFq-xV-19" value="" style="whiteSpace=wrap;html=1;aspect=fixed;" parent="1" vertex="1">
          <mxGeometry x="500" y="810" width="40" height="40" as="geometry" />
        </mxCell>
        <mxCell id="mN7nepTJ9cvUC0dFq-xV-20" value="" style="whiteSpace=wrap;html=1;aspect=fixed;" parent="1" vertex="1">
          <mxGeometry x="550" y="810" width="40" height="40" as="geometry" />
        </mxCell>
        <mxCell id="mN7nepTJ9cvUC0dFq-xV-22" value="" style="rounded=1;whiteSpace=wrap;html=1;fillColor=#d5e8d4;strokeColor=#82b366;" parent="1" vertex="1">
          <mxGeometry x="750" y="810" width="30" height="100" as="geometry" />
        </mxCell>
        <mxCell id="mN7nepTJ9cvUC0dFq-xV-23" value="" style="whiteSpace=wrap;html=1;aspect=fixed;" parent="1" vertex="1">
          <mxGeometry x="648" y="811" width="40" height="40" as="geometry" />
        </mxCell>
        <mxCell id="mN7nepTJ9cvUC0dFq-xV-24" value="" style="whiteSpace=wrap;html=1;aspect=fixed;" parent="1" vertex="1">
          <mxGeometry x="698" y="811" width="40" height="40" as="geometry" />
        </mxCell>
        <mxCell id="mN7nepTJ9cvUC0dFq-xV-25" value="" style="rounded=1;whiteSpace=wrap;html=1;fillColor=#f8cecc;strokeColor=#b85450;" parent="1" vertex="1">
          <mxGeometry x="604" y="810" width="30" height="100" as="geometry" />
        </mxCell>
        <mxCell id="mN7nepTJ9cvUC0dFq-xV-26" value="" style="rounded=1;whiteSpace=wrap;html=1;" parent="1" vertex="1">
          <mxGeometry x="850" y="790" width="400" height="130" as="geometry" />
        </mxCell>
        <mxCell id="mN7nepTJ9cvUC0dFq-xV-27" value="" style="ellipse;whiteSpace=wrap;html=1;aspect=fixed;" parent="1" vertex="1">
          <mxGeometry x="1140" y="890" width="50" height="50" as="geometry" />
        </mxCell>
        <mxCell id="mN7nepTJ9cvUC0dFq-xV-28" value="" style="ellipse;whiteSpace=wrap;html=1;aspect=fixed;" parent="1" vertex="1">
          <mxGeometry x="909" y="890" width="50" height="50" as="geometry" />
        </mxCell>
        <mxCell id="mN7nepTJ9cvUC0dFq-xV-30" value="" style="whiteSpace=wrap;html=1;aspect=fixed;" parent="1" vertex="1">
          <mxGeometry x="957" y="810" width="40" height="40" as="geometry" />
        </mxCell>
        <mxCell id="mN7nepTJ9cvUC0dFq-xV-31" value="" style="whiteSpace=wrap;html=1;aspect=fixed;" parent="1" vertex="1">
          <mxGeometry x="1005" y="810" width="40" height="40" as="geometry" />
        </mxCell>
        <mxCell id="mN7nepTJ9cvUC0dFq-xV-32" value="" style="rounded=1;whiteSpace=wrap;html=1;fillColor=#d5e8d4;strokeColor=#82b366;" parent="1" vertex="1">
          <mxGeometry x="1200" y="810" width="30" height="100" as="geometry" />
        </mxCell>
        <mxCell id="mN7nepTJ9cvUC0dFq-xV-33" value="" style="whiteSpace=wrap;html=1;aspect=fixed;" parent="1" vertex="1">
          <mxGeometry x="1098" y="811" width="40" height="40" as="geometry" />
        </mxCell>
        <mxCell id="mN7nepTJ9cvUC0dFq-xV-34" value="" style="whiteSpace=wrap;html=1;aspect=fixed;" parent="1" vertex="1">
          <mxGeometry x="1148" y="811" width="40" height="40" as="geometry" />
        </mxCell>
        <mxCell id="mN7nepTJ9cvUC0dFq-xV-35" value="" style="rounded=1;whiteSpace=wrap;html=1;fillColor=#f8cecc;strokeColor=#b85450;" parent="1" vertex="1">
          <mxGeometry x="1054" y="810" width="30" height="100" as="geometry" />
        </mxCell>
        <mxCell id="mN7nepTJ9cvUC0dFq-xV-36" value="" style="rounded=1;whiteSpace=wrap;html=1;fillColor=#f8cecc;strokeColor=#b85450;" parent="1" vertex="1">
          <mxGeometry x="870" y="810" width="30" height="100" as="geometry" />
        </mxCell>
        <mxCell id="mN7nepTJ9cvUC0dFq-xV-37" value="" style="whiteSpace=wrap;html=1;aspect=fixed;" parent="1" vertex="1">
          <mxGeometry x="909" y="810" width="40" height="40" as="geometry" />
        </mxCell>
        <mxCell id="mN7nepTJ9cvUC0dFq-xV-38" value="" style="whiteSpace=wrap;html=1;aspect=fixed;" parent="1" vertex="1">
          <mxGeometry x="284" y="810" width="40" height="40" as="geometry" />
        </mxCell>
        <mxCell id="8zSa8AkhDFFGI9oU3RUi-3" value="" style="whiteSpace=wrap;html=1;aspect=fixed;fillColor=#fff2cc;strokeColor=#d6b656;" parent="1" vertex="1">
          <mxGeometry x="1240" y="60.5" width="29" height="29" as="geometry" />
        </mxCell>
        <mxCell id="8zSa8AkhDFFGI9oU3RUi-4" value="" style="whiteSpace=wrap;html=1;aspect=fixed;fillColor=#ffffff;strokeColor=#82b366;strokeWidth=3;" parent="1" vertex="1">
          <mxGeometry x="1240" y="96.5" width="29" height="29" as="geometry" />
        </mxCell>
        <mxCell id="8zSa8AkhDFFGI9oU3RUi-5" value="" style="whiteSpace=wrap;html=1;aspect=fixed;fillColor=#dae8fc;strokeColor=#6c8ebf;" parent="1" vertex="1">
          <mxGeometry x="1240" y="133" width="29" height="29" as="geometry" />
        </mxCell>
        <mxCell id="8zSa8AkhDFFGI9oU3RUi-6" value="" style="whiteSpace=wrap;html=1;aspect=fixed;fillColor=#f8cecc;strokeColor=#b85450;" parent="1" vertex="1">
          <mxGeometry x="1240" y="169" width="29" height="29" as="geometry" />
        </mxCell>
        <mxCell id="8zSa8AkhDFFGI9oU3RUi-9" value="Bus Stop" style="text;html=1;align=center;verticalAlign=middle;resizable=0;points=[];autosize=1;strokeColor=none;fillColor=none;" parent="1" vertex="1">
          <mxGeometry x="1275" y="60" width="70" height="30" as="geometry" />
        </mxCell>
        <mxCell id="8zSa8AkhDFFGI9oU3RUi-10" value="Passenger Virtual Queue" style="text;html=1;align=center;verticalAlign=middle;resizable=0;points=[];autosize=1;strokeColor=none;fillColor=none;" parent="1" vertex="1">
          <mxGeometry x="1275" y="95" width="160" height="30" as="geometry" />
        </mxCell>
        <mxCell id="8zSa8AkhDFFGI9oU3RUi-11" value="&lt;b&gt;&lt;u&gt;Legend&lt;/u&gt;&lt;/b&gt;" style="text;html=1;align=center;verticalAlign=middle;resizable=0;points=[];autosize=1;strokeColor=none;fillColor=none;" parent="1" vertex="1">
          <mxGeometry x="1290" y="20" width="70" height="30" as="geometry" />
        </mxCell>
        <mxCell id="8zSa8AkhDFFGI9oU3RUi-12" value="Operational Bus" style="text;html=1;align=center;verticalAlign=middle;resizable=0;points=[];autosize=1;strokeColor=none;fillColor=none;" parent="1" vertex="1">
          <mxGeometry x="1275" y="132.5" width="110" height="30" as="geometry" />
        </mxCell>
        <mxCell id="8zSa8AkhDFFGI9oU3RUi-13" value="Bus in Queue" style="text;html=1;align=center;verticalAlign=middle;resizable=0;points=[];autosize=1;strokeColor=none;fillColor=none;" parent="1" vertex="1">
          <mxGeometry x="1275" y="168.5" width="100" height="30" as="geometry" />
        </mxCell>
        <mxCell id="C93DVyEpPyU-d4xvKC3O-1" value="" style="rounded=1;whiteSpace=wrap;html=1;fillColor=#d5e8d4;strokeColor=#82b366;" parent="1" vertex="1">
          <mxGeometry x="350" y="810" width="20" height="100" as="geometry" />
        </mxCell>
      </root>
    </mxGraphModel>
  </diagram>
  <diagram id="7Z_qs1OuLWq8Hy2wJX3g" name="Bus Transitions">
    <mxGraphModel dx="1393" dy="766" grid="1" gridSize="10" guides="1" tooltips="1" connect="1" arrows="1" fold="1" page="1" pageScale="1" pageWidth="850" pageHeight="1100" math="0" shadow="0">
      <root>
        <mxCell id="0" />
        <mxCell id="1" parent="0" />
        <mxCell id="4UaV8vPkF3afkNTPwKoB-12" value="&lt;p style=&quot;line-height: 100%;&quot;&gt;&lt;font style=&quot;font-size: 14px;&quot;&gt;&lt;b&gt;1&lt;/b&gt;&lt;/font&gt;&lt;/p&gt;" style="edgeStyle=orthogonalEdgeStyle;rounded=0;orthogonalLoop=1;jettySize=auto;html=1;exitX=0.75;exitY=0;exitDx=0;exitDy=0;entryX=0.25;entryY=0;entryDx=0;entryDy=0;strokeWidth=2;" parent="1" source="4UaV8vPkF3afkNTPwKoB-1" target="4UaV8vPkF3afkNTPwKoB-2" edge="1">
          <mxGeometry relative="1" as="geometry" />
        </mxCell>
        <mxCell id="4UaV8vPkF3afkNTPwKoB-1" value="STATIONARY" style="rounded=0;whiteSpace=wrap;html=1;" parent="1" vertex="1">
          <mxGeometry x="125" y="240" width="120" height="60" as="geometry" />
        </mxCell>
        <mxCell id="4UaV8vPkF3afkNTPwKoB-6" value="&lt;font style=&quot;font-size: 14px;&quot;&gt;&lt;b&gt;2&lt;/b&gt;&lt;/font&gt;" style="edgeStyle=orthogonalEdgeStyle;rounded=0;orthogonalLoop=1;jettySize=auto;html=1;exitX=0.75;exitY=0;exitDx=0;exitDy=0;entryX=0.25;entryY=0;entryDx=0;entryDy=0;strokeWidth=2;" parent="1" source="4UaV8vPkF3afkNTPwKoB-2" target="4UaV8vPkF3afkNTPwKoB-3" edge="1">
          <mxGeometry relative="1" as="geometry" />
        </mxCell>
        <mxCell id="4UaV8vPkF3afkNTPwKoB-13" value="&lt;font style=&quot;font-size: 14px;&quot;&gt;&lt;b&gt;3&lt;/b&gt;&lt;/font&gt;" style="edgeStyle=orthogonalEdgeStyle;rounded=0;orthogonalLoop=1;jettySize=auto;html=1;exitX=0.5;exitY=0;exitDx=0;exitDy=0;entryX=0.5;entryY=0;entryDx=0;entryDy=0;strokeWidth=2;" parent="1" source="4UaV8vPkF3afkNTPwKoB-2" target="4UaV8vPkF3afkNTPwKoB-4" edge="1">
          <mxGeometry relative="1" as="geometry">
            <Array as="points">
              <mxPoint x="345" y="200" />
              <mxPoint x="665" y="200" />
            </Array>
          </mxGeometry>
        </mxCell>
        <mxCell id="4UaV8vPkF3afkNTPwKoB-2" value="ACCELERATING" style="rounded=0;whiteSpace=wrap;html=1;" parent="1" vertex="1">
          <mxGeometry x="285" y="240" width="120" height="60" as="geometry" />
        </mxCell>
        <mxCell id="4UaV8vPkF3afkNTPwKoB-9" value="&lt;font style=&quot;font-size: 14px;&quot;&gt;&lt;b&gt;5&lt;/b&gt;&lt;/font&gt;" style="edgeStyle=orthogonalEdgeStyle;rounded=0;orthogonalLoop=1;jettySize=auto;html=1;exitX=0.25;exitY=1;exitDx=0;exitDy=0;entryX=0.75;entryY=1;entryDx=0;entryDy=0;strokeWidth=2;" parent="1" source="4UaV8vPkF3afkNTPwKoB-3" target="4UaV8vPkF3afkNTPwKoB-2" edge="1">
          <mxGeometry relative="1" as="geometry" />
        </mxCell>
        <mxCell id="4UaV8vPkF3afkNTPwKoB-14" value="&lt;font style=&quot;font-size: 14px;&quot;&gt;&lt;b&gt;6&lt;/b&gt;&lt;/font&gt;" style="edgeStyle=orthogonalEdgeStyle;rounded=0;orthogonalLoop=1;jettySize=auto;html=1;exitX=0.5;exitY=1;exitDx=0;exitDy=0;entryX=0.408;entryY=1.017;entryDx=0;entryDy=0;entryPerimeter=0;strokeWidth=2;" parent="1" source="4UaV8vPkF3afkNTPwKoB-3" target="4UaV8vPkF3afkNTPwKoB-1" edge="1">
          <mxGeometry relative="1" as="geometry">
            <Array as="points">
              <mxPoint x="505" y="340" />
              <mxPoint x="174" y="340" />
            </Array>
          </mxGeometry>
        </mxCell>
        <mxCell id="4UaV8vPkF3afkNTPwKoB-3" value="DESCELERATING" style="rounded=0;whiteSpace=wrap;html=1;" parent="1" vertex="1">
          <mxGeometry x="445" y="240" width="120" height="60" as="geometry" />
        </mxCell>
        <mxCell id="4UaV8vPkF3afkNTPwKoB-8" value="&lt;font style=&quot;font-size: 14px;&quot;&gt;&lt;b&gt;4&lt;/b&gt;&lt;/font&gt;" style="edgeStyle=orthogonalEdgeStyle;rounded=0;orthogonalLoop=1;jettySize=auto;html=1;exitX=0.25;exitY=1;exitDx=0;exitDy=0;entryX=0.75;entryY=1;entryDx=0;entryDy=0;strokeWidth=2;" parent="1" source="4UaV8vPkF3afkNTPwKoB-4" target="4UaV8vPkF3afkNTPwKoB-3" edge="1">
          <mxGeometry relative="1" as="geometry" />
        </mxCell>
        <mxCell id="4UaV8vPkF3afkNTPwKoB-4" value="CRUISING" style="rounded=0;whiteSpace=wrap;html=1;" parent="1" vertex="1">
          <mxGeometry x="605" y="240" width="120" height="60" as="geometry" />
        </mxCell>
        <mxCell id="nZtN20jbOCeIuU8Zvhwf-9" value="Transitions" style="shape=table;startSize=30;container=1;collapsible=0;childLayout=tableLayout;fixedRows=1;rowLines=0;fontStyle=0;strokeColor=default;fontSize=16;" parent="1" vertex="1">
          <mxGeometry x="125" y="390" width="600" height="210" as="geometry" />
        </mxCell>
        <mxCell id="nZtN20jbOCeIuU8Zvhwf-10" value="" style="shape=tableRow;horizontal=0;startSize=0;swimlaneHead=0;swimlaneBody=0;top=0;left=0;bottom=0;right=0;collapsible=0;dropTarget=0;fillColor=none;points=[[0,0.5],[1,0.5]];portConstraint=eastwest;strokeColor=inherit;fontSize=16;" parent="nZtN20jbOCeIuU8Zvhwf-9" vertex="1">
          <mxGeometry y="30" width="600" height="30" as="geometry" />
        </mxCell>
        <mxCell id="nZtN20jbOCeIuU8Zvhwf-11" value="1" style="shape=partialRectangle;html=1;whiteSpace=wrap;connectable=0;fillColor=none;top=0;left=0;bottom=0;right=0;overflow=hidden;pointerEvents=1;strokeColor=inherit;fontSize=16;" parent="nZtN20jbOCeIuU8Zvhwf-10" vertex="1">
          <mxGeometry width="63" height="30" as="geometry">
            <mxRectangle width="63" height="30" as="alternateBounds" />
          </mxGeometry>
        </mxCell>
        <mxCell id="nZtN20jbOCeIuU8Zvhwf-12" value="Departing a Stop or Intersection" style="shape=partialRectangle;html=1;whiteSpace=wrap;connectable=0;fillColor=none;top=0;left=0;bottom=0;right=0;align=left;spacingLeft=6;overflow=hidden;strokeColor=inherit;fontSize=16;" parent="nZtN20jbOCeIuU8Zvhwf-10" vertex="1">
          <mxGeometry x="63" width="537" height="30" as="geometry">
            <mxRectangle width="537" height="30" as="alternateBounds" />
          </mxGeometry>
        </mxCell>
        <mxCell id="nZtN20jbOCeIuU8Zvhwf-13" value="" style="shape=tableRow;horizontal=0;startSize=0;swimlaneHead=0;swimlaneBody=0;top=0;left=0;bottom=0;right=0;collapsible=0;dropTarget=0;fillColor=none;points=[[0,0.5],[1,0.5]];portConstraint=eastwest;strokeColor=inherit;fontSize=16;" parent="nZtN20jbOCeIuU8Zvhwf-9" vertex="1">
          <mxGeometry y="60" width="600" height="30" as="geometry" />
        </mxCell>
        <mxCell id="nZtN20jbOCeIuU8Zvhwf-14" value="2" style="shape=partialRectangle;html=1;whiteSpace=wrap;connectable=0;fillColor=none;top=0;left=0;bottom=0;right=0;overflow=hidden;strokeColor=inherit;fontSize=16;" parent="nZtN20jbOCeIuU8Zvhwf-13" vertex="1">
          <mxGeometry width="63" height="30" as="geometry">
            <mxRectangle width="63" height="30" as="alternateBounds" />
          </mxGeometry>
        </mxCell>
        <mxCell id="nZtN20jbOCeIuU8Zvhwf-15" value="Approached A Breaking Point and Break Flag: True&amp;nbsp;" style="shape=partialRectangle;html=1;whiteSpace=wrap;connectable=0;fillColor=none;top=0;left=0;bottom=0;right=0;align=left;spacingLeft=6;overflow=hidden;strokeColor=inherit;fontSize=16;" parent="nZtN20jbOCeIuU8Zvhwf-13" vertex="1">
          <mxGeometry x="63" width="537" height="30" as="geometry">
            <mxRectangle width="537" height="30" as="alternateBounds" />
          </mxGeometry>
        </mxCell>
        <mxCell id="nZtN20jbOCeIuU8Zvhwf-16" value="" style="shape=tableRow;horizontal=0;startSize=0;swimlaneHead=0;swimlaneBody=0;top=0;left=0;bottom=0;right=0;collapsible=0;dropTarget=0;fillColor=none;points=[[0,0.5],[1,0.5]];portConstraint=eastwest;strokeColor=inherit;fontSize=16;" parent="nZtN20jbOCeIuU8Zvhwf-9" vertex="1">
          <mxGeometry y="90" width="600" height="30" as="geometry" />
        </mxCell>
        <mxCell id="nZtN20jbOCeIuU8Zvhwf-17" value="3" style="shape=partialRectangle;html=1;whiteSpace=wrap;connectable=0;fillColor=none;top=0;left=0;bottom=0;right=0;overflow=hidden;strokeColor=inherit;fontSize=16;" parent="nZtN20jbOCeIuU8Zvhwf-16" vertex="1">
          <mxGeometry width="63" height="30" as="geometry">
            <mxRectangle width="63" height="30" as="alternateBounds" />
          </mxGeometry>
        </mxCell>
        <mxCell id="nZtN20jbOCeIuU8Zvhwf-18" value="Reached Top Speed" style="shape=partialRectangle;html=1;whiteSpace=wrap;connectable=0;fillColor=none;top=0;left=0;bottom=0;right=0;align=left;spacingLeft=6;overflow=hidden;strokeColor=inherit;fontSize=16;" parent="nZtN20jbOCeIuU8Zvhwf-16" vertex="1">
          <mxGeometry x="63" width="537" height="30" as="geometry">
            <mxRectangle width="537" height="30" as="alternateBounds" />
          </mxGeometry>
        </mxCell>
        <mxCell id="nZtN20jbOCeIuU8Zvhwf-19" style="shape=tableRow;horizontal=0;startSize=0;swimlaneHead=0;swimlaneBody=0;top=0;left=0;bottom=0;right=0;collapsible=0;dropTarget=0;fillColor=none;points=[[0,0.5],[1,0.5]];portConstraint=eastwest;strokeColor=inherit;fontSize=16;" parent="nZtN20jbOCeIuU8Zvhwf-9" vertex="1">
          <mxGeometry y="120" width="600" height="30" as="geometry" />
        </mxCell>
        <mxCell id="nZtN20jbOCeIuU8Zvhwf-20" value="4" style="shape=partialRectangle;html=1;whiteSpace=wrap;connectable=0;fillColor=none;top=0;left=0;bottom=0;right=0;overflow=hidden;strokeColor=inherit;fontSize=16;" parent="nZtN20jbOCeIuU8Zvhwf-19" vertex="1">
          <mxGeometry width="63" height="30" as="geometry">
            <mxRectangle width="63" height="30" as="alternateBounds" />
          </mxGeometry>
        </mxCell>
        <mxCell id="nZtN20jbOCeIuU8Zvhwf-21" value="Approach A Breaking Point and Break Flag: True" style="shape=partialRectangle;html=1;whiteSpace=wrap;connectable=0;fillColor=none;top=0;left=0;bottom=0;right=0;align=left;spacingLeft=6;overflow=hidden;strokeColor=inherit;fontSize=16;" parent="nZtN20jbOCeIuU8Zvhwf-19" vertex="1">
          <mxGeometry x="63" width="537" height="30" as="geometry">
            <mxRectangle width="537" height="30" as="alternateBounds" />
          </mxGeometry>
        </mxCell>
        <mxCell id="nZtN20jbOCeIuU8Zvhwf-22" style="shape=tableRow;horizontal=0;startSize=0;swimlaneHead=0;swimlaneBody=0;top=0;left=0;bottom=0;right=0;collapsible=0;dropTarget=0;fillColor=none;points=[[0,0.5],[1,0.5]];portConstraint=eastwest;strokeColor=inherit;fontSize=16;" parent="nZtN20jbOCeIuU8Zvhwf-9" vertex="1">
          <mxGeometry y="150" width="600" height="30" as="geometry" />
        </mxCell>
        <mxCell id="nZtN20jbOCeIuU8Zvhwf-23" value="5" style="shape=partialRectangle;html=1;whiteSpace=wrap;connectable=0;fillColor=none;top=0;left=0;bottom=0;right=0;overflow=hidden;strokeColor=inherit;fontSize=16;" parent="nZtN20jbOCeIuU8Zvhwf-22" vertex="1">
          <mxGeometry width="63" height="30" as="geometry">
            <mxRectangle width="63" height="30" as="alternateBounds" />
          </mxGeometry>
        </mxCell>
        <mxCell id="nZtN20jbOCeIuU8Zvhwf-24" value="Break Flag Changed From True to False" style="shape=partialRectangle;html=1;whiteSpace=wrap;connectable=0;fillColor=none;top=0;left=0;bottom=0;right=0;align=left;spacingLeft=6;overflow=hidden;strokeColor=inherit;fontSize=16;" parent="nZtN20jbOCeIuU8Zvhwf-22" vertex="1">
          <mxGeometry x="63" width="537" height="30" as="geometry">
            <mxRectangle width="537" height="30" as="alternateBounds" />
          </mxGeometry>
        </mxCell>
        <mxCell id="nZtN20jbOCeIuU8Zvhwf-25" style="shape=tableRow;horizontal=0;startSize=0;swimlaneHead=0;swimlaneBody=0;top=0;left=0;bottom=0;right=0;collapsible=0;dropTarget=0;fillColor=none;points=[[0,0.5],[1,0.5]];portConstraint=eastwest;strokeColor=inherit;fontSize=16;" parent="nZtN20jbOCeIuU8Zvhwf-9" vertex="1">
          <mxGeometry y="180" width="600" height="30" as="geometry" />
        </mxCell>
        <mxCell id="nZtN20jbOCeIuU8Zvhwf-26" value="6" style="shape=partialRectangle;html=1;whiteSpace=wrap;connectable=0;fillColor=none;top=0;left=0;bottom=0;right=0;overflow=hidden;strokeColor=inherit;fontSize=16;" parent="nZtN20jbOCeIuU8Zvhwf-25" vertex="1">
          <mxGeometry width="63" height="30" as="geometry">
            <mxRectangle width="63" height="30" as="alternateBounds" />
          </mxGeometry>
        </mxCell>
        <mxCell id="nZtN20jbOCeIuU8Zvhwf-27" value="Changed From Street Node to Intersection or Stop and Break Flag: True" style="shape=partialRectangle;html=1;whiteSpace=wrap;connectable=0;fillColor=none;top=0;left=0;bottom=0;right=0;align=left;spacingLeft=6;overflow=hidden;strokeColor=inherit;fontSize=16;" parent="nZtN20jbOCeIuU8Zvhwf-25" vertex="1">
          <mxGeometry x="63" width="537" height="30" as="geometry">
            <mxRectangle width="537" height="30" as="alternateBounds" />
          </mxGeometry>
        </mxCell>
      </root>
    </mxGraphModel>
  </diagram>
  <diagram id="P6xVoeLw8jda_hbR0Uvg" name="Break Conditions">
    <mxGraphModel dx="1393" dy="766" grid="1" gridSize="10" guides="1" tooltips="1" connect="1" arrows="1" fold="1" page="1" pageScale="1" pageWidth="850" pageHeight="1100" math="0" shadow="0">
      <root>
        <mxCell id="0" />
        <mxCell id="1" parent="0" />
        <mxCell id="dndqRHpkdio5RbqiK-H5-1" value="" style="rounded=0;whiteSpace=wrap;html=1;fillColor=#999999;fontColor=#333333;strokeColor=#666666;" parent="1" vertex="1">
          <mxGeometry x="120" y="240" width="600" height="10" as="geometry" />
        </mxCell>
        <mxCell id="HQE1taetZIfT-P8KsHiQ-1" value="" style="shape=image;html=1;verticalAlign=top;verticalLabelPosition=bottom;labelBackgroundColor=#ffffff;imageAspect=0;aspect=fixed;image=https://cdn0.iconfinder.com/data/icons/strabo/24/traffic_light.png" parent="1" vertex="1">
          <mxGeometry x="710" y="180" width="20" height="20" as="geometry" />
        </mxCell>
        <mxCell id="HQE1taetZIfT-P8KsHiQ-2" value="" style="endArrow=none;html=1;rounded=0;exitX=1;exitY=0;exitDx=0;exitDy=0;" parent="1" source="dndqRHpkdio5RbqiK-H5-1" target="HQE1taetZIfT-P8KsHiQ-1" edge="1">
          <mxGeometry width="50" height="50" relative="1" as="geometry">
            <mxPoint x="610" y="330" as="sourcePoint" />
            <mxPoint x="660" y="280" as="targetPoint" />
          </mxGeometry>
        </mxCell>
        <mxCell id="HQE1taetZIfT-P8KsHiQ-3" value="" style="rounded=1;whiteSpace=wrap;html=1;" parent="1" vertex="1">
          <mxGeometry x="425" y="200" width="70" height="30" as="geometry" />
        </mxCell>
        <mxCell id="HQE1taetZIfT-P8KsHiQ-4" value="" style="ellipse;whiteSpace=wrap;html=1;aspect=fixed;" parent="1" vertex="1">
          <mxGeometry x="430" y="220" width="20" height="20" as="geometry" />
        </mxCell>
        <mxCell id="HQE1taetZIfT-P8KsHiQ-5" value="" style="ellipse;whiteSpace=wrap;html=1;aspect=fixed;" parent="1" vertex="1">
          <mxGeometry x="470" y="220" width="20" height="20" as="geometry" />
        </mxCell>
        <mxCell id="HQE1taetZIfT-P8KsHiQ-6" value="" style="rounded=1;whiteSpace=wrap;html=1;" parent="1" vertex="1">
          <mxGeometry x="472" y="203" width="20" height="10" as="geometry" />
        </mxCell>
        <mxCell id="HQE1taetZIfT-P8KsHiQ-10" value="Street Length" style="group;fontStyle=1" parent="1" vertex="1" connectable="0">
          <mxGeometry x="120" y="273" width="600" height="20" as="geometry" />
        </mxCell>
        <mxCell id="HQE1taetZIfT-P8KsHiQ-7" value="" style="endArrow=none;html=1;rounded=0;" parent="HQE1taetZIfT-P8KsHiQ-10" edge="1">
          <mxGeometry width="50" height="50" relative="1" as="geometry">
            <mxPoint y="9" as="sourcePoint" />
            <mxPoint x="600.0000000000001" y="9" as="targetPoint" />
          </mxGeometry>
        </mxCell>
        <mxCell id="HQE1taetZIfT-P8KsHiQ-8" value="" style="endArrow=none;html=1;rounded=0;" parent="HQE1taetZIfT-P8KsHiQ-10" edge="1">
          <mxGeometry width="50" height="50" relative="1" as="geometry">
            <mxPoint y="20" as="sourcePoint" />
            <mxPoint as="targetPoint" />
          </mxGeometry>
        </mxCell>
        <mxCell id="HQE1taetZIfT-P8KsHiQ-9" value="" style="endArrow=none;html=1;rounded=0;" parent="HQE1taetZIfT-P8KsHiQ-10" edge="1">
          <mxGeometry width="50" height="50" relative="1" as="geometry">
            <mxPoint x="600.0000000000001" y="20" as="sourcePoint" />
            <mxPoint x="600.0000000000001" as="targetPoint" />
          </mxGeometry>
        </mxCell>
        <mxCell id="HQE1taetZIfT-P8KsHiQ-11" value="" style="ellipse;whiteSpace=wrap;html=1;aspect=fixed;fillColor=#f8cecc;strokeColor=#b85450;" parent="1" vertex="1">
          <mxGeometry x="455" y="210" width="10" height="10" as="geometry" />
        </mxCell>
        <mxCell id="HQE1taetZIfT-P8KsHiQ-14" value="Breaking Point" style="group;fontStyle=1" parent="1" vertex="1" connectable="0">
          <mxGeometry x="120" y="252" width="400" height="20" as="geometry" />
        </mxCell>
        <mxCell id="HQE1taetZIfT-P8KsHiQ-15" value="" style="endArrow=none;html=1;rounded=0;" parent="HQE1taetZIfT-P8KsHiQ-14" edge="1">
          <mxGeometry width="50" height="50" relative="1" as="geometry">
            <mxPoint y="9" as="sourcePoint" />
            <mxPoint x="400" y="9" as="targetPoint" />
          </mxGeometry>
        </mxCell>
        <mxCell id="HQE1taetZIfT-P8KsHiQ-16" value="" style="endArrow=none;html=1;rounded=0;" parent="HQE1taetZIfT-P8KsHiQ-14" edge="1">
          <mxGeometry width="50" height="50" relative="1" as="geometry">
            <mxPoint y="20" as="sourcePoint" />
            <mxPoint as="targetPoint" />
          </mxGeometry>
        </mxCell>
        <mxCell id="HQE1taetZIfT-P8KsHiQ-17" value="" style="endArrow=none;html=1;rounded=0;" parent="HQE1taetZIfT-P8KsHiQ-14" edge="1">
          <mxGeometry width="50" height="50" relative="1" as="geometry">
            <mxPoint x="400" y="20" as="sourcePoint" />
            <mxPoint x="400" as="targetPoint" />
          </mxGeometry>
        </mxCell>
        <mxCell id="HQE1taetZIfT-P8KsHiQ-19" value="Remaining Distance" style="group;fontStyle=1" parent="1" vertex="1" connectable="0">
          <mxGeometry x="460" y="140" width="260" height="20" as="geometry" />
        </mxCell>
        <mxCell id="HQE1taetZIfT-P8KsHiQ-20" value="" style="endArrow=none;html=1;rounded=0;" parent="HQE1taetZIfT-P8KsHiQ-19" edge="1">
          <mxGeometry width="50" height="50" relative="1" as="geometry">
            <mxPoint y="9" as="sourcePoint" />
            <mxPoint x="260.00000000000006" y="9" as="targetPoint" />
          </mxGeometry>
        </mxCell>
        <mxCell id="HQE1taetZIfT-P8KsHiQ-21" value="" style="endArrow=none;html=1;rounded=0;" parent="HQE1taetZIfT-P8KsHiQ-19" edge="1">
          <mxGeometry width="50" height="50" relative="1" as="geometry">
            <mxPoint y="20" as="sourcePoint" />
            <mxPoint as="targetPoint" />
          </mxGeometry>
        </mxCell>
        <mxCell id="HQE1taetZIfT-P8KsHiQ-22" value="" style="endArrow=none;html=1;rounded=0;" parent="HQE1taetZIfT-P8KsHiQ-19" edge="1">
          <mxGeometry width="50" height="50" relative="1" as="geometry">
            <mxPoint x="260.00000000000006" y="20" as="sourcePoint" />
            <mxPoint x="260.00000000000006" as="targetPoint" />
          </mxGeometry>
        </mxCell>
        <mxCell id="HQE1taetZIfT-P8KsHiQ-24" value="" style="endArrow=none;dashed=1;html=1;rounded=0;exitX=0.5;exitY=0;exitDx=0;exitDy=0;" parent="1" source="HQE1taetZIfT-P8KsHiQ-11" edge="1">
          <mxGeometry width="50" height="50" relative="1" as="geometry">
            <mxPoint x="400" y="180" as="sourcePoint" />
            <mxPoint x="460" y="150" as="targetPoint" />
          </mxGeometry>
        </mxCell>
        <mxCell id="HQE1taetZIfT-P8KsHiQ-25" value="Traveled Distance" style="group;fontStyle=1" parent="1" vertex="1" connectable="0">
          <mxGeometry x="120" y="140" width="340" height="20" as="geometry" />
        </mxCell>
        <mxCell id="HQE1taetZIfT-P8KsHiQ-26" value="" style="endArrow=none;html=1;rounded=0;" parent="HQE1taetZIfT-P8KsHiQ-25" edge="1">
          <mxGeometry width="50" height="50" relative="1" as="geometry">
            <mxPoint y="9" as="sourcePoint" />
            <mxPoint x="340.0000000000001" y="9" as="targetPoint" />
          </mxGeometry>
        </mxCell>
        <mxCell id="HQE1taetZIfT-P8KsHiQ-27" value="" style="endArrow=none;html=1;rounded=0;" parent="HQE1taetZIfT-P8KsHiQ-25" edge="1">
          <mxGeometry width="50" height="50" relative="1" as="geometry">
            <mxPoint y="20" as="sourcePoint" />
            <mxPoint as="targetPoint" />
          </mxGeometry>
        </mxCell>
        <mxCell id="HQE1taetZIfT-P8KsHiQ-28" value="" style="endArrow=none;html=1;rounded=0;" parent="HQE1taetZIfT-P8KsHiQ-25" edge="1">
          <mxGeometry width="50" height="50" relative="1" as="geometry">
            <mxPoint x="340.0000000000001" y="20" as="sourcePoint" />
            <mxPoint x="340.0000000000001" as="targetPoint" />
          </mxGeometry>
        </mxCell>
        <mxCell id="HQE1taetZIfT-P8KsHiQ-29" value="No Brake Check Zone" style="rounded=0;whiteSpace=wrap;html=1;fillStyle=auto;fillColor=#f8cecc;strokeColor=#b85450;opacity=60;" parent="1" vertex="1">
          <mxGeometry x="520" y="200" width="196" height="40" as="geometry" />
        </mxCell>
      </root>
    </mxGraphModel>
  </diagram>
</mxfile>
